%TF.GenerationSoftware,KiCad,Pcbnew,8.0.0*%
%TF.CreationDate,2024-03-15T19:34:49+09:00*%
%TF.ProjectId,ds_test_board3,64735f74-6573-4745-9f62-6f617264332e,rev?*%
%TF.SameCoordinates,Original*%
%TF.FileFunction,Paste,Bot*%
%TF.FilePolarity,Positive*%
%FSLAX46Y46*%
G04 Gerber Fmt 4.6, Leading zero omitted, Abs format (unit mm)*
G04 Created by KiCad (PCBNEW 8.0.0) date 2024-03-15 19:34:49*
%MOMM*%
%LPD*%
G01*
G04 APERTURE LIST*
%ADD10R,0.230000X0.660000*%
%ADD11R,0.350000X0.660000*%
G04 APERTURE END LIST*
D10*
%TO.C,J1*%
X162808000Y-111620000D03*
X162808000Y-114330000D03*
X163208000Y-111620000D03*
X163208000Y-114330000D03*
X163608000Y-111620000D03*
X163608000Y-114330000D03*
X164008000Y-111620000D03*
X164008000Y-114330000D03*
X164408000Y-111620000D03*
X164408000Y-114330000D03*
X164808000Y-111620000D03*
X164808000Y-114330000D03*
X165208000Y-111620000D03*
X165208000Y-114330000D03*
X165608000Y-111620000D03*
X165608000Y-114330000D03*
X166008000Y-111620000D03*
X166008000Y-114330000D03*
X166408000Y-111620000D03*
X166408000Y-114330000D03*
X166808000Y-111620000D03*
X166808000Y-114330000D03*
X167208000Y-111620000D03*
X167208000Y-114330000D03*
X167608000Y-111620000D03*
X167608000Y-114330000D03*
X168008000Y-111620000D03*
X168008000Y-114330000D03*
X168408000Y-111620000D03*
X168408000Y-114330000D03*
X168808000Y-111620000D03*
X168808000Y-114330000D03*
X169208000Y-111620000D03*
X169208000Y-114330000D03*
X169608000Y-111620000D03*
X169608000Y-114330000D03*
X170008000Y-111620000D03*
X170008000Y-114330000D03*
X170408000Y-111620000D03*
X170408000Y-114330000D03*
X170808000Y-111620000D03*
X170808000Y-114330000D03*
X171208000Y-111620000D03*
X171208000Y-114330000D03*
X171608000Y-111620000D03*
X171608000Y-114330000D03*
X172008000Y-111620000D03*
X172008000Y-114330000D03*
X172408000Y-111620000D03*
X172408000Y-114330000D03*
X172808000Y-111620000D03*
X172808000Y-114330000D03*
X173208000Y-111620000D03*
X173208000Y-114330000D03*
X173608000Y-111620000D03*
X173608000Y-114330000D03*
X174008000Y-111620000D03*
X174008000Y-114330000D03*
X174408000Y-111620000D03*
X174408000Y-114330000D03*
D11*
X162333000Y-114330000D03*
X162333000Y-111620000D03*
X174883000Y-111620000D03*
X174883000Y-114330000D03*
%TD*%
D10*
%TO.C,J2*%
X162726000Y-97620000D03*
X162726000Y-100330000D03*
X163126000Y-97620000D03*
X163126000Y-100330000D03*
X163526000Y-97620000D03*
X163526000Y-100330000D03*
X163926000Y-97620000D03*
X163926000Y-100330000D03*
X164326000Y-97620000D03*
X164326000Y-100330000D03*
X164726000Y-97620000D03*
X164726000Y-100330000D03*
X165126000Y-97620000D03*
X165126000Y-100330000D03*
X165526000Y-97620000D03*
X165526000Y-100330000D03*
X165926000Y-97620000D03*
X165926000Y-100330000D03*
X166326000Y-97620000D03*
X166326000Y-100330000D03*
X166726000Y-97620000D03*
X166726000Y-100330000D03*
X167126000Y-97620000D03*
X167126000Y-100330000D03*
X167526000Y-97620000D03*
X167526000Y-100330000D03*
X167926000Y-97620000D03*
X167926000Y-100330000D03*
X168326000Y-97620000D03*
X168326000Y-100330000D03*
X168726000Y-97620000D03*
X168726000Y-100330000D03*
X169126000Y-97620000D03*
X169126000Y-100330000D03*
X169526000Y-97620000D03*
X169526000Y-100330000D03*
X169926000Y-97620000D03*
X169926000Y-100330000D03*
X170326000Y-97620000D03*
X170326000Y-100330000D03*
X170726000Y-97620000D03*
X170726000Y-100330000D03*
X171126000Y-97620000D03*
X171126000Y-100330000D03*
X171526000Y-97620000D03*
X171526000Y-100330000D03*
X171926000Y-97620000D03*
X171926000Y-100330000D03*
X172326000Y-97620000D03*
X172326000Y-100330000D03*
X172726000Y-97620000D03*
X172726000Y-100330000D03*
X173126000Y-97620000D03*
X173126000Y-100330000D03*
X173526000Y-97620000D03*
X173526000Y-100330000D03*
X173926000Y-97620000D03*
X173926000Y-100330000D03*
X174326000Y-97620000D03*
X174326000Y-100330000D03*
D11*
X162251000Y-100330000D03*
X162251000Y-97620000D03*
X174801000Y-97620000D03*
X174801000Y-100330000D03*
%TD*%
M02*
