%TF.GenerationSoftware,KiCad,Pcbnew,8.0.0*%
%TF.CreationDate,2024-03-15T19:34:49+09:00*%
%TF.ProjectId,ds_test_board3,64735f74-6573-4745-9f62-6f617264332e,rev?*%
%TF.SameCoordinates,Original*%
%TF.FileFunction,Legend,Bot*%
%TF.FilePolarity,Positive*%
%FSLAX46Y46*%
G04 Gerber Fmt 4.6, Leading zero omitted, Abs format (unit mm)*
G04 Created by KiCad (PCBNEW 8.0.0) date 2024-03-15 19:34:49*
%MOMM*%
%LPD*%
G01*
G04 APERTURE LIST*
%ADD10C,0.100000*%
%ADD11C,0.254000*%
%ADD12C,0.120000*%
%ADD13C,0.200000*%
G04 APERTURE END LIST*
D10*
X189570687Y-59078990D02*
X189646877Y-59040895D01*
X189646877Y-59040895D02*
X189761163Y-59040895D01*
X189761163Y-59040895D02*
X189875449Y-59078990D01*
X189875449Y-59078990D02*
X189951639Y-59155180D01*
X189951639Y-59155180D02*
X189989734Y-59231371D01*
X189989734Y-59231371D02*
X190027830Y-59383752D01*
X190027830Y-59383752D02*
X190027830Y-59498038D01*
X190027830Y-59498038D02*
X189989734Y-59650419D01*
X189989734Y-59650419D02*
X189951639Y-59726609D01*
X189951639Y-59726609D02*
X189875449Y-59802800D01*
X189875449Y-59802800D02*
X189761163Y-59840895D01*
X189761163Y-59840895D02*
X189684972Y-59840895D01*
X189684972Y-59840895D02*
X189570687Y-59802800D01*
X189570687Y-59802800D02*
X189532591Y-59764704D01*
X189532591Y-59764704D02*
X189532591Y-59498038D01*
X189532591Y-59498038D02*
X189684972Y-59498038D01*
X189189734Y-59840895D02*
X189189734Y-59040895D01*
X189189734Y-59040895D02*
X188732591Y-59840895D01*
X188732591Y-59840895D02*
X188732591Y-59040895D01*
X188351639Y-59840895D02*
X188351639Y-59040895D01*
X188351639Y-59040895D02*
X188161163Y-59040895D01*
X188161163Y-59040895D02*
X188046877Y-59078990D01*
X188046877Y-59078990D02*
X187970687Y-59155180D01*
X187970687Y-59155180D02*
X187932592Y-59231371D01*
X187932592Y-59231371D02*
X187894496Y-59383752D01*
X187894496Y-59383752D02*
X187894496Y-59498038D01*
X187894496Y-59498038D02*
X187932592Y-59650419D01*
X187932592Y-59650419D02*
X187970687Y-59726609D01*
X187970687Y-59726609D02*
X188046877Y-59802800D01*
X188046877Y-59802800D02*
X188161163Y-59840895D01*
X188161163Y-59840895D02*
X188351639Y-59840895D01*
X166964687Y-59078990D02*
X167040877Y-59040895D01*
X167040877Y-59040895D02*
X167155163Y-59040895D01*
X167155163Y-59040895D02*
X167269449Y-59078990D01*
X167269449Y-59078990D02*
X167345639Y-59155180D01*
X167345639Y-59155180D02*
X167383734Y-59231371D01*
X167383734Y-59231371D02*
X167421830Y-59383752D01*
X167421830Y-59383752D02*
X167421830Y-59498038D01*
X167421830Y-59498038D02*
X167383734Y-59650419D01*
X167383734Y-59650419D02*
X167345639Y-59726609D01*
X167345639Y-59726609D02*
X167269449Y-59802800D01*
X167269449Y-59802800D02*
X167155163Y-59840895D01*
X167155163Y-59840895D02*
X167078972Y-59840895D01*
X167078972Y-59840895D02*
X166964687Y-59802800D01*
X166964687Y-59802800D02*
X166926591Y-59764704D01*
X166926591Y-59764704D02*
X166926591Y-59498038D01*
X166926591Y-59498038D02*
X167078972Y-59498038D01*
X166583734Y-59840895D02*
X166583734Y-59040895D01*
X166583734Y-59040895D02*
X166126591Y-59840895D01*
X166126591Y-59840895D02*
X166126591Y-59040895D01*
X165745639Y-59840895D02*
X165745639Y-59040895D01*
X165745639Y-59040895D02*
X165555163Y-59040895D01*
X165555163Y-59040895D02*
X165440877Y-59078990D01*
X165440877Y-59078990D02*
X165364687Y-59155180D01*
X165364687Y-59155180D02*
X165326592Y-59231371D01*
X165326592Y-59231371D02*
X165288496Y-59383752D01*
X165288496Y-59383752D02*
X165288496Y-59498038D01*
X165288496Y-59498038D02*
X165326592Y-59650419D01*
X165326592Y-59650419D02*
X165364687Y-59726609D01*
X165364687Y-59726609D02*
X165440877Y-59802800D01*
X165440877Y-59802800D02*
X165555163Y-59840895D01*
X165555163Y-59840895D02*
X165745639Y-59840895D01*
X134960687Y-59078990D02*
X135036877Y-59040895D01*
X135036877Y-59040895D02*
X135151163Y-59040895D01*
X135151163Y-59040895D02*
X135265449Y-59078990D01*
X135265449Y-59078990D02*
X135341639Y-59155180D01*
X135341639Y-59155180D02*
X135379734Y-59231371D01*
X135379734Y-59231371D02*
X135417830Y-59383752D01*
X135417830Y-59383752D02*
X135417830Y-59498038D01*
X135417830Y-59498038D02*
X135379734Y-59650419D01*
X135379734Y-59650419D02*
X135341639Y-59726609D01*
X135341639Y-59726609D02*
X135265449Y-59802800D01*
X135265449Y-59802800D02*
X135151163Y-59840895D01*
X135151163Y-59840895D02*
X135074972Y-59840895D01*
X135074972Y-59840895D02*
X134960687Y-59802800D01*
X134960687Y-59802800D02*
X134922591Y-59764704D01*
X134922591Y-59764704D02*
X134922591Y-59498038D01*
X134922591Y-59498038D02*
X135074972Y-59498038D01*
X134579734Y-59840895D02*
X134579734Y-59040895D01*
X134579734Y-59040895D02*
X134122591Y-59840895D01*
X134122591Y-59840895D02*
X134122591Y-59040895D01*
X133741639Y-59840895D02*
X133741639Y-59040895D01*
X133741639Y-59040895D02*
X133551163Y-59040895D01*
X133551163Y-59040895D02*
X133436877Y-59078990D01*
X133436877Y-59078990D02*
X133360687Y-59155180D01*
X133360687Y-59155180D02*
X133322592Y-59231371D01*
X133322592Y-59231371D02*
X133284496Y-59383752D01*
X133284496Y-59383752D02*
X133284496Y-59498038D01*
X133284496Y-59498038D02*
X133322592Y-59650419D01*
X133322592Y-59650419D02*
X133360687Y-59726609D01*
X133360687Y-59726609D02*
X133436877Y-59802800D01*
X133436877Y-59802800D02*
X133551163Y-59840895D01*
X133551163Y-59840895D02*
X133741639Y-59840895D01*
X162646687Y-59078990D02*
X162722877Y-59040895D01*
X162722877Y-59040895D02*
X162837163Y-59040895D01*
X162837163Y-59040895D02*
X162951449Y-59078990D01*
X162951449Y-59078990D02*
X163027639Y-59155180D01*
X163027639Y-59155180D02*
X163065734Y-59231371D01*
X163065734Y-59231371D02*
X163103830Y-59383752D01*
X163103830Y-59383752D02*
X163103830Y-59498038D01*
X163103830Y-59498038D02*
X163065734Y-59650419D01*
X163065734Y-59650419D02*
X163027639Y-59726609D01*
X163027639Y-59726609D02*
X162951449Y-59802800D01*
X162951449Y-59802800D02*
X162837163Y-59840895D01*
X162837163Y-59840895D02*
X162760972Y-59840895D01*
X162760972Y-59840895D02*
X162646687Y-59802800D01*
X162646687Y-59802800D02*
X162608591Y-59764704D01*
X162608591Y-59764704D02*
X162608591Y-59498038D01*
X162608591Y-59498038D02*
X162760972Y-59498038D01*
X162265734Y-59840895D02*
X162265734Y-59040895D01*
X162265734Y-59040895D02*
X161808591Y-59840895D01*
X161808591Y-59840895D02*
X161808591Y-59040895D01*
X161427639Y-59840895D02*
X161427639Y-59040895D01*
X161427639Y-59040895D02*
X161237163Y-59040895D01*
X161237163Y-59040895D02*
X161122877Y-59078990D01*
X161122877Y-59078990D02*
X161046687Y-59155180D01*
X161046687Y-59155180D02*
X161008592Y-59231371D01*
X161008592Y-59231371D02*
X160970496Y-59383752D01*
X160970496Y-59383752D02*
X160970496Y-59498038D01*
X160970496Y-59498038D02*
X161008592Y-59650419D01*
X161008592Y-59650419D02*
X161046687Y-59726609D01*
X161046687Y-59726609D02*
X161122877Y-59802800D01*
X161122877Y-59802800D02*
X161237163Y-59840895D01*
X161237163Y-59840895D02*
X161427639Y-59840895D01*
X157058687Y-59078990D02*
X157134877Y-59040895D01*
X157134877Y-59040895D02*
X157249163Y-59040895D01*
X157249163Y-59040895D02*
X157363449Y-59078990D01*
X157363449Y-59078990D02*
X157439639Y-59155180D01*
X157439639Y-59155180D02*
X157477734Y-59231371D01*
X157477734Y-59231371D02*
X157515830Y-59383752D01*
X157515830Y-59383752D02*
X157515830Y-59498038D01*
X157515830Y-59498038D02*
X157477734Y-59650419D01*
X157477734Y-59650419D02*
X157439639Y-59726609D01*
X157439639Y-59726609D02*
X157363449Y-59802800D01*
X157363449Y-59802800D02*
X157249163Y-59840895D01*
X157249163Y-59840895D02*
X157172972Y-59840895D01*
X157172972Y-59840895D02*
X157058687Y-59802800D01*
X157058687Y-59802800D02*
X157020591Y-59764704D01*
X157020591Y-59764704D02*
X157020591Y-59498038D01*
X157020591Y-59498038D02*
X157172972Y-59498038D01*
X156677734Y-59840895D02*
X156677734Y-59040895D01*
X156677734Y-59040895D02*
X156220591Y-59840895D01*
X156220591Y-59840895D02*
X156220591Y-59040895D01*
X155839639Y-59840895D02*
X155839639Y-59040895D01*
X155839639Y-59040895D02*
X155649163Y-59040895D01*
X155649163Y-59040895D02*
X155534877Y-59078990D01*
X155534877Y-59078990D02*
X155458687Y-59155180D01*
X155458687Y-59155180D02*
X155420592Y-59231371D01*
X155420592Y-59231371D02*
X155382496Y-59383752D01*
X155382496Y-59383752D02*
X155382496Y-59498038D01*
X155382496Y-59498038D02*
X155420592Y-59650419D01*
X155420592Y-59650419D02*
X155458687Y-59726609D01*
X155458687Y-59726609D02*
X155534877Y-59802800D01*
X155534877Y-59802800D02*
X155649163Y-59840895D01*
X155649163Y-59840895D02*
X155839639Y-59840895D01*
X203938009Y-70063687D02*
X203976104Y-70139877D01*
X203976104Y-70139877D02*
X203976104Y-70254163D01*
X203976104Y-70254163D02*
X203938009Y-70368449D01*
X203938009Y-70368449D02*
X203861819Y-70444639D01*
X203861819Y-70444639D02*
X203785628Y-70482734D01*
X203785628Y-70482734D02*
X203633247Y-70520830D01*
X203633247Y-70520830D02*
X203518961Y-70520830D01*
X203518961Y-70520830D02*
X203366580Y-70482734D01*
X203366580Y-70482734D02*
X203290390Y-70444639D01*
X203290390Y-70444639D02*
X203214200Y-70368449D01*
X203214200Y-70368449D02*
X203176104Y-70254163D01*
X203176104Y-70254163D02*
X203176104Y-70177972D01*
X203176104Y-70177972D02*
X203214200Y-70063687D01*
X203214200Y-70063687D02*
X203252295Y-70025591D01*
X203252295Y-70025591D02*
X203518961Y-70025591D01*
X203518961Y-70025591D02*
X203518961Y-70177972D01*
X203176104Y-69682734D02*
X203976104Y-69682734D01*
X203976104Y-69682734D02*
X203176104Y-69225591D01*
X203176104Y-69225591D02*
X203976104Y-69225591D01*
X203176104Y-68844639D02*
X203976104Y-68844639D01*
X203976104Y-68844639D02*
X203976104Y-68654163D01*
X203976104Y-68654163D02*
X203938009Y-68539877D01*
X203938009Y-68539877D02*
X203861819Y-68463687D01*
X203861819Y-68463687D02*
X203785628Y-68425592D01*
X203785628Y-68425592D02*
X203633247Y-68387496D01*
X203633247Y-68387496D02*
X203518961Y-68387496D01*
X203518961Y-68387496D02*
X203366580Y-68425592D01*
X203366580Y-68425592D02*
X203290390Y-68463687D01*
X203290390Y-68463687D02*
X203214200Y-68539877D01*
X203214200Y-68539877D02*
X203176104Y-68654163D01*
X203176104Y-68654163D02*
X203176104Y-68844639D01*
X140548687Y-59078990D02*
X140624877Y-59040895D01*
X140624877Y-59040895D02*
X140739163Y-59040895D01*
X140739163Y-59040895D02*
X140853449Y-59078990D01*
X140853449Y-59078990D02*
X140929639Y-59155180D01*
X140929639Y-59155180D02*
X140967734Y-59231371D01*
X140967734Y-59231371D02*
X141005830Y-59383752D01*
X141005830Y-59383752D02*
X141005830Y-59498038D01*
X141005830Y-59498038D02*
X140967734Y-59650419D01*
X140967734Y-59650419D02*
X140929639Y-59726609D01*
X140929639Y-59726609D02*
X140853449Y-59802800D01*
X140853449Y-59802800D02*
X140739163Y-59840895D01*
X140739163Y-59840895D02*
X140662972Y-59840895D01*
X140662972Y-59840895D02*
X140548687Y-59802800D01*
X140548687Y-59802800D02*
X140510591Y-59764704D01*
X140510591Y-59764704D02*
X140510591Y-59498038D01*
X140510591Y-59498038D02*
X140662972Y-59498038D01*
X140167734Y-59840895D02*
X140167734Y-59040895D01*
X140167734Y-59040895D02*
X139710591Y-59840895D01*
X139710591Y-59840895D02*
X139710591Y-59040895D01*
X139329639Y-59840895D02*
X139329639Y-59040895D01*
X139329639Y-59040895D02*
X139139163Y-59040895D01*
X139139163Y-59040895D02*
X139024877Y-59078990D01*
X139024877Y-59078990D02*
X138948687Y-59155180D01*
X138948687Y-59155180D02*
X138910592Y-59231371D01*
X138910592Y-59231371D02*
X138872496Y-59383752D01*
X138872496Y-59383752D02*
X138872496Y-59498038D01*
X138872496Y-59498038D02*
X138910592Y-59650419D01*
X138910592Y-59650419D02*
X138948687Y-59726609D01*
X138948687Y-59726609D02*
X139024877Y-59802800D01*
X139024877Y-59802800D02*
X139139163Y-59840895D01*
X139139163Y-59840895D02*
X139329639Y-59840895D01*
X203938009Y-66380687D02*
X203976104Y-66456877D01*
X203976104Y-66456877D02*
X203976104Y-66571163D01*
X203976104Y-66571163D02*
X203938009Y-66685449D01*
X203938009Y-66685449D02*
X203861819Y-66761639D01*
X203861819Y-66761639D02*
X203785628Y-66799734D01*
X203785628Y-66799734D02*
X203633247Y-66837830D01*
X203633247Y-66837830D02*
X203518961Y-66837830D01*
X203518961Y-66837830D02*
X203366580Y-66799734D01*
X203366580Y-66799734D02*
X203290390Y-66761639D01*
X203290390Y-66761639D02*
X203214200Y-66685449D01*
X203214200Y-66685449D02*
X203176104Y-66571163D01*
X203176104Y-66571163D02*
X203176104Y-66494972D01*
X203176104Y-66494972D02*
X203214200Y-66380687D01*
X203214200Y-66380687D02*
X203252295Y-66342591D01*
X203252295Y-66342591D02*
X203518961Y-66342591D01*
X203518961Y-66342591D02*
X203518961Y-66494972D01*
X203176104Y-65999734D02*
X203976104Y-65999734D01*
X203976104Y-65999734D02*
X203176104Y-65542591D01*
X203176104Y-65542591D02*
X203976104Y-65542591D01*
X203176104Y-65161639D02*
X203976104Y-65161639D01*
X203976104Y-65161639D02*
X203976104Y-64971163D01*
X203976104Y-64971163D02*
X203938009Y-64856877D01*
X203938009Y-64856877D02*
X203861819Y-64780687D01*
X203861819Y-64780687D02*
X203785628Y-64742592D01*
X203785628Y-64742592D02*
X203633247Y-64704496D01*
X203633247Y-64704496D02*
X203518961Y-64704496D01*
X203518961Y-64704496D02*
X203366580Y-64742592D01*
X203366580Y-64742592D02*
X203290390Y-64780687D01*
X203290390Y-64780687D02*
X203214200Y-64856877D01*
X203214200Y-64856877D02*
X203176104Y-64971163D01*
X203176104Y-64971163D02*
X203176104Y-65161639D01*
X197444687Y-59078990D02*
X197520877Y-59040895D01*
X197520877Y-59040895D02*
X197635163Y-59040895D01*
X197635163Y-59040895D02*
X197749449Y-59078990D01*
X197749449Y-59078990D02*
X197825639Y-59155180D01*
X197825639Y-59155180D02*
X197863734Y-59231371D01*
X197863734Y-59231371D02*
X197901830Y-59383752D01*
X197901830Y-59383752D02*
X197901830Y-59498038D01*
X197901830Y-59498038D02*
X197863734Y-59650419D01*
X197863734Y-59650419D02*
X197825639Y-59726609D01*
X197825639Y-59726609D02*
X197749449Y-59802800D01*
X197749449Y-59802800D02*
X197635163Y-59840895D01*
X197635163Y-59840895D02*
X197558972Y-59840895D01*
X197558972Y-59840895D02*
X197444687Y-59802800D01*
X197444687Y-59802800D02*
X197406591Y-59764704D01*
X197406591Y-59764704D02*
X197406591Y-59498038D01*
X197406591Y-59498038D02*
X197558972Y-59498038D01*
X197063734Y-59840895D02*
X197063734Y-59040895D01*
X197063734Y-59040895D02*
X196606591Y-59840895D01*
X196606591Y-59840895D02*
X196606591Y-59040895D01*
X196225639Y-59840895D02*
X196225639Y-59040895D01*
X196225639Y-59040895D02*
X196035163Y-59040895D01*
X196035163Y-59040895D02*
X195920877Y-59078990D01*
X195920877Y-59078990D02*
X195844687Y-59155180D01*
X195844687Y-59155180D02*
X195806592Y-59231371D01*
X195806592Y-59231371D02*
X195768496Y-59383752D01*
X195768496Y-59383752D02*
X195768496Y-59498038D01*
X195768496Y-59498038D02*
X195806592Y-59650419D01*
X195806592Y-59650419D02*
X195844687Y-59726609D01*
X195844687Y-59726609D02*
X195920877Y-59802800D01*
X195920877Y-59802800D02*
X196035163Y-59840895D01*
X196035163Y-59840895D02*
X196225639Y-59840895D01*
X204556687Y-59078990D02*
X204632877Y-59040895D01*
X204632877Y-59040895D02*
X204747163Y-59040895D01*
X204747163Y-59040895D02*
X204861449Y-59078990D01*
X204861449Y-59078990D02*
X204937639Y-59155180D01*
X204937639Y-59155180D02*
X204975734Y-59231371D01*
X204975734Y-59231371D02*
X205013830Y-59383752D01*
X205013830Y-59383752D02*
X205013830Y-59498038D01*
X205013830Y-59498038D02*
X204975734Y-59650419D01*
X204975734Y-59650419D02*
X204937639Y-59726609D01*
X204937639Y-59726609D02*
X204861449Y-59802800D01*
X204861449Y-59802800D02*
X204747163Y-59840895D01*
X204747163Y-59840895D02*
X204670972Y-59840895D01*
X204670972Y-59840895D02*
X204556687Y-59802800D01*
X204556687Y-59802800D02*
X204518591Y-59764704D01*
X204518591Y-59764704D02*
X204518591Y-59498038D01*
X204518591Y-59498038D02*
X204670972Y-59498038D01*
X204175734Y-59840895D02*
X204175734Y-59040895D01*
X204175734Y-59040895D02*
X203718591Y-59840895D01*
X203718591Y-59840895D02*
X203718591Y-59040895D01*
X203337639Y-59840895D02*
X203337639Y-59040895D01*
X203337639Y-59040895D02*
X203147163Y-59040895D01*
X203147163Y-59040895D02*
X203032877Y-59078990D01*
X203032877Y-59078990D02*
X202956687Y-59155180D01*
X202956687Y-59155180D02*
X202918592Y-59231371D01*
X202918592Y-59231371D02*
X202880496Y-59383752D01*
X202880496Y-59383752D02*
X202880496Y-59498038D01*
X202880496Y-59498038D02*
X202918592Y-59650419D01*
X202918592Y-59650419D02*
X202956687Y-59726609D01*
X202956687Y-59726609D02*
X203032877Y-59802800D01*
X203032877Y-59802800D02*
X203147163Y-59840895D01*
X203147163Y-59840895D02*
X203337639Y-59840895D01*
X195412687Y-155090990D02*
X195488877Y-155052895D01*
X195488877Y-155052895D02*
X195603163Y-155052895D01*
X195603163Y-155052895D02*
X195717449Y-155090990D01*
X195717449Y-155090990D02*
X195793639Y-155167180D01*
X195793639Y-155167180D02*
X195831734Y-155243371D01*
X195831734Y-155243371D02*
X195869830Y-155395752D01*
X195869830Y-155395752D02*
X195869830Y-155510038D01*
X195869830Y-155510038D02*
X195831734Y-155662419D01*
X195831734Y-155662419D02*
X195793639Y-155738609D01*
X195793639Y-155738609D02*
X195717449Y-155814800D01*
X195717449Y-155814800D02*
X195603163Y-155852895D01*
X195603163Y-155852895D02*
X195526972Y-155852895D01*
X195526972Y-155852895D02*
X195412687Y-155814800D01*
X195412687Y-155814800D02*
X195374591Y-155776704D01*
X195374591Y-155776704D02*
X195374591Y-155510038D01*
X195374591Y-155510038D02*
X195526972Y-155510038D01*
X195031734Y-155852895D02*
X195031734Y-155052895D01*
X195031734Y-155052895D02*
X194574591Y-155852895D01*
X194574591Y-155852895D02*
X194574591Y-155052895D01*
X194193639Y-155852895D02*
X194193639Y-155052895D01*
X194193639Y-155052895D02*
X194003163Y-155052895D01*
X194003163Y-155052895D02*
X193888877Y-155090990D01*
X193888877Y-155090990D02*
X193812687Y-155167180D01*
X193812687Y-155167180D02*
X193774592Y-155243371D01*
X193774592Y-155243371D02*
X193736496Y-155395752D01*
X193736496Y-155395752D02*
X193736496Y-155510038D01*
X193736496Y-155510038D02*
X193774592Y-155662419D01*
X193774592Y-155662419D02*
X193812687Y-155738609D01*
X193812687Y-155738609D02*
X193888877Y-155814800D01*
X193888877Y-155814800D02*
X194003163Y-155852895D01*
X194003163Y-155852895D02*
X194193639Y-155852895D01*
X174330687Y-59078990D02*
X174406877Y-59040895D01*
X174406877Y-59040895D02*
X174521163Y-59040895D01*
X174521163Y-59040895D02*
X174635449Y-59078990D01*
X174635449Y-59078990D02*
X174711639Y-59155180D01*
X174711639Y-59155180D02*
X174749734Y-59231371D01*
X174749734Y-59231371D02*
X174787830Y-59383752D01*
X174787830Y-59383752D02*
X174787830Y-59498038D01*
X174787830Y-59498038D02*
X174749734Y-59650419D01*
X174749734Y-59650419D02*
X174711639Y-59726609D01*
X174711639Y-59726609D02*
X174635449Y-59802800D01*
X174635449Y-59802800D02*
X174521163Y-59840895D01*
X174521163Y-59840895D02*
X174444972Y-59840895D01*
X174444972Y-59840895D02*
X174330687Y-59802800D01*
X174330687Y-59802800D02*
X174292591Y-59764704D01*
X174292591Y-59764704D02*
X174292591Y-59498038D01*
X174292591Y-59498038D02*
X174444972Y-59498038D01*
X173949734Y-59840895D02*
X173949734Y-59040895D01*
X173949734Y-59040895D02*
X173492591Y-59840895D01*
X173492591Y-59840895D02*
X173492591Y-59040895D01*
X173111639Y-59840895D02*
X173111639Y-59040895D01*
X173111639Y-59040895D02*
X172921163Y-59040895D01*
X172921163Y-59040895D02*
X172806877Y-59078990D01*
X172806877Y-59078990D02*
X172730687Y-59155180D01*
X172730687Y-59155180D02*
X172692592Y-59231371D01*
X172692592Y-59231371D02*
X172654496Y-59383752D01*
X172654496Y-59383752D02*
X172654496Y-59498038D01*
X172654496Y-59498038D02*
X172692592Y-59650419D01*
X172692592Y-59650419D02*
X172730687Y-59726609D01*
X172730687Y-59726609D02*
X172806877Y-59802800D01*
X172806877Y-59802800D02*
X172921163Y-59840895D01*
X172921163Y-59840895D02*
X173111639Y-59840895D01*
X201508687Y-155090990D02*
X201584877Y-155052895D01*
X201584877Y-155052895D02*
X201699163Y-155052895D01*
X201699163Y-155052895D02*
X201813449Y-155090990D01*
X201813449Y-155090990D02*
X201889639Y-155167180D01*
X201889639Y-155167180D02*
X201927734Y-155243371D01*
X201927734Y-155243371D02*
X201965830Y-155395752D01*
X201965830Y-155395752D02*
X201965830Y-155510038D01*
X201965830Y-155510038D02*
X201927734Y-155662419D01*
X201927734Y-155662419D02*
X201889639Y-155738609D01*
X201889639Y-155738609D02*
X201813449Y-155814800D01*
X201813449Y-155814800D02*
X201699163Y-155852895D01*
X201699163Y-155852895D02*
X201622972Y-155852895D01*
X201622972Y-155852895D02*
X201508687Y-155814800D01*
X201508687Y-155814800D02*
X201470591Y-155776704D01*
X201470591Y-155776704D02*
X201470591Y-155510038D01*
X201470591Y-155510038D02*
X201622972Y-155510038D01*
X201127734Y-155852895D02*
X201127734Y-155052895D01*
X201127734Y-155052895D02*
X200670591Y-155852895D01*
X200670591Y-155852895D02*
X200670591Y-155052895D01*
X200289639Y-155852895D02*
X200289639Y-155052895D01*
X200289639Y-155052895D02*
X200099163Y-155052895D01*
X200099163Y-155052895D02*
X199984877Y-155090990D01*
X199984877Y-155090990D02*
X199908687Y-155167180D01*
X199908687Y-155167180D02*
X199870592Y-155243371D01*
X199870592Y-155243371D02*
X199832496Y-155395752D01*
X199832496Y-155395752D02*
X199832496Y-155510038D01*
X199832496Y-155510038D02*
X199870592Y-155662419D01*
X199870592Y-155662419D02*
X199908687Y-155738609D01*
X199908687Y-155738609D02*
X199984877Y-155814800D01*
X199984877Y-155814800D02*
X200099163Y-155852895D01*
X200099163Y-155852895D02*
X200289639Y-155852895D01*
X182204687Y-59078990D02*
X182280877Y-59040895D01*
X182280877Y-59040895D02*
X182395163Y-59040895D01*
X182395163Y-59040895D02*
X182509449Y-59078990D01*
X182509449Y-59078990D02*
X182585639Y-59155180D01*
X182585639Y-59155180D02*
X182623734Y-59231371D01*
X182623734Y-59231371D02*
X182661830Y-59383752D01*
X182661830Y-59383752D02*
X182661830Y-59498038D01*
X182661830Y-59498038D02*
X182623734Y-59650419D01*
X182623734Y-59650419D02*
X182585639Y-59726609D01*
X182585639Y-59726609D02*
X182509449Y-59802800D01*
X182509449Y-59802800D02*
X182395163Y-59840895D01*
X182395163Y-59840895D02*
X182318972Y-59840895D01*
X182318972Y-59840895D02*
X182204687Y-59802800D01*
X182204687Y-59802800D02*
X182166591Y-59764704D01*
X182166591Y-59764704D02*
X182166591Y-59498038D01*
X182166591Y-59498038D02*
X182318972Y-59498038D01*
X181823734Y-59840895D02*
X181823734Y-59040895D01*
X181823734Y-59040895D02*
X181366591Y-59840895D01*
X181366591Y-59840895D02*
X181366591Y-59040895D01*
X180985639Y-59840895D02*
X180985639Y-59040895D01*
X180985639Y-59040895D02*
X180795163Y-59040895D01*
X180795163Y-59040895D02*
X180680877Y-59078990D01*
X180680877Y-59078990D02*
X180604687Y-59155180D01*
X180604687Y-59155180D02*
X180566592Y-59231371D01*
X180566592Y-59231371D02*
X180528496Y-59383752D01*
X180528496Y-59383752D02*
X180528496Y-59498038D01*
X180528496Y-59498038D02*
X180566592Y-59650419D01*
X180566592Y-59650419D02*
X180604687Y-59726609D01*
X180604687Y-59726609D02*
X180680877Y-59802800D01*
X180680877Y-59802800D02*
X180795163Y-59840895D01*
X180795163Y-59840895D02*
X180985639Y-59840895D01*
D11*
X168725332Y-112334318D02*
X168725332Y-113241461D01*
X168725332Y-113241461D02*
X168785809Y-113422889D01*
X168785809Y-113422889D02*
X168906761Y-113543842D01*
X168906761Y-113543842D02*
X169088190Y-113604318D01*
X169088190Y-113604318D02*
X169209142Y-113604318D01*
X167455332Y-113604318D02*
X168181047Y-113604318D01*
X167818190Y-113604318D02*
X167818190Y-112334318D01*
X167818190Y-112334318D02*
X167939142Y-112515746D01*
X167939142Y-112515746D02*
X168060094Y-112636699D01*
X168060094Y-112636699D02*
X168181047Y-112697175D01*
X168643332Y-98334318D02*
X168643332Y-99241461D01*
X168643332Y-99241461D02*
X168703809Y-99422889D01*
X168703809Y-99422889D02*
X168824761Y-99543842D01*
X168824761Y-99543842D02*
X169006190Y-99604318D01*
X169006190Y-99604318D02*
X169127142Y-99604318D01*
X168099047Y-98455270D02*
X168038571Y-98394794D01*
X168038571Y-98394794D02*
X167917618Y-98334318D01*
X167917618Y-98334318D02*
X167615237Y-98334318D01*
X167615237Y-98334318D02*
X167494285Y-98394794D01*
X167494285Y-98394794D02*
X167433809Y-98455270D01*
X167433809Y-98455270D02*
X167373332Y-98576222D01*
X167373332Y-98576222D02*
X167373332Y-98697175D01*
X167373332Y-98697175D02*
X167433809Y-98878603D01*
X167433809Y-98878603D02*
X168159523Y-99604318D01*
X168159523Y-99604318D02*
X167373332Y-99604318D01*
D12*
%TO.C,REF\u002A\u002A*%
X168055000Y-58436000D02*
X168055000Y-60436000D01*
X168055000Y-60436000D02*
X170855000Y-60436000D01*
X170855000Y-58436000D02*
X168055000Y-58436000D01*
X170855000Y-60436000D02*
X170855000Y-58436000D01*
X157895000Y-58436000D02*
X157895000Y-60436000D01*
X157895000Y-60436000D02*
X160695000Y-60436000D01*
X160695000Y-58436000D02*
X157895000Y-58436000D01*
X160695000Y-60436000D02*
X160695000Y-58436000D01*
X135797000Y-58436000D02*
X135797000Y-60436000D01*
X135797000Y-60436000D02*
X138597000Y-60436000D01*
X138597000Y-58436000D02*
X135797000Y-58436000D01*
X138597000Y-60436000D02*
X138597000Y-58436000D01*
X191259000Y-58436000D02*
X191259000Y-60436000D01*
X191259000Y-60436000D02*
X194059000Y-60436000D01*
X194059000Y-58436000D02*
X191259000Y-58436000D01*
X194059000Y-60436000D02*
X194059000Y-58436000D01*
X183766000Y-58436000D02*
X183766000Y-60436000D01*
X183766000Y-60436000D02*
X186566000Y-60436000D01*
X186566000Y-58436000D02*
X183766000Y-58436000D01*
X186566000Y-60436000D02*
X186566000Y-58436000D01*
D13*
%TO.C,J1*%
X161848000Y-112050000D02*
X161848000Y-113900000D01*
X175368000Y-113900000D02*
X175368000Y-112050000D01*
%TO.C,J2*%
X161766000Y-98050000D02*
X161766000Y-99900000D01*
X175286000Y-99900000D02*
X175286000Y-98050000D01*
D12*
%TO.C,REF\u002A\u002A*%
X176617000Y-58436000D02*
X176617000Y-60436000D01*
X176617000Y-60436000D02*
X179417000Y-60436000D01*
X179417000Y-58436000D02*
X176617000Y-58436000D01*
X179417000Y-60436000D02*
X179417000Y-58436000D01*
X204105000Y-66037000D02*
X204105000Y-68837000D01*
X204105000Y-68837000D02*
X206105000Y-68837000D01*
X206105000Y-66037000D02*
X204105000Y-66037000D01*
X206105000Y-68837000D02*
X206105000Y-66037000D01*
X199641000Y-58436000D02*
X199641000Y-60436000D01*
X199641000Y-60436000D02*
X202441000Y-60436000D01*
X202441000Y-58436000D02*
X199641000Y-58436000D01*
X202441000Y-60436000D02*
X202441000Y-58436000D01*
%TD*%
M02*
