M48
; DRILL file {KiCad 7.0.9} date Sat Dec 16 04:09:17 2023
; FORMAT={-:-/ absolute / metric / decimal}
; #@! TF.CreationDate,2023-12-16T04:09:17+09:00
; #@! TF.GenerationSoftware,Kicad,Pcbnew,7.0.9
; #@! TF.FileFunction,Plated,1,2,PTH
FMAT,2
METRIC
; #@! TA.AperFunction,Plated,PTH,ViaDrill
T1C0.300
; #@! TA.AperFunction,Plated,PTH,ViaDrill
T2C0.400
; #@! TA.AperFunction,Plated,PTH,ComponentDrill
T3C0.700
; #@! TA.AperFunction,Plated,PTH,ComponentDrill
T4C1.000
; #@! TA.AperFunction,Plated,PTH,ComponentDrill
T5C2.500
%
G90
G05
T1
X125.73Y-91.948
X125.73Y-123.698
X129.032Y-131.318
X130.81Y-95.123
X132.08Y-116.84
X134.62Y-119.634
X135.89Y-96.393
X138.43Y-93.091
X139.7Y-119.634
X140.97Y-97.663
X143.51Y-98.425
X144.78Y-119.126
X146.05Y-99.187
X146.05Y-109.728
X148.59Y-99.949
X151.13Y-101.981
X151.13Y-103.505
X151.892Y-108.204
X156.21Y-105.664
X156.464Y-107.95
X158.75Y-106.172
X159.156Y-107.975
X161.138Y-107.112
X163.22Y-107.061
X164.897Y-112.954
X164.948Y-106.959
X166.319Y-106.502
X167.132Y-105.156
X167.386Y-112.954
X167.477Y-107.223
X168.402Y-104.521
X168.402Y-105.994
X169.672Y-105.029
X169.824Y-106.553
X169.875Y-110.414
X169.977Y-108.941
X170.282Y-112.954
X170.383Y-107.721
X171.069Y-105.283
X171.602Y-106.553
X173.431Y-105.588
X182.372Y-106.147
X187.198Y-104.013
X187.655Y-107.213
X189.23Y-105.537
X190.5Y-120.523
X194.666Y-108.433
X200.609Y-117.729
X201.981Y-110.007
X210.185Y-116.738
T2
X183.642Y-96.901
X187.706Y-101.219
X190.754Y-102.997
T3
X125.73Y-70.485
X125.73Y-142.24
X130.759Y-66.269
X132.08Y-150.495
X133.312Y-62.992
X134.62Y-146.685
X135.839Y-66.269
X137.16Y-150.495
X138.392Y-62.992
X139.7Y-146.685
X140.919Y-66.269
X142.24Y-150.495
X143.472Y-62.992
X144.78Y-146.685
X145.999Y-66.269
X147.32Y-150.495
X148.552Y-62.992
X149.86Y-146.685
X151.079Y-66.269
X152.4Y-150.495
X153.632Y-62.992
X154.94Y-146.685
X156.159Y-66.269
X157.48Y-150.495
X158.712Y-62.992
X160.02Y-146.685
X161.239Y-66.269
X162.56Y-150.495
X163.792Y-62.992
X165.1Y-146.685
X166.319Y-66.269
X167.64Y-150.495
X168.872Y-62.992
X171.399Y-66.269
X172.72Y-150.495
X173.952Y-62.992
X175.26Y-146.685
X176.479Y-66.269
X177.8Y-150.495
X179.032Y-62.992
X180.34Y-146.685
X181.559Y-66.269
X182.88Y-150.495
X184.112Y-62.992
X185.42Y-146.685
X186.639Y-66.269
X187.96Y-150.495
X189.192Y-62.992
X190.5Y-146.685
X191.719Y-66.269
X193.04Y-150.495
X194.272Y-62.992
X195.58Y-146.685
X196.799Y-66.269
X198.247Y-150.495
X199.352Y-62.992
X200.66Y-146.685
X201.879Y-66.269
X203.2Y-150.495
X204.432Y-62.992
X205.74Y-146.685
X209.677Y-70.485
X210.185Y-142.875
T4
X124.46Y-95.504
X124.46Y-98.044
X124.46Y-100.584
X124.46Y-103.124
X124.46Y-105.664
X124.46Y-108.204
X124.46Y-110.744
X124.46Y-113.284
X124.46Y-115.824
X124.46Y-118.364
X127.0Y-98.044
X127.0Y-100.584
X127.0Y-103.124
X127.0Y-105.664
X127.0Y-108.204
X127.0Y-110.744
X127.0Y-113.284
X127.0Y-115.824
X129.54Y-98.044
X129.54Y-100.584
X129.54Y-103.124
X129.54Y-105.664
X129.54Y-108.204
X129.54Y-110.744
X129.54Y-113.284
X129.54Y-115.824
X132.08Y-98.044
X132.08Y-100.584
X132.08Y-103.124
X132.08Y-105.664
X132.08Y-108.204
X132.08Y-110.744
X134.62Y-100.584
X134.62Y-103.124
X134.62Y-105.664
X134.62Y-108.204
X134.62Y-110.744
X137.16Y-100.584
X137.16Y-103.124
X137.16Y-105.664
X137.16Y-108.204
X137.16Y-110.744
X139.7Y-100.584
X139.7Y-103.124
X139.7Y-105.664
X139.7Y-108.204
X139.7Y-110.744
X142.24Y-100.584
X142.24Y-103.124
X142.24Y-105.664
X144.78Y-103.124
X144.78Y-105.664
X191.77Y-90.297
X201.93Y-90.297
X209.804Y-101.219
X209.804Y-107.315
T5
X125.73Y-60.96
X125.73Y-152.908
X209.55Y-60.96
X209.55Y-152.908
T0
M30
