%TF.GenerationSoftware,KiCad,Pcbnew,8.0.0*%
%TF.CreationDate,2024-03-15T19:34:49+09:00*%
%TF.ProjectId,ds_test_board3,64735f74-6573-4745-9f62-6f617264332e,rev?*%
%TF.SameCoordinates,Original*%
%TF.FileFunction,Copper,L1,Top*%
%TF.FilePolarity,Positive*%
%FSLAX46Y46*%
G04 Gerber Fmt 4.6, Leading zero omitted, Abs format (unit mm)*
G04 Created by KiCad (PCBNEW 8.0.0) date 2024-03-15 19:34:49*
%MOMM*%
%LPD*%
G01*
G04 APERTURE LIST*
G04 Aperture macros list*
%AMFreePoly0*
4,1,6,1.000000,0.000000,0.500000,-0.750000,-0.500000,-0.750000,-0.500000,0.750000,0.500000,0.750000,1.000000,0.000000,1.000000,0.000000,$1*%
%AMFreePoly1*
4,1,6,0.500000,-0.750000,-0.650000,-0.750000,-0.150000,0.000000,-0.650000,0.750000,0.500000,0.750000,0.500000,-0.750000,0.500000,-0.750000,$1*%
G04 Aperture macros list end*
%TA.AperFunction,SMDPad,CuDef*%
%ADD10FreePoly0,0.000000*%
%TD*%
%TA.AperFunction,SMDPad,CuDef*%
%ADD11FreePoly1,0.000000*%
%TD*%
%TA.AperFunction,ComponentPad*%
%ADD12R,1.500000X1.500000*%
%TD*%
%TA.AperFunction,SMDPad,CuDef*%
%ADD13R,1.500000X1.500000*%
%TD*%
%TA.AperFunction,SMDPad,CuDef*%
%ADD14FreePoly0,90.000000*%
%TD*%
%TA.AperFunction,SMDPad,CuDef*%
%ADD15FreePoly1,90.000000*%
%TD*%
%TA.AperFunction,ComponentPad*%
%ADD16C,1.700000*%
%TD*%
%TA.AperFunction,ComponentPad*%
%ADD17C,2.900000*%
%TD*%
%TA.AperFunction,ConnectorPad*%
%ADD18C,5.000000*%
%TD*%
%TA.AperFunction,ComponentPad*%
%ADD19R,2.000000X2.000000*%
%TD*%
%TA.AperFunction,SMDPad,CuDef*%
%ADD20R,1.000000X2.510000*%
%TD*%
%TA.AperFunction,SMDPad,CuDef*%
%ADD21FreePoly0,270.000000*%
%TD*%
%TA.AperFunction,SMDPad,CuDef*%
%ADD22FreePoly1,270.000000*%
%TD*%
%TA.AperFunction,SMDPad,CuDef*%
%ADD23FreePoly0,180.000000*%
%TD*%
%TA.AperFunction,SMDPad,CuDef*%
%ADD24FreePoly1,180.000000*%
%TD*%
%TA.AperFunction,ViaPad*%
%ADD25C,0.500000*%
%TD*%
%TA.AperFunction,ViaPad*%
%ADD26C,0.600000*%
%TD*%
%TA.AperFunction,ViaPad*%
%ADD27C,0.800000*%
%TD*%
%TA.AperFunction,Conductor*%
%ADD28C,0.250000*%
%TD*%
%TA.AperFunction,Conductor*%
%ADD29C,0.150000*%
%TD*%
%TA.AperFunction,Conductor*%
%ADD30C,0.300000*%
%TD*%
%TA.AperFunction,Conductor*%
%ADD31C,0.500000*%
%TD*%
%TA.AperFunction,Conductor*%
%ADD32C,0.400000*%
%TD*%
G04 APERTURE END LIST*
D10*
%TO.P,REF\u002A\u002A,1*%
%TO.N,GND*%
X135673000Y-154686000D03*
D11*
%TO.P,REF\u002A\u002A,2*%
X137123000Y-154686000D03*
%TD*%
D10*
%TO.P,REF\u002A\u002A,1*%
%TO.N,GND*%
X178511200Y-154635200D03*
D11*
%TO.P,REF\u002A\u002A,2*%
X179961200Y-154635200D03*
%TD*%
D12*
%TO.P,TP95,1,1*%
%TO.N,GND*%
X165100000Y-146710400D03*
%TD*%
%TO.P,TP35,1,1*%
%TO.N,+5V*%
X201930000Y-90297000D03*
%TD*%
%TO.P,TP37,1,1*%
%TO.N,+3V3*%
X191770000Y-90297000D03*
%TD*%
%TO.P,TP79,1,1*%
%TO.N,/IOT11B*%
X190500000Y-146685000D03*
%TD*%
%TO.P,TP69,1,1*%
%TO.N,/IOL14B*%
X203200000Y-150495000D03*
%TD*%
%TO.P,TP73,1,1*%
%TO.N,/IOL3B*%
X198247000Y-150495000D03*
%TD*%
%TO.P,TP81,1,1*%
%TO.N,/IOT11A*%
X187960000Y-150495000D03*
%TD*%
%TO.P,TP93,1,1*%
%TO.N,/IOT21A*%
X172720000Y-150495000D03*
%TD*%
%TO.P,TP83,1,1*%
%TO.N,/IOT15B*%
X185420000Y-146685000D03*
%TD*%
%TO.P,TP67,1,1*%
%TO.N,GND*%
X205740000Y-146685000D03*
%TD*%
%TO.P,TP95,1,1*%
%TO.N,/IOT23A*%
X167640000Y-150495000D03*
%TD*%
%TO.P,TP85,1,1*%
%TO.N,/IOT15A*%
X182880000Y-150495000D03*
%TD*%
%TO.P,TP91,1,1*%
%TO.N,/IOT21B*%
X175260000Y-146685000D03*
%TD*%
%TO.P,TP93,1,1*%
%TO.N,/IOT23B*%
X170561000Y-146685000D03*
%TD*%
%TO.P,TP87,1,1*%
%TO.N,/IOT19B*%
X180340000Y-146685000D03*
%TD*%
%TO.P,TP75,1,1*%
%TO.N,/IOL3A*%
X195580000Y-146685000D03*
%TD*%
%TO.P,TP89,1,1*%
%TO.N,/IOT19A*%
X177800000Y-150495000D03*
%TD*%
%TO.P,TP77,1,1*%
%TO.N,GND*%
X193040000Y-150495000D03*
%TD*%
%TO.P,TP71,1,1*%
%TO.N,/IOL14A*%
X200660000Y-146685000D03*
%TD*%
D13*
%TO.P,TP114,1,1*%
%TO.N,/IOT58B*%
X147320000Y-126365000D03*
%TD*%
%TO.P,TP118,1,1*%
%TO.N,IOT56B*%
X142240000Y-126365000D03*
%TD*%
%TO.P,TP110,1,1*%
%TO.N,/READY*%
X152400000Y-126365000D03*
%TD*%
%TO.P,TP106,1,1*%
%TO.N,/IOB56B*%
X157480000Y-126365000D03*
%TD*%
%TO.P,TP122,1,1*%
%TO.N,IOT31B*%
X137109200Y-126365000D03*
%TD*%
%TO.P,TP126,1,1*%
%TO.N,GND*%
X132080000Y-126365000D03*
%TD*%
%TO.P,TP120,1,1*%
%TO.N,IOT56A*%
X139700000Y-121920000D03*
%TD*%
%TO.P,TP112,1,1*%
%TO.N,GND*%
X149860000Y-121920000D03*
%TD*%
%TO.P,TP116,1,1*%
%TO.N,/IOT58A*%
X144780000Y-121920000D03*
%TD*%
%TO.P,TP124,1,1*%
%TO.N,IOT31A*%
X134620000Y-121920000D03*
%TD*%
%TO.P,TP100,1,1*%
%TO.N,GND*%
X165100000Y-121920000D03*
%TD*%
%TO.P,TP102,1,1*%
%TO.N,/DONE*%
X162560000Y-126365000D03*
%TD*%
%TO.P,TP104,1,1*%
%TO.N,/IOB60A*%
X160020000Y-121920000D03*
%TD*%
%TO.P,TP108,1,1*%
%TO.N,/IOB56A*%
X154940000Y-121920000D03*
%TD*%
D12*
%TO.P,TP11,1,1*%
%TO.N,/M0_D2N*%
X179032000Y-62992000D03*
%TD*%
%TO.P,TP111,1,1*%
%TO.N,/IOT68A*%
X149860000Y-146685000D03*
%TD*%
%TO.P,TP117,1,1*%
%TO.N,/IOT63B*%
X142240000Y-150495000D03*
%TD*%
%TO.P,TP115,1,1*%
%TO.N,/IOT66A*%
X144780000Y-146685000D03*
%TD*%
%TO.P,TP113,1,1*%
%TO.N,/IOT66B*%
X147320000Y-150495000D03*
%TD*%
%TO.P,TP119,1,1*%
%TO.N,/IOT63A*%
X139700000Y-146685000D03*
%TD*%
%TO.P,TP10,1,1*%
%TO.N,GND*%
X181559200Y-66268600D03*
%TD*%
%TO.P,TP101,1,1*%
%TO.N,/VCCIO0{slash}1*%
X162560000Y-150495000D03*
%TD*%
%TO.P,TP107,1,1*%
%TO.N,/IOT72A*%
X154940000Y-146685000D03*
%TD*%
%TO.P,TP105,1,1*%
%TO.N,/IOT72B*%
X157480000Y-150495000D03*
%TD*%
%TO.P,TP109,1,1*%
%TO.N,/IOT68B*%
X152400000Y-150495000D03*
%TD*%
%TO.P,TP103,1,1*%
%TO.N,/VCCIO0{slash}1*%
X160020000Y-146685000D03*
%TD*%
%TO.P,TP125,1,1*%
%TO.N,GND*%
X132080000Y-150495000D03*
%TD*%
%TO.P,TP121,1,1*%
%TO.N,/IOT61B*%
X137160000Y-150495000D03*
%TD*%
%TO.P,TP12,1,1*%
%TO.N,/M0_D2P*%
X176479200Y-66268600D03*
%TD*%
%TO.P,TP127,1,1*%
%TO.N,Net-(J1-Pad62)*%
X125730000Y-126365000D03*
%TD*%
%TO.P,TP123,1,1*%
%TO.N,/IOT61A*%
X134620000Y-146685000D03*
%TD*%
%TO.P,TP128,1,1*%
%TO.N,Net-(J1-Pad61)*%
X125730000Y-142240000D03*
%TD*%
%TO.P,TP21,1,1*%
%TO.N,GND*%
X153632000Y-62992000D03*
%TD*%
%TO.P,TP19,1,1*%
%TO.N,/TMS*%
X158712000Y-62992000D03*
%TD*%
%TO.P,TP20,1,1*%
%TO.N,/TCK*%
X156159200Y-66268600D03*
%TD*%
%TO.P,TP17,1,1*%
%TO.N,/TDI*%
X163792000Y-62992000D03*
%TD*%
%TO.P,TP14,1,1*%
%TO.N,/M0_D3N*%
X171399200Y-66268600D03*
%TD*%
%TO.P,TP6,1,1*%
%TO.N,/M0_D1P*%
X191719200Y-66268600D03*
%TD*%
%TO.P,TP18,1,1*%
%TO.N,/TDO*%
X161239200Y-66268600D03*
%TD*%
%TO.P,TP1,1,1*%
%TO.N,GND*%
X204432000Y-62992000D03*
%TD*%
%TO.P,TP4,1,1*%
%TO.N,GND*%
X196799200Y-66268600D03*
%TD*%
%TO.P,TP23,1,1*%
%TO.N,/IOB12B*%
X148552000Y-62992000D03*
%TD*%
%TO.P,TP5,1,1*%
%TO.N,/M0_D1N*%
X194272000Y-62992000D03*
%TD*%
%TO.P,TP16,1,1*%
%TO.N,GND*%
X166319200Y-66268600D03*
%TD*%
%TO.P,TP7,1,1*%
%TO.N,GND*%
X189192000Y-62992000D03*
%TD*%
%TO.P,TP2,1,1*%
%TO.N,/M0_D0N*%
X201879200Y-66268600D03*
%TD*%
%TO.P,TP28,1,1*%
%TO.N,/IOB4B*%
X135839200Y-66268600D03*
%TD*%
%TO.P,TP15,1,1*%
%TO.N,/M0_D3P*%
X168872000Y-62992000D03*
%TD*%
%TO.P,TP9,1,1*%
%TO.N,/M0_CKP*%
X184112000Y-62992000D03*
%TD*%
%TO.P,TP8,1,1*%
%TO.N,/M0_CKN*%
X186639200Y-66268600D03*
%TD*%
%TO.P,TP22,1,1*%
%TO.N,/IOB14B*%
X151079200Y-66268600D03*
%TD*%
%TO.P,TP29,1,1*%
%TO.N,/IOB4A*%
X133312000Y-62992000D03*
%TD*%
%TO.P,TP30,1,1*%
%TO.N,GND*%
X130759200Y-66268600D03*
%TD*%
%TO.P,TP27,1,1*%
%TO.N,/IOB26A*%
X138392000Y-62992000D03*
%TD*%
%TO.P,TP63,1,1*%
%TO.N,GND*%
X209677000Y-70485000D03*
%TD*%
%TO.P,TP25,1,1*%
%TO.N,/IOB24A*%
X143472000Y-62992000D03*
%TD*%
%TO.P,TP24,1,1*%
%TO.N,/RECONFIG*%
X145999200Y-66268600D03*
%TD*%
%TO.P,TP26,1,1*%
%TO.N,/IOB26B*%
X140919200Y-66268600D03*
%TD*%
%TO.P,TP3,1,1*%
%TO.N,/M0_D0P*%
X199352000Y-62992000D03*
%TD*%
%TO.P,TP61,1,1*%
%TO.N,GND*%
X125730000Y-70485000D03*
%TD*%
%TO.P,TP13,1,1*%
%TO.N,GND*%
X173952000Y-62992000D03*
%TD*%
D14*
%TO.P,REF\u002A\u002A,1*%
%TO.N,Net-(J1-Pad63)*%
X210210400Y-113768800D03*
D15*
%TO.P,REF\u002A\u002A,2*%
%TO.N,GND*%
X210210400Y-112318800D03*
%TD*%
D16*
%TO.P,REF\u002A\u002A,1*%
%TO.N,N/C*%
X137160000Y-105664000D03*
%TD*%
D13*
%TO.P,TP92,1,1*%
%TO.N,/IOT3A*%
X177800000Y-126365000D03*
%TD*%
%TO.P,TP49,1,1*%
%TO.N,/IOR31B*%
X158750000Y-86868000D03*
%TD*%
%TO.P,TP94,1,1*%
%TO.N,/IOT1B*%
X175260000Y-121920000D03*
%TD*%
%TO.P,TP53,1,1*%
%TO.N,/IOR22B*%
X148590000Y-86868000D03*
%TD*%
D16*
%TO.P,REF\u002A\u002A,1*%
%TO.N,N/C*%
X127000000Y-110744000D03*
%TD*%
D10*
%TO.P,REF\u002A\u002A,1*%
%TO.N,Net-(J1-Pad63)*%
X127762000Y-146304000D03*
D11*
%TO.P,REF\u002A\u002A,2*%
%TO.N,GND*%
X129212000Y-146304000D03*
%TD*%
D17*
%TO.P,REF\u002A\u002A,1*%
%TO.N,N/C*%
X125730000Y-60960000D03*
D18*
X125730000Y-60960000D03*
%TD*%
D16*
%TO.P,REF\u002A\u002A,1*%
%TO.N,N/C*%
X144780000Y-105664000D03*
%TD*%
%TO.P,REF\u002A\u002A,1*%
%TO.N,N/C*%
X132080000Y-110744000D03*
%TD*%
%TO.P,REF\u002A\u002A,1*%
%TO.N,N/C*%
X129540000Y-98044000D03*
%TD*%
D13*
%TO.P,TP42,1,1*%
%TO.N,/VDD_1V8*%
X176530000Y-90678000D03*
%TD*%
D16*
%TO.P,REF\u002A\u002A,1*%
%TO.N,N/C*%
X129540000Y-113284000D03*
%TD*%
D13*
%TO.P,TP65,1,1*%
%TO.N,Net-(J1-Pad63)*%
X210185000Y-126365000D03*
%TD*%
%TO.P,TP74,1,1*%
%TO.N,/IOL5B*%
X198120000Y-126365000D03*
%TD*%
D16*
%TO.P,REF\u002A\u002A,1*%
%TO.N,N/C*%
X139700000Y-100584000D03*
%TD*%
%TO.P,REF\u002A\u002A,1*%
%TO.N,N/C*%
X132080000Y-103124000D03*
%TD*%
%TO.P,REF\u002A\u002A,1*%
%TO.N,N/C*%
X124460000Y-113284000D03*
%TD*%
D13*
%TO.P,TP64,1,1*%
%TO.N,GND*%
X209702400Y-90703400D03*
%TD*%
%TO.P,TP58,1,1*%
%TO.N,/IOR18A*%
X135890000Y-90678000D03*
%TD*%
D16*
%TO.P,REF\u002A\u002A,1*%
%TO.N,N/C*%
X127000000Y-108204000D03*
%TD*%
%TO.P,REF\u002A\u002A,1*%
%TO.N,N/C*%
X124460000Y-110744000D03*
%TD*%
D13*
%TO.P,TP48,1,1*%
%TO.N,/IOR33A*%
X161290000Y-90678000D03*
%TD*%
%TO.P,TP86,1,1*%
%TO.N,/IOT7A*%
X182880000Y-126365000D03*
%TD*%
D16*
%TO.P,REF\u002A\u002A,1*%
%TO.N,N/C*%
X124460000Y-100584000D03*
%TD*%
D13*
%TO.P,TP40,1,1*%
%TO.N,+2V5*%
X181610000Y-90678000D03*
%TD*%
D19*
%TO.P,REF\u002A\u002A,1*%
%TO.N,+2V5*%
X209804000Y-101219000D03*
%TD*%
D13*
%TO.P,TP80,1,1*%
%TO.N,/IOL9A*%
X190500000Y-121920000D03*
%TD*%
%TO.P,TP51,1,1*%
%TO.N,/IOR24B*%
X153670000Y-86868000D03*
%TD*%
D16*
%TO.P,REF\u002A\u002A,1*%
%TO.N,N/C*%
X124460000Y-115824000D03*
%TD*%
%TO.P,REF\u002A\u002A,1*%
%TO.N,N/C*%
X132080000Y-100584000D03*
%TD*%
D17*
%TO.P,REF\u002A\u002A,1*%
%TO.N,N/C*%
X125730000Y-152908000D03*
D18*
X125730000Y-152908000D03*
%TD*%
D16*
%TO.P,REF\u002A\u002A,1*%
%TO.N,N/C*%
X134620000Y-100584000D03*
%TD*%
D13*
%TO.P,TP84,1,1*%
%TO.N,/IOT7B*%
X185420000Y-121920000D03*
%TD*%
%TO.P,TP46,1,1*%
%TO.N,/IOB89A*%
X166370000Y-90678000D03*
%TD*%
D20*
%TO.P,J5,1,Pin_1*%
%TO.N,GND*%
X132080000Y-134366000D03*
%TO.P,J5,2,Pin_2*%
%TO.N,IOT31A*%
X134620000Y-131056000D03*
%TO.P,J5,3,Pin_3*%
%TO.N,IOT31B*%
X137160000Y-134366000D03*
%TO.P,J5,4,Pin_4*%
%TO.N,IOT56A*%
X139700000Y-131056000D03*
%TO.P,J5,5,Pin_5*%
%TO.N,IOT56B*%
X142240000Y-134366000D03*
%TO.P,J5,6,Pin_6*%
%TO.N,/IOT58A*%
X144780000Y-131056000D03*
%TO.P,J5,7,Pin_7*%
%TO.N,/IOT58B*%
X147320000Y-134366000D03*
%TO.P,J5,8,Pin_8*%
%TO.N,GND*%
X149860000Y-131056000D03*
%TO.P,J5,9,Pin_9*%
%TO.N,/READY*%
X152400000Y-134366000D03*
%TO.P,J5,10,Pin_10*%
%TO.N,/IOB56A*%
X154940000Y-131056000D03*
%TO.P,J5,11,Pin_11*%
%TO.N,/IOB56B*%
X157480000Y-134366000D03*
%TO.P,J5,12,Pin_12*%
%TO.N,/IOB60A*%
X160020000Y-131056000D03*
%TO.P,J5,13,Pin_13*%
%TO.N,/DONE*%
X162560000Y-134366000D03*
%TO.P,J5,14,Pin_14*%
%TO.N,GND*%
X165100000Y-131056000D03*
%TO.P,J5,15,Pin_15*%
%TO.N,/VCCIO6{slash}7*%
X167640000Y-134366000D03*
%TO.P,J5,16,Pin_16*%
X170180000Y-131056000D03*
%TO.P,J5,17,Pin_17*%
%TO.N,/IOT1A*%
X172720000Y-134366000D03*
%TO.P,J5,18,Pin_18*%
%TO.N,/IOT1B*%
X175260000Y-131056000D03*
%TO.P,J5,19,Pin_19*%
%TO.N,/IOT3A*%
X177800000Y-134366000D03*
%TO.P,J5,20,Pin_20*%
%TO.N,/IOT3B*%
X180340000Y-131056000D03*
%TO.P,J5,21,Pin_21*%
%TO.N,/IOT7A*%
X182880000Y-134366000D03*
%TO.P,J5,22,Pin_22*%
%TO.N,/IOT7B*%
X185420000Y-131056000D03*
%TO.P,J5,23,Pin_23*%
%TO.N,GND*%
X187960000Y-134366000D03*
%TO.P,J5,24,Pin_24*%
%TO.N,/IOL9A*%
X190500000Y-131056000D03*
%TO.P,J5,25,Pin_25*%
%TO.N,/IOL9B*%
X193040000Y-134366000D03*
%TO.P,J5,26,Pin_26*%
%TO.N,/IOL5A*%
X195580000Y-131056000D03*
%TO.P,J5,27,Pin_27*%
%TO.N,/IOL5B*%
X198120000Y-134366000D03*
%TO.P,J5,28,Pin_28*%
%TO.N,/IOL12A*%
X200660000Y-131056000D03*
%TO.P,J5,29,Pin_29*%
%TO.N,/IOL12B*%
X203200000Y-134366000D03*
%TO.P,J5,30,Pin_30*%
%TO.N,GND*%
X205740000Y-131056000D03*
%TD*%
D16*
%TO.P,REF\u002A\u002A,1*%
%TO.N,N/C*%
X124460000Y-95504000D03*
%TD*%
%TO.P,REF\u002A\u002A,1*%
%TO.N,N/C*%
X127000000Y-115824000D03*
%TD*%
%TO.P,REF\u002A\u002A,1*%
%TO.N,N/C*%
X129540000Y-108204000D03*
%TD*%
%TO.P,REF\u002A\u002A,1*%
%TO.N,N/C*%
X139700000Y-108204000D03*
%TD*%
%TO.P,REF\u002A\u002A,1*%
%TO.N,N/C*%
X137160000Y-103124000D03*
%TD*%
D17*
%TO.P,REF\u002A\u002A,1*%
%TO.N,N/C*%
X209550000Y-60960000D03*
D18*
X209550000Y-60960000D03*
%TD*%
D17*
%TO.P,REF\u002A\u002A,1*%
%TO.N,N/C*%
X209550000Y-152908000D03*
D18*
X209550000Y-152908000D03*
%TD*%
D13*
%TO.P,TP98,1,1*%
%TO.N,/VCCIO6{slash}7*%
X167640000Y-126365000D03*
%TD*%
D16*
%TO.P,REF\u002A\u002A,1*%
%TO.N,N/C*%
X124460000Y-105664000D03*
%TD*%
D19*
%TO.P,REF\u002A\u002A,1*%
%TO.N,/VDD_1V8*%
X209804000Y-107315000D03*
%TD*%
D16*
%TO.P,REF\u002A\u002A,1*%
%TO.N,N/C*%
X134620000Y-110744000D03*
%TD*%
D13*
%TO.P,TP70,1,1*%
%TO.N,/IOL12B*%
X203200000Y-126365000D03*
%TD*%
D16*
%TO.P,REF\u002A\u002A,1*%
%TO.N,N/C*%
X127000000Y-98044000D03*
%TD*%
D14*
%TO.P,REF\u002A\u002A,1*%
%TO.N,GND*%
X125730000Y-79936000D03*
D15*
%TO.P,REF\u002A\u002A,2*%
X125730000Y-78486000D03*
%TD*%
D13*
%TO.P,TP52,1,1*%
%TO.N,/IOR24A*%
X151130000Y-90678000D03*
%TD*%
%TO.P,TP96,1,1*%
%TO.N,/VCCIO6{slash}7*%
X170180000Y-121920000D03*
%TD*%
D16*
%TO.P,REF\u002A\u002A,1*%
%TO.N,N/C*%
X144780000Y-103124000D03*
%TD*%
%TO.P,REF\u002A\u002A,1*%
%TO.N,N/C*%
X127000000Y-103124000D03*
%TD*%
%TO.P,REF\u002A\u002A,1*%
%TO.N,N/C*%
X132080000Y-105664000D03*
%TD*%
%TO.P,REF\u002A\u002A,1*%
%TO.N,N/C*%
X142240000Y-103124000D03*
%TD*%
D14*
%TO.P,REF\u002A\u002A,1*%
%TO.N,Net-(J1-Pad64)*%
X210185000Y-135308000D03*
D15*
%TO.P,REF\u002A\u002A,2*%
%TO.N,Net-(J1-Pad63)*%
X210185000Y-133858000D03*
%TD*%
D13*
%TO.P,TP76,1,1*%
%TO.N,/IOL5A*%
X195580000Y-121920000D03*
%TD*%
D16*
%TO.P,REF\u002A\u002A,1*%
%TO.N,N/C*%
X124460000Y-103124000D03*
%TD*%
%TO.P,REF\u002A\u002A,1*%
%TO.N,N/C*%
X129540000Y-105664000D03*
%TD*%
D13*
%TO.P,TP88,1,1*%
%TO.N,/IOT3B*%
X180340000Y-121920000D03*
%TD*%
D16*
%TO.P,REF\u002A\u002A,1*%
%TO.N,N/C*%
X129540000Y-103124000D03*
%TD*%
%TO.P,REF\u002A\u002A,1*%
%TO.N,N/C*%
X137160000Y-108204000D03*
%TD*%
%TO.P,REF\u002A\u002A,1*%
%TO.N,N/C*%
X137160000Y-100584000D03*
%TD*%
D13*
%TO.P,TP50,1,1*%
%TO.N,/IOR31A*%
X156210000Y-90678000D03*
%TD*%
D14*
%TO.P,REF\u002A\u002A,1*%
%TO.N,Net-(J1-Pad63)*%
X125730000Y-137340000D03*
D15*
%TO.P,REF\u002A\u002A,2*%
%TO.N,/IOT58A*%
X125730000Y-135890000D03*
%TD*%
D16*
%TO.P,REF\u002A\u002A,1*%
%TO.N,N/C*%
X132080000Y-108204000D03*
%TD*%
%TO.P,REF\u002A\u002A,1*%
%TO.N,N/C*%
X139700000Y-103124000D03*
%TD*%
D13*
%TO.P,TP66,1,1*%
%TO.N,Net-(J1-Pad64)*%
X210185000Y-142875000D03*
%TD*%
D16*
%TO.P,REF\u002A\u002A,1*%
%TO.N,N/C*%
X129540000Y-110744000D03*
%TD*%
D20*
%TO.P,J4,1,Pin_1*%
%TO.N,GND*%
X204432000Y-71239000D03*
%TO.P,J4,2,Pin_2*%
%TO.N,/M0_D0N*%
X201892000Y-74549000D03*
%TO.P,J4,3,Pin_3*%
%TO.N,/M0_D0P*%
X199352000Y-71239000D03*
%TO.P,J4,4,Pin_4*%
%TO.N,GND*%
X196812000Y-74549000D03*
%TO.P,J4,5,Pin_5*%
%TO.N,/M0_D1N*%
X194272000Y-71239000D03*
%TO.P,J4,6,Pin_6*%
%TO.N,/M0_D1P*%
X191732000Y-74549000D03*
%TO.P,J4,7,Pin_7*%
%TO.N,GND*%
X189192000Y-71239000D03*
%TO.P,J4,8,Pin_8*%
%TO.N,/M0_CKN*%
X186652000Y-74549000D03*
%TO.P,J4,9,Pin_9*%
%TO.N,/M0_CKP*%
X184112000Y-71239000D03*
%TO.P,J4,10,Pin_10*%
%TO.N,GND*%
X181572000Y-74549000D03*
%TO.P,J4,11,Pin_11*%
%TO.N,/M0_D2N*%
X179032000Y-71239000D03*
%TO.P,J4,12,Pin_12*%
%TO.N,/M0_D2P*%
X176492000Y-74549000D03*
%TO.P,J4,13,Pin_13*%
%TO.N,GND*%
X173952000Y-71239000D03*
%TO.P,J4,14,Pin_14*%
%TO.N,/M0_D3N*%
X171412000Y-74549000D03*
%TO.P,J4,15,Pin_15*%
%TO.N,/M0_D3P*%
X168872000Y-71239000D03*
%TO.P,J4,16,Pin_16*%
%TO.N,GND*%
X166332000Y-74549000D03*
%TO.P,J4,17,Pin_17*%
%TO.N,/TDI*%
X163792000Y-71239000D03*
%TO.P,J4,18,Pin_18*%
%TO.N,/TDO*%
X161252000Y-74549000D03*
%TO.P,J4,19,Pin_19*%
%TO.N,/TMS*%
X158712000Y-71239000D03*
%TO.P,J4,20,Pin_20*%
%TO.N,/TCK*%
X156172000Y-74549000D03*
%TO.P,J4,21,Pin_21*%
%TO.N,GND*%
X153632000Y-71239000D03*
%TO.P,J4,22,Pin_22*%
%TO.N,/IOB14B*%
X151092000Y-74549000D03*
%TO.P,J4,23,Pin_23*%
%TO.N,/IOB12B*%
X148552000Y-71239000D03*
%TO.P,J4,24,Pin_24*%
%TO.N,/RECONFIG*%
X146012000Y-74549000D03*
%TO.P,J4,25,Pin_25*%
%TO.N,/IOB24A*%
X143472000Y-71239000D03*
%TO.P,J4,26,Pin_26*%
%TO.N,/IOB26B*%
X140932000Y-74549000D03*
%TO.P,J4,27,Pin_27*%
%TO.N,/IOB26A*%
X138392000Y-71239000D03*
%TO.P,J4,28,Pin_28*%
%TO.N,/IOB4B*%
X135852000Y-74549000D03*
%TO.P,J4,29,Pin_29*%
%TO.N,/IOB4A*%
X133312000Y-71239000D03*
%TO.P,J4,30,Pin_30*%
%TO.N,GND*%
X130772000Y-74549000D03*
%TD*%
D13*
%TO.P,TP72,1,1*%
%TO.N,/IOL12A*%
X200660000Y-121920000D03*
%TD*%
D10*
%TO.P,REF\u002A\u002A,1*%
%TO.N,Net-(J1-Pad62)*%
X128270000Y-120396000D03*
D11*
%TO.P,REF\u002A\u002A,2*%
%TO.N,GND*%
X129720000Y-120396000D03*
%TD*%
D16*
%TO.P,REF\u002A\u002A,1*%
%TO.N,N/C*%
X129540000Y-115824000D03*
%TD*%
D21*
%TO.P,REF\u002A\u002A,1*%
%TO.N,Net-(J1-Pad62)*%
X125730000Y-129831000D03*
D22*
%TO.P,REF\u002A\u002A,2*%
%TO.N,/IOT58A*%
X125730000Y-131281000D03*
%TD*%
D13*
%TO.P,TP45,1,1*%
%TO.N,/IOB89B*%
X168910000Y-86868000D03*
%TD*%
D16*
%TO.P,REF\u002A\u002A,1*%
%TO.N,N/C*%
X127000000Y-100584000D03*
%TD*%
%TO.P,REF\u002A\u002A,1*%
%TO.N,N/C*%
X137160000Y-110744000D03*
%TD*%
D13*
%TO.P,TP60,1,1*%
%TO.N,/VCCIO2{slash}3*%
X130810000Y-90678000D03*
%TD*%
D20*
%TO.P,J6,1,Pin_1*%
%TO.N,GND*%
X132080000Y-141994000D03*
%TO.P,J6,2,Pin_2*%
%TO.N,/IOT61A*%
X134620000Y-138684000D03*
%TO.P,J6,3,Pin_3*%
%TO.N,/IOT61B*%
X137160000Y-141994000D03*
%TO.P,J6,4,Pin_4*%
%TO.N,/IOT63A*%
X139700000Y-138684000D03*
%TO.P,J6,5,Pin_5*%
%TO.N,/IOT63B*%
X142240000Y-141994000D03*
%TO.P,J6,6,Pin_6*%
%TO.N,/IOT66A*%
X144780000Y-138684000D03*
%TO.P,J6,7,Pin_7*%
%TO.N,/IOT66B*%
X147320000Y-141994000D03*
%TO.P,J6,8,Pin_8*%
%TO.N,/IOT68A*%
X149860000Y-138684000D03*
%TO.P,J6,9,Pin_9*%
%TO.N,/IOT68B*%
X152400000Y-141994000D03*
%TO.P,J6,10,Pin_10*%
%TO.N,/IOT72A*%
X154940000Y-138684000D03*
%TO.P,J6,11,Pin_11*%
%TO.N,/IOT72B*%
X157480000Y-141994000D03*
%TO.P,J6,12,Pin_12*%
%TO.N,/VCCIO0{slash}1*%
X160020000Y-138684000D03*
%TO.P,J6,13,Pin_13*%
X162560000Y-141994000D03*
%TO.P,J6,14,Pin_14*%
%TO.N,GND*%
X165100000Y-138684000D03*
%TO.P,J6,15,Pin_15*%
%TO.N,/IOT23A*%
X167640000Y-141994000D03*
%TO.P,J6,16,Pin_16*%
%TO.N,/IOT23B*%
X170180000Y-138684000D03*
%TO.P,J6,17,Pin_17*%
%TO.N,/IOT21A*%
X172720000Y-141994000D03*
%TO.P,J6,18,Pin_18*%
%TO.N,/IOT21B*%
X175260000Y-138684000D03*
%TO.P,J6,19,Pin_19*%
%TO.N,/IOT19A*%
X177800000Y-141994000D03*
%TO.P,J6,20,Pin_20*%
%TO.N,/IOT19B*%
X180340000Y-138684000D03*
%TO.P,J6,21,Pin_21*%
%TO.N,/IOT15A*%
X182880000Y-141994000D03*
%TO.P,J6,22,Pin_22*%
%TO.N,/IOT15B*%
X185420000Y-138684000D03*
%TO.P,J6,23,Pin_23*%
%TO.N,/IOT11A*%
X187960000Y-141994000D03*
%TO.P,J6,24,Pin_24*%
%TO.N,/IOT11B*%
X190500000Y-138684000D03*
%TO.P,J6,25,Pin_25*%
%TO.N,GND*%
X193040000Y-141994000D03*
%TO.P,J6,26,Pin_26*%
%TO.N,/IOL3A*%
X195580000Y-138684000D03*
%TO.P,J6,27,Pin_27*%
%TO.N,/IOL3B*%
X198120000Y-141994000D03*
%TO.P,J6,28,Pin_28*%
%TO.N,/IOL14A*%
X200660000Y-138684000D03*
%TO.P,J6,29,Pin_29*%
%TO.N,/IOL14B*%
X203200000Y-141994000D03*
%TO.P,J6,30,Pin_30*%
%TO.N,GND*%
X205740000Y-138684000D03*
%TD*%
D16*
%TO.P,REF\u002A\u002A,1*%
%TO.N,N/C*%
X134620000Y-105664000D03*
%TD*%
%TO.P,REF\u002A\u002A,1*%
%TO.N,N/C*%
X134620000Y-103124000D03*
%TD*%
D10*
%TO.P,REF\u002A\u002A,1*%
%TO.N,GND*%
X207338000Y-118999000D03*
D11*
%TO.P,REF\u002A\u002A,2*%
%TO.N,Net-(J1-Pad63)*%
X208788000Y-118999000D03*
%TD*%
D13*
%TO.P,TP57,1,1*%
%TO.N,/IOR18B*%
X138430000Y-86868000D03*
%TD*%
%TO.P,TP78,1,1*%
%TO.N,/IOL9B*%
X193040000Y-126365000D03*
%TD*%
D16*
%TO.P,REF\u002A\u002A,1*%
%TO.N,N/C*%
X127000000Y-105664000D03*
%TD*%
%TO.P,REF\u002A\u002A,1*%
%TO.N,N/C*%
X142240000Y-100584000D03*
%TD*%
D20*
%TO.P,J3,1,Pin_1*%
%TO.N,+5V*%
X204419200Y-78858600D03*
%TO.P,J3,2,Pin_2*%
X201879200Y-82168600D03*
%TO.P,J3,3,Pin_3*%
X199339200Y-78858600D03*
%TO.P,J3,4,Pin_4*%
X196799200Y-82168600D03*
%TO.P,J3,5,Pin_5*%
X194259200Y-78858600D03*
%TO.P,J3,6,Pin_6*%
%TO.N,+3V3*%
X191719200Y-82168600D03*
%TO.P,J3,7,Pin_7*%
X189179200Y-78858600D03*
%TO.P,J3,8,Pin_8*%
X186639200Y-82168600D03*
%TO.P,J3,9,Pin_9*%
%TO.N,+2V5*%
X184099200Y-78858600D03*
%TO.P,J3,10,Pin_10*%
X181559200Y-82168600D03*
%TO.P,J3,11,Pin_11*%
%TO.N,/VDD_1V8*%
X179019200Y-78858600D03*
%TO.P,J3,12,Pin_12*%
X176479200Y-82168600D03*
%TO.P,J3,13,Pin_13*%
%TO.N,/IOB91B*%
X173939200Y-78858600D03*
%TO.P,J3,14,Pin_14*%
%TO.N,/IOB91A*%
X171399200Y-82168600D03*
%TO.P,J3,15,Pin_15*%
%TO.N,/IOB89B*%
X168859200Y-78858600D03*
%TO.P,J3,16,Pin_16*%
%TO.N,/IOB89A*%
X166319200Y-82168600D03*
%TO.P,J3,17,Pin_17*%
%TO.N,/IOR33B*%
X163779200Y-78858600D03*
%TO.P,J3,18,Pin_18*%
%TO.N,/IOR33A*%
X161239200Y-82168600D03*
%TO.P,J3,19,Pin_19*%
%TO.N,/IOR31B*%
X158699200Y-78858600D03*
%TO.P,J3,20,Pin_20*%
%TO.N,/IOR31A*%
X156159200Y-82168600D03*
%TO.P,J3,21,Pin_21*%
%TO.N,/IOR24B*%
X153619200Y-78858600D03*
%TO.P,J3,22,Pin_22*%
%TO.N,/IOR24A*%
X151079200Y-82168600D03*
%TO.P,J3,23,Pin_23*%
%TO.N,/IOR22B*%
X148539200Y-78858600D03*
%TO.P,J3,24,Pin_24*%
%TO.N,/IOR22A*%
X145999200Y-82168600D03*
%TO.P,J3,25,Pin_25*%
%TO.N,/IOR20B*%
X143459200Y-78858600D03*
%TO.P,J3,26,Pin_26*%
%TO.N,/IOR20A*%
X140919200Y-82168600D03*
%TO.P,J3,27,Pin_27*%
%TO.N,/IOR18B*%
X138379200Y-78858600D03*
%TO.P,J3,28,Pin_28*%
%TO.N,/IOR18A*%
X135839200Y-82168600D03*
%TO.P,J3,29,Pin_29*%
%TO.N,/VCCIO2{slash}3*%
X133299200Y-78858600D03*
%TO.P,J3,30,Pin_30*%
X130759200Y-82168600D03*
%TD*%
D16*
%TO.P,REF\u002A\u002A,1*%
%TO.N,N/C*%
X139700000Y-105664000D03*
%TD*%
%TO.P,REF\u002A\u002A,1*%
%TO.N,N/C*%
X132080000Y-98044000D03*
%TD*%
D13*
%TO.P,TP54,1,1*%
%TO.N,/IOR22A*%
X146050000Y-90678000D03*
%TD*%
%TO.P,TP43,1,1*%
%TO.N,/IOB91B*%
X173990000Y-86868000D03*
%TD*%
D23*
%TO.P,REF\u002A\u002A,1*%
%TO.N,GND*%
X127217000Y-66675000D03*
D24*
%TO.P,REF\u002A\u002A,2*%
X125767000Y-66675000D03*
%TD*%
D13*
%TO.P,TP68,1,1*%
%TO.N,GND*%
X205740000Y-121920000D03*
%TD*%
%TO.P,TP47,1,1*%
%TO.N,/IOR33B*%
X163830000Y-86868000D03*
%TD*%
%TO.P,TP82,1,1*%
%TO.N,GND*%
X187960000Y-126365000D03*
%TD*%
D16*
%TO.P,REF\u002A\u002A,1*%
%TO.N,N/C*%
X134620000Y-108204000D03*
%TD*%
%TO.P,REF\u002A\u002A,1*%
%TO.N,N/C*%
X124460000Y-118364000D03*
%TD*%
%TO.P,REF\u002A\u002A,1*%
%TO.N,N/C*%
X124460000Y-108204000D03*
%TD*%
%TO.P,REF\u002A\u002A,1*%
%TO.N,N/C*%
X127000000Y-113284000D03*
%TD*%
%TO.P,REF\u002A\u002A,1*%
%TO.N,N/C*%
X129540000Y-100584000D03*
%TD*%
D14*
%TO.P,REF\u002A\u002A,1*%
%TO.N,GND*%
X209677000Y-83619000D03*
D15*
%TO.P,REF\u002A\u002A,2*%
X209677000Y-82169000D03*
%TD*%
D13*
%TO.P,TP55,1,1*%
%TO.N,/IOR20B*%
X143510000Y-86868000D03*
%TD*%
%TO.P,TP56,1,1*%
%TO.N,/IOR20A*%
X140970000Y-90678000D03*
%TD*%
%TO.P,TP94,1,1*%
%TO.N,/IOT1A*%
X172720000Y-126365000D03*
%TD*%
D16*
%TO.P,REF\u002A\u002A,1*%
%TO.N,N/C*%
X142240000Y-105664000D03*
%TD*%
D13*
%TO.P,TP44,1,1*%
%TO.N,/IOB91A*%
X171450000Y-90678000D03*
%TD*%
%TO.P,TP62,1,1*%
%TO.N,GND*%
X125730000Y-86106000D03*
%TD*%
D16*
%TO.P,REF\u002A\u002A,1*%
%TO.N,N/C*%
X139700000Y-110744000D03*
%TD*%
%TO.P,REF\u002A\u002A,1*%
%TO.N,N/C*%
X124460000Y-98044000D03*
%TD*%
D10*
%TO.P,REF\u002A\u002A,1*%
%TO.N,GND*%
X197141000Y-154686000D03*
D11*
%TO.P,REF\u002A\u002A,2*%
X198591000Y-154686000D03*
%TD*%
D25*
%TO.N,/IOT1A*%
X169367200Y-108712000D03*
%TO.N,/IOT1B*%
X170561000Y-113030000D03*
%TO.N,/IOT3A*%
X170992800Y-106781600D03*
D26*
%TO.N,/VCCIO2{slash}3*%
X130810000Y-95123000D03*
%TO.N,/IOR18A*%
X135890000Y-96393000D03*
%TO.N,/IOR18B*%
X138430000Y-93091000D03*
%TO.N,/IOR20A*%
X140970000Y-97663000D03*
%TO.N,/IOR20B*%
X143510000Y-98425000D03*
%TO.N,/IOR22A*%
X146050000Y-99187000D03*
%TO.N,/IOR22B*%
X148590000Y-99949000D03*
%TO.N,/IOR24A*%
X151130000Y-101981000D03*
%TO.N,/IOR24B*%
X151130000Y-103505000D03*
D25*
%TO.N,IOT31A*%
X134620000Y-119634000D03*
%TO.N,/IOR31A*%
X156210000Y-105664000D03*
%TO.N,IOT31B*%
X146050000Y-109728000D03*
%TO.N,/IOR31B*%
X158750000Y-106172000D03*
%TO.N,/IOR33A*%
X167132000Y-105156000D03*
%TO.N,/IOR33B*%
X168402000Y-104521000D03*
%TO.N,/IOB89A*%
X169672000Y-105029000D03*
%TO.N,/IOB89B*%
X171069000Y-105283000D03*
%TO.N,/IOB91A*%
X189331600Y-105206800D03*
%TO.N,/IOB91B*%
X187198000Y-104013000D03*
D27*
%TO.N,/VDD_1V8*%
X190754000Y-102997000D03*
%TO.N,+2V5*%
X187706000Y-101219000D03*
D25*
%TO.N,Net-(J1-Pad63)*%
X210185000Y-116738400D03*
%TO.N,Net-(J1-Pad62)*%
X125730000Y-123698000D03*
%TO.N,GND*%
X203771500Y-114617500D03*
X167386000Y-112953800D03*
D27*
X183642000Y-96901000D03*
D25*
X178943000Y-105537000D03*
D26*
X125730000Y-91948000D03*
D25*
X132080000Y-116840000D03*
X160782000Y-106934000D03*
%TO.N,/IOT58A*%
X156464000Y-107950000D03*
X129032000Y-131318000D03*
X144780000Y-119126000D03*
%TO.N,/IOT58B*%
X159156400Y-107975400D03*
%TO.N,/READY*%
X162509200Y-106984800D03*
%TO.N,IOT56A*%
X139700000Y-119634000D03*
%TO.N,/IOB56A*%
X164033200Y-106832400D03*
%TO.N,IOT56B*%
X151892000Y-108204000D03*
%TO.N,/IOB56B*%
X164896800Y-112953800D03*
%TO.N,/IOB60A*%
X165887400Y-106603800D03*
%TO.N,/DONE*%
X167182800Y-106883200D03*
%TO.N,/VCCIO6{slash}7*%
X169570400Y-106324400D03*
X168300400Y-105918000D03*
%TO.N,/IOT3B*%
X172313600Y-106121200D03*
%TO.N,/IOT7A*%
X173532800Y-105511600D03*
%TO.N,/IOT7B*%
X175056800Y-105206800D03*
%TO.N,/IOL9A*%
X189357000Y-119507000D03*
%TO.N,/IOL9B*%
X189230000Y-107823000D03*
%TO.N,/IOL5A*%
X191262000Y-110236000D03*
%TO.N,/IOL5B*%
X193992500Y-111823500D03*
%TO.N,/IOL12A*%
X200609200Y-117729000D03*
%TO.N,/IOL12B*%
X198882000Y-113284000D03*
%TD*%
D28*
%TO.N,GND*%
X166522400Y-154686000D02*
X166573200Y-154635200D01*
X137123000Y-154686000D02*
X166522400Y-154686000D01*
X166166800Y-154635200D02*
X166573200Y-154635200D01*
X166573200Y-154635200D02*
X178511200Y-154635200D01*
D29*
X133197600Y-154686000D02*
X135673000Y-154686000D01*
X132080000Y-153568400D02*
X133197600Y-154686000D01*
X132080000Y-150495000D02*
X132080000Y-153568400D01*
D28*
X165100000Y-153568400D02*
X166166800Y-154635200D01*
X165100000Y-146710400D02*
X165100000Y-153568400D01*
X194868800Y-154635200D02*
X194919600Y-154686000D01*
X194919600Y-154686000D02*
X197141000Y-154686000D01*
X179961200Y-154635200D02*
X194868800Y-154635200D01*
X194767200Y-154686000D02*
X194919600Y-154686000D01*
X193040000Y-152958800D02*
X194767200Y-154686000D01*
X193040000Y-150495000D02*
X193040000Y-152958800D01*
D29*
%TO.N,/IOB91A*%
X171450000Y-95885000D02*
X171450000Y-90678000D01*
X180340000Y-104775000D02*
X171450000Y-95885000D01*
X189280800Y-105257600D02*
X184124600Y-105257600D01*
X184124600Y-105257600D02*
X183642000Y-104775000D01*
X183642000Y-104775000D02*
X180340000Y-104775000D01*
X189331600Y-105206800D02*
X189280800Y-105257600D01*
%TO.N,GND*%
X201726800Y-112318800D02*
X210210400Y-112318800D01*
X196037200Y-106629200D02*
X201726800Y-112318800D01*
X180238400Y-106629200D02*
X196037200Y-106629200D01*
X179146200Y-105537000D02*
X180238400Y-106629200D01*
X178943000Y-105537000D02*
X179146200Y-105537000D01*
%TO.N,Net-(J1-Pad63)*%
X210210400Y-116586000D02*
X210210400Y-113768800D01*
X210185000Y-116738400D02*
X210185000Y-116611400D01*
X210185000Y-116611400D02*
X210210400Y-116586000D01*
%TO.N,/IOT1A*%
X172720000Y-118618000D02*
X172720000Y-126365000D01*
X169418000Y-115316000D02*
X172720000Y-118618000D01*
X169418000Y-108762800D02*
X169418000Y-115316000D01*
X169367200Y-108712000D02*
X169418000Y-108762800D01*
%TO.N,/VCCIO6{slash}7*%
X170180000Y-117576600D02*
X170180000Y-121920000D01*
X168808400Y-116205000D02*
X170180000Y-117576600D01*
X168808400Y-110439200D02*
X168808400Y-116205000D01*
X168402000Y-108254800D02*
X168402000Y-110032800D01*
X168656000Y-108000800D02*
X168402000Y-108254800D01*
X168402000Y-110032800D02*
X168808400Y-110439200D01*
X169570400Y-106324400D02*
X168656000Y-107238800D01*
X168656000Y-107238800D02*
X168656000Y-108000800D01*
X167640000Y-116535200D02*
X167640000Y-126365000D01*
X167894000Y-111506000D02*
X168097200Y-111709200D01*
X168198800Y-107645200D02*
X167894000Y-107950000D01*
X168097200Y-116078000D02*
X167640000Y-116535200D01*
X168300400Y-105918000D02*
X168198800Y-106019600D01*
X168198800Y-106019600D02*
X168198800Y-107645200D01*
X167894000Y-107950000D02*
X167894000Y-111506000D01*
X168097200Y-111709200D02*
X168097200Y-116078000D01*
%TO.N,/IOB60A*%
X160020000Y-120015000D02*
X160020000Y-121920000D01*
X165709600Y-114325400D02*
X160020000Y-120015000D01*
X165709600Y-106781600D02*
X165709600Y-114325400D01*
X165887400Y-106603800D02*
X165709600Y-106781600D01*
%TO.N,/DONE*%
X162560000Y-118694200D02*
X162560000Y-126365000D01*
X166471600Y-114782600D02*
X162560000Y-118694200D01*
X166471600Y-111988600D02*
X166471600Y-114782600D01*
X167335200Y-111125000D02*
X166471600Y-111988600D01*
X167182800Y-106883200D02*
X167335200Y-107035600D01*
X167335200Y-107035600D02*
X167335200Y-111125000D01*
%TO.N,/IOT3A*%
X177800000Y-119507000D02*
X177800000Y-134366000D01*
X171958000Y-113665000D02*
X177800000Y-119507000D01*
X171958000Y-111506000D02*
X171958000Y-113665000D01*
X170738800Y-110286800D02*
X171958000Y-111506000D01*
X170992800Y-106781600D02*
X170738800Y-107035600D01*
X170738800Y-107035600D02*
X170738800Y-110286800D01*
%TO.N,/IOT3B*%
X172313600Y-108686600D02*
X180340000Y-116713000D01*
X172313600Y-106121200D02*
X172313600Y-108686600D01*
X180340000Y-116713000D02*
X180340000Y-131310000D01*
%TO.N,/IOT7A*%
X182880000Y-117373400D02*
X182880000Y-134620000D01*
X173532800Y-108026200D02*
X182880000Y-117373400D01*
X173532800Y-105511600D02*
X173532800Y-108026200D01*
%TO.N,/IOT7B*%
X185420000Y-117983000D02*
X185420000Y-131310000D01*
X175056800Y-107619800D02*
X185420000Y-117983000D01*
X175056800Y-105206800D02*
X175056800Y-107619800D01*
%TO.N,/READY*%
X152400000Y-120827800D02*
X152400000Y-126365000D01*
X162509200Y-110718600D02*
X152400000Y-120827800D01*
X162509200Y-106984800D02*
X162509200Y-110718600D01*
%TO.N,/IOB56A*%
X163982400Y-106883200D02*
X163982400Y-111887000D01*
X163982400Y-111887000D02*
X154940000Y-120929400D01*
X164033200Y-106832400D02*
X163982400Y-106883200D01*
X154940000Y-120929400D02*
X154940000Y-121920000D01*
%TO.N,GND*%
X149860000Y-120421400D02*
X149860000Y-121920000D01*
X160782000Y-106934000D02*
X160782000Y-109499400D01*
X160782000Y-109499400D02*
X149860000Y-120421400D01*
%TO.N,/IOT1B*%
X170561000Y-114046000D02*
X175260000Y-118745000D01*
X170561000Y-113030000D02*
X170561000Y-114046000D01*
X175260000Y-118745000D02*
X175260000Y-121920000D01*
%TO.N,GND*%
X178943000Y-109880400D02*
X187960000Y-118897400D01*
X187960000Y-118897400D02*
X187960000Y-134620000D01*
X178943000Y-105537000D02*
X178943000Y-109880400D01*
%TO.N,/IOB91B*%
X173990000Y-96520000D02*
X173990000Y-86868000D01*
X187198000Y-104013000D02*
X181483000Y-104013000D01*
X181483000Y-104013000D02*
X173990000Y-96520000D01*
%TO.N,/IOT58B*%
X159156400Y-107975400D02*
X159156400Y-108864400D01*
X159156400Y-108864400D02*
X147320000Y-120700800D01*
X147320000Y-120700800D02*
X147320000Y-126365000D01*
%TO.N,/IOT58A*%
X144780000Y-119126000D02*
X155956000Y-107950000D01*
X155956000Y-107950000D02*
X156464000Y-107950000D01*
%TO.N,IOT56B*%
X142240000Y-117856000D02*
X142240000Y-126365000D01*
X151892000Y-108204000D02*
X142240000Y-117856000D01*
%TO.N,/IOL9B*%
X193040000Y-120269000D02*
X193040000Y-134620000D01*
X189230000Y-116459000D02*
X193040000Y-120269000D01*
X189230000Y-107823000D02*
X189230000Y-116459000D01*
%TO.N,/IOL5A*%
X195580000Y-118872000D02*
X195580000Y-131310000D01*
X191262000Y-114554000D02*
X195580000Y-118872000D01*
X191262000Y-110236000D02*
X191262000Y-114554000D01*
D28*
%TO.N,/VDD_1V8*%
X176530000Y-97409000D02*
X176530000Y-90678000D01*
X182118000Y-102997000D02*
X176530000Y-97409000D01*
X190754000Y-102997000D02*
X182118000Y-102997000D01*
D29*
%TO.N,/IOL5B*%
X198120000Y-117678200D02*
X198120000Y-134620000D01*
X194564000Y-114122200D02*
X198120000Y-117678200D01*
X194564000Y-112395000D02*
X194564000Y-114122200D01*
X193992500Y-111823500D02*
X194564000Y-112395000D01*
%TO.N,/IOL12B*%
X203200000Y-116967000D02*
X203200000Y-134620000D01*
X199517000Y-113284000D02*
X203200000Y-116967000D01*
X198882000Y-113284000D02*
X199517000Y-113284000D01*
%TO.N,GND*%
X203771500Y-114617500D02*
X205740000Y-116586000D01*
X205740000Y-116586000D02*
X205740000Y-118872000D01*
%TO.N,/IOL9A*%
X190500000Y-120650000D02*
X190500000Y-131310000D01*
X189357000Y-119507000D02*
X190500000Y-120650000D01*
%TO.N,/VCCIO2{slash}3*%
X130759200Y-81516600D02*
X130759200Y-80746600D01*
X130810000Y-90678000D02*
X130810000Y-81567400D01*
X130759200Y-80746600D02*
X133299200Y-78206600D01*
X130810000Y-81567400D02*
X130759200Y-81516600D01*
X130810000Y-95123000D02*
X130810000Y-90678000D01*
%TO.N,/IOB4A*%
X133312000Y-62992000D02*
X133312000Y-71239000D01*
%TO.N,/IOB4B*%
X135839200Y-66268600D02*
X135839200Y-74536200D01*
X135839200Y-74536200D02*
X135852000Y-74549000D01*
%TO.N,/IOR18A*%
X135890000Y-90678000D02*
X135890000Y-81567400D01*
X135890000Y-96393000D02*
X135890000Y-90678000D01*
X135890000Y-81567400D02*
X135839200Y-81516600D01*
%TO.N,/IOB26A*%
X138392000Y-62992000D02*
X138392000Y-71239000D01*
%TO.N,/IOR18B*%
X138430000Y-78257400D02*
X138379200Y-78206600D01*
X138430000Y-93091000D02*
X138430000Y-86868000D01*
X138430000Y-86868000D02*
X138430000Y-78257400D01*
%TO.N,/IOB26B*%
X140919200Y-66268600D02*
X140919200Y-74536200D01*
X140919200Y-74536200D02*
X140932000Y-74549000D01*
%TO.N,/IOR20A*%
X140970000Y-90678000D02*
X140970000Y-81567400D01*
X140970000Y-81567400D02*
X140919200Y-81516600D01*
X140970000Y-97663000D02*
X140970000Y-90678000D01*
%TO.N,/IOB24A*%
X143472000Y-62992000D02*
X143472000Y-71239000D01*
%TO.N,/IOR20B*%
X143510000Y-78257400D02*
X143459200Y-78206600D01*
X143510000Y-98425000D02*
X143510000Y-86868000D01*
X143510000Y-86868000D02*
X143510000Y-78257400D01*
%TO.N,/RECONFIG*%
X145999200Y-74536200D02*
X146012000Y-74549000D01*
X145999200Y-66268600D02*
X145999200Y-74536200D01*
%TO.N,/IOR22A*%
X146050000Y-81567400D02*
X145999200Y-81516600D01*
X146050000Y-99187000D02*
X146050000Y-90678000D01*
X146050000Y-90678000D02*
X146050000Y-81567400D01*
%TO.N,/IOB12B*%
X148552000Y-62992000D02*
X148552000Y-71239000D01*
%TO.N,/IOR22B*%
X148590000Y-99949000D02*
X148590000Y-86868000D01*
X148590000Y-86868000D02*
X148590000Y-78257400D01*
X148590000Y-78257400D02*
X148539200Y-78206600D01*
%TO.N,/IOB14B*%
X151079200Y-74536200D02*
X151092000Y-74549000D01*
X151079200Y-66268600D02*
X151079200Y-74536200D01*
%TO.N,/IOR24A*%
X151130000Y-90678000D02*
X151130000Y-81567400D01*
X151130000Y-81567400D02*
X151079200Y-81516600D01*
X151130000Y-101981000D02*
X151130000Y-90678000D01*
%TO.N,/IOR24B*%
X152400000Y-103505000D02*
X153670000Y-102235000D01*
X153670000Y-86868000D02*
X153670000Y-78257400D01*
X153670000Y-78257400D02*
X153619200Y-78206600D01*
X151130000Y-103505000D02*
X152400000Y-103505000D01*
X153670000Y-102235000D02*
X153670000Y-86868000D01*
%TO.N,/TCK*%
X156159200Y-74536200D02*
X156172000Y-74549000D01*
X156159200Y-66268600D02*
X156159200Y-74536200D01*
%TO.N,/IOR31A*%
X156210000Y-90678000D02*
X156210000Y-81567400D01*
X156210000Y-105664000D02*
X156210000Y-90678000D01*
%TO.N,IOT31A*%
X134620000Y-119634000D02*
X134620000Y-121920000D01*
%TO.N,/IOR31A*%
X156210000Y-81567400D02*
X156159200Y-81516600D01*
%TO.N,IOT31A*%
X134620000Y-121920000D02*
X134620000Y-131310000D01*
%TO.N,/TMS*%
X158712000Y-62992000D02*
X158712000Y-71239000D01*
%TO.N,IOT31B*%
X146050000Y-109728000D02*
X137109200Y-118668800D01*
X137109200Y-118668800D02*
X137109200Y-126365000D01*
X137109200Y-134569200D02*
X137160000Y-134620000D01*
%TO.N,/IOR31B*%
X158750000Y-106172000D02*
X158750000Y-86868000D01*
X158750000Y-86868000D02*
X158750000Y-78257400D01*
%TO.N,IOT31B*%
X137109200Y-126365000D02*
X137109200Y-134569200D01*
%TO.N,/IOR31B*%
X158750000Y-78257400D02*
X158699200Y-78206600D01*
%TO.N,/TDO*%
X161239200Y-74536200D02*
X161252000Y-74549000D01*
X161239200Y-66268600D02*
X161239200Y-74536200D01*
%TO.N,/IOR33A*%
X161290000Y-90678000D02*
X161290000Y-81567400D01*
X167132000Y-105156000D02*
X161290000Y-99314000D01*
X161290000Y-99314000D02*
X161290000Y-90678000D01*
X161290000Y-81567400D02*
X161239200Y-81516600D01*
%TO.N,/TDI*%
X163792000Y-62992000D02*
X163792000Y-71239000D01*
%TO.N,/IOR33B*%
X163830000Y-78257400D02*
X163779200Y-78206600D01*
X168402000Y-104330500D02*
X163830000Y-99758500D01*
X168402000Y-104521000D02*
X168402000Y-104330500D01*
X163830000Y-99758500D02*
X163830000Y-86868000D01*
X163830000Y-86868000D02*
X163830000Y-78257400D01*
%TO.N,/IOB89A*%
X166370000Y-100711000D02*
X166370000Y-90678000D01*
X166370000Y-81567400D02*
X166319200Y-81516600D01*
X166370000Y-90678000D02*
X166370000Y-81567400D01*
X169672000Y-104013000D02*
X166370000Y-100711000D01*
X169672000Y-105029000D02*
X169672000Y-104013000D01*
%TO.N,/M0_D3P*%
X168872000Y-62992000D02*
X168872000Y-71239000D01*
%TO.N,/IOB89B*%
X168910000Y-86868000D02*
X168910000Y-78257400D01*
X169672000Y-102743000D02*
X169672000Y-93853000D01*
X168910000Y-78257400D02*
X168859200Y-78206600D01*
X169672000Y-93853000D02*
X168910000Y-93091000D01*
X168910000Y-93091000D02*
X168910000Y-86868000D01*
X171069000Y-105283000D02*
X171069000Y-104140000D01*
X171069000Y-104140000D02*
X169672000Y-102743000D01*
%TO.N,/M0_D3N*%
X171399200Y-66268600D02*
X171399200Y-74536200D01*
X171399200Y-74536200D02*
X171412000Y-74549000D01*
%TO.N,/IOB91A*%
X171450000Y-81567400D02*
X171399200Y-81516600D01*
X171450000Y-90678000D02*
X171450000Y-81567400D01*
%TO.N,/IOB91B*%
X173990000Y-86868000D02*
X173990000Y-78257400D01*
X173990000Y-78257400D02*
X173939200Y-78206600D01*
%TO.N,/M0_D2P*%
X176479200Y-66268600D02*
X176479200Y-74536200D01*
X176479200Y-74536200D02*
X176492000Y-74549000D01*
D28*
%TO.N,/VDD_1V8*%
X205486000Y-102997000D02*
X209804000Y-107315000D01*
X176479200Y-81516600D02*
X179019200Y-78976600D01*
X190754000Y-102997000D02*
X205486000Y-102997000D01*
X176530000Y-90678000D02*
X176530000Y-81567400D01*
X179019200Y-78976600D02*
X179019200Y-78206600D01*
D29*
X176530000Y-81567400D02*
X176479200Y-81516600D01*
%TO.N,/M0_D2N*%
X179032000Y-62992000D02*
X179032000Y-71239000D01*
D30*
%TO.N,+2V5*%
X187706000Y-101219000D02*
X183134000Y-101219000D01*
X181559200Y-81516600D02*
X184099200Y-78976600D01*
X183134000Y-101219000D02*
X181610000Y-99695000D01*
X181610000Y-81567400D02*
X181559200Y-81516600D01*
X181610000Y-90678000D02*
X181610000Y-81567400D01*
X184099200Y-78976600D02*
X184099200Y-78206600D01*
X187706000Y-101219000D02*
X209804000Y-101219000D01*
X181610000Y-99695000D02*
X181610000Y-90678000D01*
D29*
%TO.N,/M0_CKP*%
X184112000Y-62992000D02*
X184112000Y-71239000D01*
%TO.N,/M0_CKN*%
X186639200Y-66268600D02*
X186639200Y-74536200D01*
X186639200Y-74536200D02*
X186652000Y-74549000D01*
D31*
%TO.N,+3V3*%
X189179200Y-78206600D02*
X191719200Y-80746600D01*
X191719200Y-81516600D02*
X191719200Y-90627200D01*
X191719200Y-82168600D02*
X191719200Y-80746600D01*
D28*
X191719200Y-80746600D02*
X191719200Y-81516600D01*
X186639200Y-81516600D02*
X186639200Y-80746600D01*
D31*
X186639200Y-80746600D02*
X189179200Y-78206600D01*
X186639200Y-80746600D02*
X186639200Y-82168600D01*
D32*
X191719200Y-90627200D02*
X191770000Y-90678000D01*
D29*
%TO.N,/M0_D1P*%
X191719200Y-74536200D02*
X191732000Y-74549000D01*
X191719200Y-66268600D02*
X191719200Y-74536200D01*
%TO.N,/M0_D1N*%
X194272000Y-62992000D02*
X194272000Y-71239000D01*
D32*
%TO.N,+5V*%
X196799200Y-80746600D02*
X196799200Y-82168600D01*
D31*
X199339200Y-78206600D02*
X201879200Y-80746600D01*
X194259200Y-78206600D02*
X196799200Y-80746600D01*
X204419200Y-78206600D02*
X201879200Y-80746600D01*
D32*
X201879200Y-80746600D02*
X201879200Y-81516600D01*
X201879200Y-90627200D02*
X201930000Y-90678000D01*
X201879200Y-80746600D02*
X201879200Y-82168600D01*
D31*
X196799200Y-80746600D02*
X199339200Y-78206600D01*
X201879200Y-81516600D02*
X201879200Y-90627200D01*
D29*
%TO.N,/M0_D0P*%
X199352000Y-62992000D02*
X199352000Y-71239000D01*
%TO.N,/M0_D0N*%
X201879200Y-66268600D02*
X201879200Y-74536200D01*
X201879200Y-74536200D02*
X201892000Y-74549000D01*
D28*
%TO.N,Net-(J1-Pad64)*%
X210185000Y-135308000D02*
X210185000Y-142875000D01*
%TO.N,Net-(J1-Pad63)*%
X210185000Y-133858000D02*
X210185000Y-126365000D01*
X210058000Y-118999000D02*
X210185000Y-118872000D01*
X208788000Y-118999000D02*
X210058000Y-118999000D01*
X210185000Y-118872000D02*
X210185000Y-126365000D01*
X125730000Y-137340000D02*
X125730000Y-142240000D01*
X125730000Y-144272000D02*
X125730000Y-142240000D01*
X210185000Y-116738400D02*
X210185000Y-118872000D01*
X127762000Y-146304000D02*
X125730000Y-144272000D01*
%TO.N,Net-(J1-Pad62)*%
X127254000Y-120396000D02*
X125730000Y-121920000D01*
X125730000Y-126365000D02*
X125730000Y-129831000D01*
X125730000Y-121920000D02*
X125730000Y-126365000D01*
X128270000Y-120396000D02*
X127254000Y-120396000D01*
D29*
%TO.N,/IOT61A*%
X134620000Y-146685000D02*
X134620000Y-138684000D01*
%TO.N,/IOT61B*%
X137160000Y-150495000D02*
X137160000Y-141994000D01*
%TO.N,GND*%
X205740000Y-118872000D02*
X205740000Y-131310000D01*
X132080000Y-146304000D02*
X132080000Y-141994000D01*
X173952000Y-62992000D02*
X173952000Y-71239000D01*
X181559200Y-66268600D02*
X181559200Y-74536200D01*
D28*
X125767000Y-66675000D02*
X125767000Y-70448000D01*
D29*
X204432000Y-62992000D02*
X204432000Y-71239000D01*
D28*
X205790800Y-96850200D02*
X209702400Y-92938600D01*
D29*
X165100000Y-146685000D02*
X165100000Y-138684000D01*
D28*
X205740000Y-146685000D02*
X205740000Y-138684000D01*
D29*
X193040000Y-150495000D02*
X193040000Y-141994000D01*
X189192000Y-62992000D02*
X189192000Y-71239000D01*
D28*
X209702400Y-92938600D02*
X209702400Y-90703400D01*
X130352800Y-66675000D02*
X130759200Y-66268600D01*
D29*
X165100000Y-131310000D02*
X165100000Y-121920000D01*
D28*
X132080000Y-119634000D02*
X132080000Y-120396000D01*
D29*
X130759200Y-74536200D02*
X130772000Y-74549000D01*
D28*
X205740000Y-138684000D02*
X205740000Y-131310000D01*
X125767000Y-70448000D02*
X125730000Y-70485000D01*
D29*
X181559200Y-74536200D02*
X181572000Y-74549000D01*
D28*
X207338000Y-118999000D02*
X205867000Y-118999000D01*
X125730000Y-78486000D02*
X125730000Y-70485000D01*
D29*
X165100000Y-117322600D02*
X165100000Y-121920000D01*
X167386000Y-112953800D02*
X167386000Y-115036600D01*
D28*
X127217000Y-66675000D02*
X130352800Y-66675000D01*
D29*
X196799200Y-66268600D02*
X196799200Y-74536200D01*
X166319200Y-74536200D02*
X166332000Y-74549000D01*
D28*
X132080000Y-120396000D02*
X132080000Y-126365000D01*
D29*
X132080000Y-150495000D02*
X132080000Y-146304000D01*
D28*
X209702400Y-90703400D02*
X209702400Y-83644400D01*
X125349000Y-70612000D02*
X125476000Y-70485000D01*
X129212000Y-146304000D02*
X132080000Y-146304000D01*
D29*
X166319200Y-66268600D02*
X166319200Y-74536200D01*
D28*
X209702400Y-83644400D02*
X209677000Y-83619000D01*
D29*
X130759200Y-66268600D02*
X130759200Y-74536200D01*
X132080000Y-134620000D02*
X132080000Y-126365000D01*
D28*
X183692800Y-96850200D02*
X183642000Y-96901000D01*
D29*
X149860000Y-131310000D02*
X149860000Y-121920000D01*
D28*
X132080000Y-116840000D02*
X132080000Y-119634000D01*
X129720000Y-120396000D02*
X132080000Y-120396000D01*
X205867000Y-118999000D02*
X205740000Y-118872000D01*
X125730000Y-79936000D02*
X125730000Y-86106000D01*
D29*
X167386000Y-115036600D02*
X165100000Y-117322600D01*
D28*
X205790800Y-96850200D02*
X183692800Y-96850200D01*
D29*
X153632000Y-62992000D02*
X153632000Y-71239000D01*
D28*
X125730000Y-91948000D02*
X125730000Y-86106000D01*
X209677000Y-82169000D02*
X209677000Y-70485000D01*
D29*
X196799200Y-74536200D02*
X196812000Y-74549000D01*
D28*
X125222000Y-80063000D02*
X125349000Y-79936000D01*
X204470000Y-154686000D02*
X205740000Y-153416000D01*
X198591000Y-154686000D02*
X204470000Y-154686000D01*
X205740000Y-153416000D02*
X205740000Y-146685000D01*
D29*
%TO.N,/IOT63A*%
X139700000Y-146685000D02*
X139700000Y-138684000D01*
%TO.N,/IOT63B*%
X142240000Y-150495000D02*
X142240000Y-141994000D01*
%TO.N,/IOT58A*%
X144780000Y-119126000D02*
X144780000Y-121920000D01*
D28*
X125730000Y-131281000D02*
X128995000Y-131281000D01*
X125730000Y-135890000D02*
X125730000Y-131281000D01*
X128995000Y-131281000D02*
X129032000Y-131318000D01*
D29*
X144780000Y-131310000D02*
X144780000Y-121920000D01*
%TO.N,/IOT66A*%
X144780000Y-146685000D02*
X144780000Y-138684000D01*
%TO.N,/IOT58B*%
X147320000Y-126365000D02*
X147320000Y-134620000D01*
%TO.N,/IOT66B*%
X147320000Y-150495000D02*
X147320000Y-141994000D01*
%TO.N,/IOT68A*%
X149860000Y-146685000D02*
X149860000Y-138684000D01*
%TO.N,/READY*%
X152400000Y-126365000D02*
X152400000Y-134620000D01*
%TO.N,/IOT68B*%
X152400000Y-150495000D02*
X152400000Y-141994000D01*
%TO.N,IOT56A*%
X139700000Y-119634000D02*
X139700000Y-121920000D01*
%TO.N,/IOB56A*%
X154940000Y-131310000D02*
X154940000Y-121920000D01*
%TO.N,IOT56A*%
X139700000Y-121920000D02*
X139700000Y-131310000D01*
%TO.N,/IOT72A*%
X154940000Y-146685000D02*
X154940000Y-138684000D01*
%TO.N,/IOB56B*%
X164896800Y-112953800D02*
X157480000Y-120370600D01*
X157480000Y-134620000D02*
X157480000Y-126365000D01*
%TO.N,IOT56B*%
X142240000Y-126365000D02*
X142240000Y-134620000D01*
%TO.N,/IOB56B*%
X157480000Y-120370600D02*
X157480000Y-126365000D01*
%TO.N,/IOT72B*%
X157480000Y-150495000D02*
X157480000Y-141994000D01*
%TO.N,/IOB60A*%
X160020000Y-131310000D02*
X160020000Y-121920000D01*
%TO.N,/VCCIO0{slash}1*%
X160020000Y-146685000D02*
X160020000Y-138684000D01*
X162560000Y-150495000D02*
X162560000Y-141994000D01*
%TO.N,/DONE*%
X162560000Y-134620000D02*
X162560000Y-126365000D01*
%TO.N,/VCCIO6{slash}7*%
X167640000Y-134620000D02*
X167640000Y-126365000D01*
X170180000Y-131310000D02*
X170180000Y-121920000D01*
%TO.N,/IOT23A*%
X167640000Y-150495000D02*
X167640000Y-141994000D01*
X167640000Y-141994000D02*
X167640000Y-141224000D01*
%TO.N,/IOT23B*%
X170561000Y-139065000D02*
X170180000Y-138684000D01*
X170561000Y-146685000D02*
X170561000Y-139065000D01*
%TO.N,/IOT1A*%
X172720000Y-134620000D02*
X172720000Y-126365000D01*
%TO.N,/IOT21A*%
X172720000Y-150495000D02*
X172720000Y-141994000D01*
%TO.N,/IOT1B*%
X175260000Y-131056000D02*
X175260000Y-121920000D01*
%TO.N,/IOT21B*%
X175260000Y-146685000D02*
X175260000Y-138684000D01*
D28*
%TO.N,/IOT3A*%
X177800000Y-134620000D02*
X177800000Y-133850000D01*
D29*
%TO.N,/IOT19A*%
X177800000Y-150495000D02*
X177800000Y-141994000D01*
%TO.N,/IOT19B*%
X180340000Y-146685000D02*
X180340000Y-138684000D01*
%TO.N,/IOT15A*%
X182880000Y-150495000D02*
X182880000Y-141994000D01*
%TO.N,/IOT15B*%
X185420000Y-146685000D02*
X185420000Y-138684000D01*
%TO.N,/IOT11A*%
X187960000Y-150495000D02*
X187960000Y-141994000D01*
%TO.N,/IOT11B*%
X190500000Y-146685000D02*
X190500000Y-138684000D01*
%TO.N,/IOL3A*%
X195580000Y-146685000D02*
X195580000Y-138684000D01*
%TO.N,/IOL3B*%
X198247000Y-142121000D02*
X198120000Y-141994000D01*
X198247000Y-150495000D02*
X198247000Y-142121000D01*
%TO.N,/IOL12A*%
X200660000Y-131310000D02*
X200660000Y-126365000D01*
X200660000Y-117779800D02*
X200660000Y-126365000D01*
X200609200Y-117729000D02*
X200660000Y-117779800D01*
%TO.N,/IOL14A*%
X200660000Y-146685000D02*
X200660000Y-138684000D01*
%TO.N,/IOL14B*%
X203200000Y-150495000D02*
X203200000Y-141994000D01*
%TD*%
M02*
