M48
; DRILL file {KiCad 8.0.0} date 2024-03-15T19:34:52+0900
; FORMAT={-:-/ absolute / inch / decimal}
; #@! TF.CreationDate,2024-03-15T19:34:52+09:00
; #@! TF.GenerationSoftware,Kicad,Pcbnew,8.0.0
; #@! TF.FileFunction,Plated,1,2,PTH
FMAT,2
INCH
; #@! TA.AperFunction,Plated,PTH,ViaDrill
T1C0.0118
; #@! TA.AperFunction,Plated,PTH,ViaDrill
T2C0.0157
; #@! TA.AperFunction,Plated,PTH,ComponentDrill
T3C0.0276
; #@! TA.AperFunction,Plated,PTH,ComponentDrill
T4C0.0394
; #@! TA.AperFunction,Plated,PTH,ComponentDrill
T5C0.0984
%
G90
G05
T1
X4.95Y-3.62
X4.95Y-4.87
X5.08Y-5.17
X5.15Y-3.745
X5.2Y-4.6
X5.3Y-4.71
X5.35Y-3.795
X5.45Y-3.665
X5.5Y-4.71
X5.55Y-3.845
X5.65Y-3.875
X5.7Y-4.69
X5.75Y-3.905
X5.75Y-4.32
X5.85Y-3.935
X5.95Y-4.015
X5.95Y-4.075
X5.98Y-4.26
X6.15Y-4.16
X6.16Y-4.25
X6.25Y-4.18
X6.266Y-4.251
X6.33Y-4.21
X6.398Y-4.212
X6.458Y-4.206
X6.492Y-4.447
X6.531Y-4.197
X6.58Y-4.14
X6.582Y-4.208
X6.59Y-4.447
X6.626Y-4.17
X6.63Y-4.115
X6.668Y-4.28
X6.676Y-4.186
X6.68Y-4.135
X6.715Y-4.45
X6.732Y-4.204
X6.735Y-4.145
X6.784Y-4.178
X6.832Y-4.154
X6.892Y-4.142
X7.045Y-4.155
X7.37Y-4.095
X7.45Y-4.245
X7.454Y-4.142
X7.455Y-4.705
X7.53Y-4.34
X7.6375Y-4.4025
X7.83Y-4.46
X7.898Y-4.635
X8.0225Y-4.5125
X8.275Y-4.596
T2
X7.23Y-3.815
X7.39Y-3.985
X7.51Y-4.055
T3
X4.95Y-2.775
X4.95Y-4.975
X4.95Y-5.6
X5.148Y-2.609
X5.2Y-5.925
X5.2485Y-2.48
X5.3Y-5.775
X5.348Y-2.609
X5.4Y-5.925
X5.4485Y-2.48
X5.5Y-5.775
X5.548Y-2.609
X5.6Y-5.925
X5.6485Y-2.48
X5.7Y-5.775
X5.748Y-2.609
X5.8Y-5.925
X5.8485Y-2.48
X5.9Y-5.775
X5.948Y-2.609
X6.0Y-5.925
X6.0485Y-2.48
X6.1Y-5.775
X6.148Y-2.609
X6.2Y-5.925
X6.2485Y-2.48
X6.3Y-5.775
X6.348Y-2.609
X6.4Y-5.925
X6.4485Y-2.48
X6.5Y-5.776
X6.548Y-2.609
X6.6Y-5.925
X6.6485Y-2.48
X6.715Y-5.775
X6.748Y-2.609
X6.8Y-5.925
X6.8485Y-2.48
X6.9Y-5.775
X6.948Y-2.609
X7.0Y-5.925
X7.0485Y-2.48
X7.1Y-5.775
X7.148Y-2.609
X7.2Y-5.925
X7.2485Y-2.48
X7.3Y-5.775
X7.348Y-2.609
X7.4Y-5.925
X7.4485Y-2.48
X7.5Y-5.775
X7.548Y-2.609
X7.55Y-3.555
X7.6Y-5.925
X7.6485Y-2.48
X7.7Y-5.775
X7.748Y-2.609
X7.805Y-5.925
X7.8485Y-2.48
X7.9Y-5.775
X7.948Y-2.609
X7.95Y-3.555
X8.0Y-5.925
X8.0485Y-2.48
X8.1Y-5.775
X8.255Y-2.775
T4
X4.9Y-3.76
X4.9Y-3.86
X4.9Y-3.96
X4.9Y-4.06
X4.9Y-4.16
X4.9Y-4.26
X4.9Y-4.36
X4.9Y-4.46
X4.9Y-4.56
X4.9Y-4.66
X5.0Y-3.86
X5.0Y-3.96
X5.0Y-4.06
X5.0Y-4.16
X5.0Y-4.26
X5.0Y-4.36
X5.0Y-4.46
X5.0Y-4.56
X5.1Y-3.86
X5.1Y-3.96
X5.1Y-4.06
X5.1Y-4.16
X5.1Y-4.26
X5.1Y-4.36
X5.1Y-4.46
X5.1Y-4.56
X5.2Y-3.86
X5.2Y-3.96
X5.2Y-4.06
X5.2Y-4.16
X5.2Y-4.26
X5.2Y-4.36
X5.3Y-3.96
X5.3Y-4.06
X5.3Y-4.16
X5.3Y-4.26
X5.3Y-4.36
X5.4Y-3.96
X5.4Y-4.06
X5.4Y-4.16
X5.4Y-4.26
X5.4Y-4.36
X5.5Y-3.96
X5.5Y-4.06
X5.5Y-4.16
X5.5Y-4.26
X5.5Y-4.36
X5.6Y-3.96
X5.6Y-4.06
X5.6Y-4.16
X5.7Y-4.06
X5.7Y-4.16
X8.26Y-3.985
X8.26Y-4.225
T5
X4.95Y-2.4
X4.95Y-6.02
X8.25Y-2.4
X8.25Y-6.02
M30
