%TF.GenerationSoftware,KiCad,Pcbnew,7.0.9*%
%TF.CreationDate,2023-12-16T04:09:15+09:00*%
%TF.ProjectId,ds_test_board3,64735f74-6573-4745-9f62-6f617264332e,rev?*%
%TF.SameCoordinates,Original*%
%TF.FileFunction,Copper,L2,Bot*%
%TF.FilePolarity,Positive*%
%FSLAX46Y46*%
G04 Gerber Fmt 4.6, Leading zero omitted, Abs format (unit mm)*
G04 Created by KiCad (PCBNEW 7.0.9) date 2023-12-16 04:09:15*
%MOMM*%
%LPD*%
G01*
G04 APERTURE LIST*
G04 Aperture macros list*
%AMFreePoly0*
4,1,6,1.000000,0.000000,0.500000,-0.750000,-0.500000,-0.750000,-0.500000,0.750000,0.500000,0.750000,1.000000,0.000000,1.000000,0.000000,$1*%
%AMFreePoly1*
4,1,6,0.500000,-0.750000,-0.650000,-0.750000,-0.150000,0.000000,-0.650000,0.750000,0.500000,0.750000,0.500000,-0.750000,0.500000,-0.750000,$1*%
G04 Aperture macros list end*
%TA.AperFunction,ComponentPad*%
%ADD10C,1.700000*%
%TD*%
%TA.AperFunction,SMDPad,CuDef*%
%ADD11FreePoly0,180.000000*%
%TD*%
%TA.AperFunction,SMDPad,CuDef*%
%ADD12FreePoly1,180.000000*%
%TD*%
%TA.AperFunction,SMDPad,CuDef*%
%ADD13FreePoly1,90.000000*%
%TD*%
%TA.AperFunction,SMDPad,CuDef*%
%ADD14FreePoly0,90.000000*%
%TD*%
%TA.AperFunction,ComponentPad*%
%ADD15R,2.000000X2.000000*%
%TD*%
%TA.AperFunction,ComponentPad*%
%ADD16R,1.500000X1.500000*%
%TD*%
%TA.AperFunction,ConnectorPad*%
%ADD17C,5.000000*%
%TD*%
%TA.AperFunction,ComponentPad*%
%ADD18C,2.900000*%
%TD*%
%TA.AperFunction,SMDPad,CuDef*%
%ADD19R,0.350000X0.660000*%
%TD*%
%TA.AperFunction,SMDPad,CuDef*%
%ADD20R,0.230000X0.660000*%
%TD*%
%TA.AperFunction,ViaPad*%
%ADD21C,0.500000*%
%TD*%
%TA.AperFunction,ViaPad*%
%ADD22C,0.800000*%
%TD*%
%TA.AperFunction,ViaPad*%
%ADD23C,0.600000*%
%TD*%
%TA.AperFunction,Conductor*%
%ADD24C,0.150000*%
%TD*%
%TA.AperFunction,Conductor*%
%ADD25C,0.250000*%
%TD*%
%TA.AperFunction,Conductor*%
%ADD26C,0.500000*%
%TD*%
%TA.AperFunction,Conductor*%
%ADD27C,0.200000*%
%TD*%
%TA.AperFunction,Conductor*%
%ADD28C,0.300000*%
%TD*%
G04 APERTURE END LIST*
D10*
%TO.P,REF\u002A\u002A,1*%
%TO.N,N/C*%
X124460000Y-95504000D03*
%TD*%
%TO.P,REF\u002A\u002A,1*%
%TO.N,N/C*%
X124460000Y-118364000D03*
%TD*%
%TO.P,REF\u002A\u002A,1*%
%TO.N,N/C*%
X124460000Y-115824000D03*
%TD*%
%TO.P,REF\u002A\u002A,1*%
%TO.N,N/C*%
X129540000Y-115824000D03*
%TD*%
%TO.P,REF\u002A\u002A,1*%
%TO.N,N/C*%
X127000000Y-115824000D03*
%TD*%
%TO.P,REF\u002A\u002A,1*%
%TO.N,N/C*%
X124460000Y-113284000D03*
%TD*%
%TO.P,REF\u002A\u002A,1*%
%TO.N,N/C*%
X129540000Y-113284000D03*
%TD*%
%TO.P,REF\u002A\u002A,1*%
%TO.N,N/C*%
X127000000Y-113284000D03*
%TD*%
%TO.P,REF\u002A\u002A,1*%
%TO.N,N/C*%
X139700000Y-110744000D03*
%TD*%
%TO.P,REF\u002A\u002A,1*%
%TO.N,N/C*%
X127000000Y-110744000D03*
%TD*%
%TO.P,REF\u002A\u002A,1*%
%TO.N,N/C*%
X124460000Y-110744000D03*
%TD*%
%TO.P,REF\u002A\u002A,1*%
%TO.N,N/C*%
X129540000Y-110744000D03*
%TD*%
%TO.P,REF\u002A\u002A,1*%
%TO.N,N/C*%
X137160000Y-110744000D03*
%TD*%
%TO.P,REF\u002A\u002A,1*%
%TO.N,N/C*%
X134620000Y-110744000D03*
%TD*%
%TO.P,REF\u002A\u002A,1*%
%TO.N,N/C*%
X132080000Y-110744000D03*
%TD*%
%TO.P,REF\u002A\u002A,1*%
%TO.N,N/C*%
X139700000Y-108204000D03*
%TD*%
%TO.P,REF\u002A\u002A,1*%
%TO.N,N/C*%
X124460000Y-108204000D03*
%TD*%
%TO.P,REF\u002A\u002A,1*%
%TO.N,N/C*%
X129540000Y-108204000D03*
%TD*%
%TO.P,REF\u002A\u002A,1*%
%TO.N,N/C*%
X137160000Y-108204000D03*
%TD*%
%TO.P,REF\u002A\u002A,1*%
%TO.N,N/C*%
X127000000Y-108204000D03*
%TD*%
%TO.P,REF\u002A\u002A,1*%
%TO.N,N/C*%
X132080000Y-108204000D03*
%TD*%
%TO.P,REF\u002A\u002A,1*%
%TO.N,N/C*%
X134620000Y-108204000D03*
%TD*%
%TO.P,REF\u002A\u002A,1*%
%TO.N,N/C*%
X144780000Y-105664000D03*
%TD*%
%TO.P,REF\u002A\u002A,1*%
%TO.N,N/C*%
X144780000Y-103124000D03*
%TD*%
%TO.P,REF\u002A\u002A,1*%
%TO.N,N/C*%
X124460000Y-105664000D03*
%TD*%
%TO.P,REF\u002A\u002A,1*%
%TO.N,N/C*%
X142240000Y-105664000D03*
%TD*%
%TO.P,REF\u002A\u002A,1*%
%TO.N,N/C*%
X137160000Y-105664000D03*
%TD*%
%TO.P,REF\u002A\u002A,1*%
%TO.N,N/C*%
X139700000Y-105664000D03*
%TD*%
%TO.P,REF\u002A\u002A,1*%
%TO.N,N/C*%
X134620000Y-105664000D03*
%TD*%
%TO.P,REF\u002A\u002A,1*%
%TO.N,N/C*%
X127000000Y-105664000D03*
%TD*%
%TO.P,REF\u002A\u002A,1*%
%TO.N,N/C*%
X129540000Y-105664000D03*
%TD*%
%TO.P,REF\u002A\u002A,1*%
%TO.N,N/C*%
X132080000Y-105664000D03*
%TD*%
%TO.P,REF\u002A\u002A,1*%
%TO.N,N/C*%
X142240000Y-103124000D03*
%TD*%
%TO.P,REF\u002A\u002A,1*%
%TO.N,N/C*%
X139700000Y-103124000D03*
%TD*%
%TO.P,REF\u002A\u002A,1*%
%TO.N,N/C*%
X139700000Y-100584000D03*
%TD*%
%TO.P,REF\u002A\u002A,1*%
%TO.N,N/C*%
X142240000Y-100584000D03*
%TD*%
%TO.P,REF\u002A\u002A,1*%
%TO.N,N/C*%
X124460000Y-103124000D03*
%TD*%
%TO.P,REF\u002A\u002A,1*%
%TO.N,N/C*%
X134620000Y-103124000D03*
%TD*%
%TO.P,REF\u002A\u002A,1*%
%TO.N,N/C*%
X137160000Y-103124000D03*
%TD*%
%TO.P,REF\u002A\u002A,1*%
%TO.N,N/C*%
X127000000Y-103124000D03*
%TD*%
%TO.P,REF\u002A\u002A,1*%
%TO.N,N/C*%
X132080000Y-103124000D03*
%TD*%
%TO.P,REF\u002A\u002A,1*%
%TO.N,N/C*%
X129540000Y-103124000D03*
%TD*%
%TO.P,REF\u002A\u002A,1*%
%TO.N,N/C*%
X137160000Y-100584000D03*
%TD*%
%TO.P,REF\u002A\u002A,1*%
%TO.N,N/C*%
X134620000Y-100584000D03*
%TD*%
%TO.P,REF\u002A\u002A,1*%
%TO.N,N/C*%
X127000000Y-100584000D03*
%TD*%
%TO.P,REF\u002A\u002A,1*%
%TO.N,N/C*%
X132080000Y-100584000D03*
%TD*%
%TO.P,REF\u002A\u002A,1*%
%TO.N,N/C*%
X129540000Y-100584000D03*
%TD*%
%TO.P,REF\u002A\u002A,1*%
%TO.N,N/C*%
X124460000Y-100584000D03*
%TD*%
%TO.P,REF\u002A\u002A,1*%
%TO.N,N/C*%
X132080000Y-98044000D03*
%TD*%
%TO.P,REF\u002A\u002A,1*%
%TO.N,N/C*%
X129540000Y-98044000D03*
%TD*%
%TO.P,REF\u002A\u002A,1*%
%TO.N,N/C*%
X127000000Y-98044000D03*
%TD*%
%TO.P,REF\u002A\u002A,1*%
%TO.N,N/C*%
X124460000Y-98044000D03*
%TD*%
D11*
%TO.P,REF\u002A\u002A,1*%
%TO.N,GND*%
X178742000Y-59436000D03*
D12*
%TO.P,REF\u002A\u002A,2*%
X177292000Y-59436000D03*
%TD*%
%TO.P,REF\u002A\u002A,2*%
%TO.N,GND*%
X191934000Y-59436000D03*
D11*
%TO.P,REF\u002A\u002A,1*%
X193384000Y-59436000D03*
%TD*%
D12*
%TO.P,REF\u002A\u002A,2*%
%TO.N,GND*%
X159840000Y-154686000D03*
D11*
%TO.P,REF\u002A\u002A,1*%
X161290000Y-154686000D03*
%TD*%
D12*
%TO.P,REF\u002A\u002A,2*%
%TO.N,GND*%
X138975000Y-154686000D03*
D11*
%TO.P,REF\u002A\u002A,1*%
X140425000Y-154686000D03*
%TD*%
D12*
%TO.P,REF\u002A\u002A,2*%
%TO.N,GND*%
X179615000Y-154686000D03*
D11*
%TO.P,REF\u002A\u002A,1*%
X181065000Y-154686000D03*
%TD*%
D12*
%TO.P,REF\u002A\u002A,2*%
%TO.N,GND*%
X197141000Y-154686000D03*
D11*
%TO.P,REF\u002A\u002A,1*%
X198591000Y-154686000D03*
%TD*%
%TO.P,REF\u002A\u002A,1*%
%TO.N,GND*%
X137922000Y-59436000D03*
D12*
%TO.P,REF\u002A\u002A,2*%
X136472000Y-59436000D03*
%TD*%
D11*
%TO.P,REF\u002A\u002A,1*%
%TO.N,GND*%
X160020000Y-59436000D03*
D12*
%TO.P,REF\u002A\u002A,2*%
X158570000Y-59436000D03*
%TD*%
D11*
%TO.P,REF\u002A\u002A,1*%
%TO.N,GND*%
X170180000Y-59436000D03*
D12*
%TO.P,REF\u002A\u002A,2*%
X168730000Y-59436000D03*
%TD*%
%TO.P,REF\u002A\u002A,2*%
%TO.N,GND*%
X200316000Y-59436000D03*
D11*
%TO.P,REF\u002A\u002A,1*%
X201766000Y-59436000D03*
%TD*%
%TO.P,REF\u002A\u002A,1*%
%TO.N,GND*%
X185891000Y-59436000D03*
D12*
%TO.P,REF\u002A\u002A,2*%
X184441000Y-59436000D03*
%TD*%
D13*
%TO.P,REF\u002A\u002A,2*%
%TO.N,GND*%
X205105000Y-66712000D03*
D14*
%TO.P,REF\u002A\u002A,1*%
X205105000Y-68162000D03*
%TD*%
D15*
%TO.P,TP35,1,1*%
%TO.N,+5V*%
X201930000Y-90297000D03*
%TD*%
%TO.P,TP37,1,1*%
%TO.N,+3V3*%
X191770000Y-90297000D03*
%TD*%
%TO.P,REF\u002A\u002A,1*%
%TO.N,/VDD_1V8*%
X209804000Y-107315000D03*
%TD*%
%TO.P,REF\u002A\u002A,1*%
%TO.N,+2V5*%
X209804000Y-101219000D03*
%TD*%
D16*
%TO.P,TP79,1,1*%
%TO.N,/IOT58B*%
X190500000Y-146685000D03*
%TD*%
%TO.P,TP111,1,1*%
%TO.N,GND*%
X149860000Y-146685000D03*
%TD*%
%TO.P,TP21,1,1*%
%TO.N,GND*%
X153632000Y-62992000D03*
%TD*%
%TO.P,TP19,1,1*%
%TO.N,/TMS*%
X158712000Y-62992000D03*
%TD*%
%TO.P,TP69,1,1*%
%TO.N,/IOT31A*%
X203200000Y-150495000D03*
%TD*%
%TO.P,TP73,1,1*%
%TO.N,/IOT56A*%
X198247000Y-150495000D03*
%TD*%
D17*
%TO.P,REF\u002A\u002A,1*%
%TO.N,N/C*%
X125730000Y-60960000D03*
D18*
X125730000Y-60960000D03*
%TD*%
D16*
%TO.P,TP117,1,1*%
%TO.N,/IOL5A*%
X142240000Y-150495000D03*
%TD*%
%TO.P,TP20,1,1*%
%TO.N,/TCK*%
X156159200Y-66268600D03*
%TD*%
%TO.P,TP81,1,1*%
%TO.N,GND*%
X187960000Y-150495000D03*
%TD*%
%TO.P,TP17,1,1*%
%TO.N,/TDI*%
X163792000Y-62992000D03*
%TD*%
%TO.P,TP93,1,1*%
%TO.N,GND*%
X172720000Y-150495000D03*
%TD*%
%TO.P,TP14,1,1*%
%TO.N,/M0_D3N*%
X171399200Y-66268600D03*
%TD*%
%TO.P,TP83,1,1*%
%TO.N,/READY*%
X185420000Y-146685000D03*
%TD*%
%TO.P,TP6,1,1*%
%TO.N,/M0_D1P*%
X191719200Y-66268600D03*
%TD*%
%TO.P,TP12,1,1*%
%TO.N,/M0_D2P*%
X176479200Y-66268600D03*
%TD*%
%TO.P,TP18,1,1*%
%TO.N,/TDO*%
X161239200Y-66268600D03*
%TD*%
%TO.P,TP1,1,1*%
%TO.N,GND*%
X204432000Y-62992000D03*
%TD*%
%TO.P,TP4,1,1*%
%TO.N,GND*%
X196799200Y-66268600D03*
%TD*%
%TO.P,TP67,1,1*%
%TO.N,GND*%
X205740000Y-146685000D03*
%TD*%
%TO.P,TP23,1,1*%
%TO.N,/IOB12B*%
X148552000Y-62992000D03*
%TD*%
%TO.P,TP5,1,1*%
%TO.N,/M0_D1N*%
X194272000Y-62992000D03*
%TD*%
D18*
%TO.P,REF\u002A\u002A,1*%
%TO.N,N/C*%
X125730000Y-152908000D03*
D17*
X125730000Y-152908000D03*
%TD*%
D16*
%TO.P,TP16,1,1*%
%TO.N,GND*%
X166319200Y-66268600D03*
%TD*%
%TO.P,TP95,1,1*%
%TO.N,/VCCIO6{slash}7*%
X167640000Y-150495000D03*
%TD*%
%TO.P,TP85,1,1*%
%TO.N,/IOB56A*%
X182880000Y-150495000D03*
%TD*%
%TO.P,TP7,1,1*%
%TO.N,GND*%
X189192000Y-62992000D03*
%TD*%
%TO.P,TP91,1,1*%
%TO.N,/DONE*%
X175260000Y-146685000D03*
%TD*%
%TO.P,TP2,1,1*%
%TO.N,/M0_D0N*%
X201879200Y-66268600D03*
%TD*%
D18*
%TO.P,REF\u002A\u002A,1*%
%TO.N,N/C*%
X209550000Y-60960000D03*
D17*
X209550000Y-60960000D03*
%TD*%
D16*
%TO.P,TP125,1,1*%
%TO.N,GND*%
X132080000Y-150495000D03*
%TD*%
D18*
%TO.P,REF\u002A\u002A,1*%
%TO.N,N/C*%
X209550000Y-152908000D03*
D17*
X209550000Y-152908000D03*
%TD*%
D16*
%TO.P,TP11,1,1*%
%TO.N,/M0_D2N*%
X179032000Y-62992000D03*
%TD*%
%TO.P,TP28,1,1*%
%TO.N,/IOB4B*%
X135839200Y-66268600D03*
%TD*%
%TO.P,TP15,1,1*%
%TO.N,/M0_D3P*%
X168872000Y-62992000D03*
%TD*%
%TO.P,TP121,1,1*%
%TO.N,/IOL12A*%
X137160000Y-150495000D03*
%TD*%
%TO.P,TP101,1,1*%
%TO.N,/IOT1B*%
X162560000Y-150495000D03*
%TD*%
%TO.P,TP9,1,1*%
%TO.N,/M0_CKP*%
X184112000Y-62992000D03*
%TD*%
%TO.P,TP8,1,1*%
%TO.N,/M0_CKN*%
X186639200Y-66268600D03*
%TD*%
%TO.P,TP107,1,1*%
%TO.N,/IOT7A*%
X154940000Y-146685000D03*
%TD*%
%TO.P,TP22,1,1*%
%TO.N,/IOB14B*%
X151079200Y-66268600D03*
%TD*%
%TO.P,TP29,1,1*%
%TO.N,/IOB4A*%
X133312000Y-62992000D03*
%TD*%
%TO.P,TP10,1,1*%
%TO.N,GND*%
X181559200Y-66268600D03*
%TD*%
%TO.P,TP66,1,1*%
%TO.N,Net-(J1-Pad62)*%
X210185000Y-142875000D03*
%TD*%
%TO.P,TP105,1,1*%
%TO.N,/IOT3B*%
X157480000Y-150495000D03*
%TD*%
%TO.P,TP30,1,1*%
%TO.N,GND*%
X130759200Y-66268600D03*
%TD*%
%TO.P,TP115,1,1*%
%TO.N,/IOL9B*%
X144780000Y-146685000D03*
%TD*%
%TO.P,TP27,1,1*%
%TO.N,/IOB26A*%
X138392000Y-62992000D03*
%TD*%
%TO.P,TP87,1,1*%
%TO.N,/IOB56B*%
X180340000Y-146685000D03*
%TD*%
%TO.P,TP113,1,1*%
%TO.N,/IOL9A*%
X147320000Y-150495000D03*
%TD*%
%TO.P,TP119,1,1*%
%TO.N,/IOL5B*%
X139700000Y-146685000D03*
%TD*%
%TO.P,TP75,1,1*%
%TO.N,/IOT56B*%
X195580000Y-146685000D03*
%TD*%
%TO.P,TP89,1,1*%
%TO.N,/IOB60A*%
X177800000Y-150495000D03*
%TD*%
%TO.P,TP109,1,1*%
%TO.N,/IOT7B*%
X152400000Y-150495000D03*
%TD*%
%TO.P,TP123,1,1*%
%TO.N,/IOL12B*%
X134620000Y-146685000D03*
%TD*%
%TO.P,TP63,1,1*%
%TO.N,GND*%
X209677000Y-70485000D03*
%TD*%
%TO.P,TP103,1,1*%
%TO.N,/IOT3A*%
X160020000Y-146685000D03*
%TD*%
%TO.P,TP128,1,1*%
%TO.N,Net-(J1-Pad63)*%
X125730000Y-142240000D03*
%TD*%
%TO.P,TP77,1,1*%
%TO.N,/IOT58A*%
X193040000Y-150495000D03*
%TD*%
%TO.P,TP25,1,1*%
%TO.N,/IOB24A*%
X143472000Y-62992000D03*
%TD*%
%TO.P,TP24,1,1*%
%TO.N,/RECONFIG*%
X145999200Y-66268600D03*
%TD*%
%TO.P,TP26,1,1*%
%TO.N,/IOB26B*%
X140919200Y-66268600D03*
%TD*%
%TO.P,TP3,1,1*%
%TO.N,/M0_D0P*%
X199352000Y-62992000D03*
%TD*%
%TO.P,TP61,1,1*%
%TO.N,GND*%
X125730000Y-70485000D03*
%TD*%
%TO.P,TP13,1,1*%
%TO.N,GND*%
X173952000Y-62992000D03*
%TD*%
%TO.P,TP71,1,1*%
%TO.N,/IOT31B*%
X200660000Y-146685000D03*
%TD*%
%TO.P,TP99,1,1*%
%TO.N,/IOT1A*%
X165100000Y-146685000D03*
%TD*%
D19*
%TO.P,J1,64,64*%
%TO.N,Net-(J1-Pad64)*%
X162333000Y-111620000D03*
%TO.P,J1,63,63*%
%TO.N,Net-(J1-Pad63)*%
X162333000Y-114330000D03*
%TO.P,J1,62,62*%
%TO.N,Net-(J1-Pad62)*%
X174883000Y-114330000D03*
%TO.P,J1,61,61*%
%TO.N,Net-(J1-Pad61)*%
X174883000Y-111620000D03*
D20*
%TO.P,J1,60,60*%
%TO.N,GND*%
X162808000Y-111620000D03*
%TO.P,J1,59,59*%
X162808000Y-114330000D03*
%TO.P,J1,58,58*%
%TO.N,/IOL14B*%
X163208000Y-111620000D03*
%TO.P,J1,57,57*%
%TO.N,/IOL12B*%
X163208000Y-114330000D03*
%TO.P,J1,56,56*%
%TO.N,/IOL14A*%
X163608000Y-111620000D03*
%TO.P,J1,55,55*%
%TO.N,/IOL12A*%
X163608000Y-114330000D03*
%TO.P,J1,54,54*%
%TO.N,/IOL3B*%
X164008000Y-111620000D03*
%TO.P,J1,53,53*%
%TO.N,/IOL5B*%
X164008000Y-114330000D03*
%TO.P,J1,52,52*%
%TO.N,/IOL3A*%
X164408000Y-111620000D03*
%TO.P,J1,51,51*%
%TO.N,/IOL5A*%
X164408000Y-114330000D03*
%TO.P,J1,50,50*%
%TO.N,GND*%
X164808000Y-111620000D03*
%TO.P,J1,49,49*%
%TO.N,/IOL9B*%
X164808000Y-114330000D03*
%TO.P,J1,48,48*%
%TO.N,/IOT11B*%
X165208000Y-111620000D03*
%TO.P,J1,47,47*%
%TO.N,/IOL9A*%
X165208000Y-114330000D03*
%TO.P,J1,46,46*%
%TO.N,/IOT11A*%
X165608000Y-111620000D03*
%TO.P,J1,45,45*%
%TO.N,GND*%
X165608000Y-114330000D03*
%TO.P,J1,44,44*%
%TO.N,/IOT15B*%
X166008000Y-111620000D03*
%TO.P,J1,43,43*%
%TO.N,/IOT7B*%
X166008000Y-114330000D03*
%TO.P,J1,42,42*%
%TO.N,/IOT15A*%
X166408000Y-111620000D03*
%TO.P,J1,41,41*%
%TO.N,/IOT7A*%
X166408000Y-114330000D03*
%TO.P,J1,40,40*%
%TO.N,/IOT19B*%
X166808000Y-111620000D03*
%TO.P,J1,39,39*%
%TO.N,/IOT3B*%
X166808000Y-114330000D03*
%TO.P,J1,38,38*%
%TO.N,/IOT19A*%
X167208000Y-111620000D03*
%TO.P,J1,37,37*%
%TO.N,/IOT3A*%
X167208000Y-114330000D03*
%TO.P,J1,36,36*%
%TO.N,/IOT21B*%
X167608000Y-111620000D03*
%TO.P,J1,35,35*%
%TO.N,/IOT1B*%
X167608000Y-114330000D03*
%TO.P,J1,34,34*%
%TO.N,/IOT21A*%
X168008000Y-111620000D03*
%TO.P,J1,33,33*%
%TO.N,/IOT1A*%
X168008000Y-114330000D03*
%TO.P,J1,32,32*%
%TO.N,/IOT23B*%
X168408000Y-111620000D03*
%TO.P,J1,31,31*%
%TO.N,/VCCIO6{slash}7*%
X168408000Y-114330000D03*
%TO.P,J1,30,30*%
%TO.N,/IOT23A*%
X168808000Y-111620000D03*
%TO.P,J1,29,29*%
%TO.N,/VCCIO6{slash}7*%
X168808000Y-114330000D03*
%TO.P,J1,28,28*%
%TO.N,GND*%
X169208000Y-111620000D03*
%TO.P,J1,27,27*%
X169208000Y-114330000D03*
%TO.P,J1,26,26*%
%TO.N,/VCCIO0{slash}1*%
X169608000Y-111620000D03*
%TO.P,J1,25,25*%
%TO.N,/DONE*%
X169608000Y-114330000D03*
%TO.P,J1,24,24*%
%TO.N,/VCCIO0{slash}1*%
X170008000Y-111620000D03*
%TO.P,J1,23,23*%
%TO.N,/IOB60A*%
X170008000Y-114330000D03*
%TO.P,J1,22,22*%
%TO.N,/IOT72B*%
X170408000Y-111620000D03*
%TO.P,J1,21,21*%
%TO.N,/IOB56B*%
X170408000Y-114330000D03*
%TO.P,J1,20,20*%
%TO.N,/IOT72A*%
X170808000Y-111620000D03*
%TO.P,J1,19,19*%
%TO.N,/IOB56A*%
X170808000Y-114330000D03*
%TO.P,J1,18,18*%
%TO.N,/IOT68B*%
X171208000Y-111620000D03*
%TO.P,J1,17,17*%
%TO.N,/READY*%
X171208000Y-114330000D03*
%TO.P,J1,16,16*%
%TO.N,/IOT68A*%
X171608000Y-111620000D03*
%TO.P,J1,15,15*%
%TO.N,GND*%
X171608000Y-114330000D03*
%TO.P,J1,14,14*%
%TO.N,/IOT66B*%
X172008000Y-111620000D03*
%TO.P,J1,13,13*%
%TO.N,/IOT58B*%
X172008000Y-114330000D03*
%TO.P,J1,12,12*%
%TO.N,/IOT66A*%
X172408000Y-111620000D03*
%TO.P,J1,11,11*%
%TO.N,/IOT58A*%
X172408000Y-114330000D03*
%TO.P,J1,10,10*%
%TO.N,/IOT63B*%
X172808000Y-111620000D03*
%TO.P,J1,9,9*%
%TO.N,/IOT56B*%
X172808000Y-114330000D03*
%TO.P,J1,8,8*%
%TO.N,/IOT63A*%
X173208000Y-111620000D03*
%TO.P,J1,7,7*%
%TO.N,/IOT56A*%
X173208000Y-114330000D03*
%TO.P,J1,6,6*%
%TO.N,/IOT61B*%
X173608000Y-111620000D03*
%TO.P,J1,5,5*%
%TO.N,/IOT31B*%
X173608000Y-114330000D03*
%TO.P,J1,4,4*%
%TO.N,/IOT61A*%
X174008000Y-111620000D03*
%TO.P,J1,3,3*%
%TO.N,/IOT31A*%
X174008000Y-114330000D03*
%TO.P,J1,2,2*%
%TO.N,GND*%
X174408000Y-111620000D03*
%TO.P,J1,1,1*%
X174408000Y-114330000D03*
%TD*%
D19*
%TO.P,J2,64,64*%
%TO.N,GND*%
X174801000Y-100330000D03*
%TO.P,J2,63,63*%
X174801000Y-97620000D03*
%TO.P,J2,62,62*%
X162251000Y-97620000D03*
%TO.P,J2,61,61*%
X162251000Y-100330000D03*
D20*
%TO.P,J2,60,60*%
%TO.N,+5V*%
X174326000Y-100330000D03*
%TO.P,J2,59,59*%
%TO.N,GND*%
X174326000Y-97620000D03*
%TO.P,J2,58,58*%
%TO.N,+5V*%
X173926000Y-100330000D03*
%TO.P,J2,57,57*%
%TO.N,/M0_D0N*%
X173926000Y-97620000D03*
%TO.P,J2,56,56*%
%TO.N,+5V*%
X173526000Y-100330000D03*
%TO.P,J2,55,55*%
%TO.N,/M0_D0P*%
X173526000Y-97620000D03*
%TO.P,J2,54,54*%
%TO.N,+5V*%
X173126000Y-100330000D03*
%TO.P,J2,53,53*%
%TO.N,GND*%
X173126000Y-97620000D03*
%TO.P,J2,52,52*%
%TO.N,+5V*%
X172726000Y-100330000D03*
%TO.P,J2,51,51*%
%TO.N,/M0_D1N*%
X172726000Y-97620000D03*
%TO.P,J2,50,50*%
%TO.N,+3V3*%
X172326000Y-100330000D03*
%TO.P,J2,49,49*%
%TO.N,/M0_D1P*%
X172326000Y-97620000D03*
%TO.P,J2,48,48*%
%TO.N,+3V3*%
X171926000Y-100330000D03*
%TO.P,J2,47,47*%
%TO.N,GND*%
X171926000Y-97620000D03*
%TO.P,J2,46,46*%
%TO.N,+3V3*%
X171526000Y-100330000D03*
%TO.P,J2,45,45*%
%TO.N,/M0_CKN*%
X171526000Y-97620000D03*
%TO.P,J2,44,44*%
%TO.N,+2V5*%
X171126000Y-100330000D03*
%TO.P,J2,43,43*%
%TO.N,/M0_CKP*%
X171126000Y-97620000D03*
%TO.P,J2,42,42*%
%TO.N,+2V5*%
X170726000Y-100330000D03*
%TO.P,J2,41,41*%
%TO.N,GND*%
X170726000Y-97620000D03*
%TO.P,J2,40,40*%
%TO.N,/VDD_1V8*%
X170326000Y-100330000D03*
%TO.P,J2,39,39*%
%TO.N,/M0_D2N*%
X170326000Y-97620000D03*
%TO.P,J2,38,38*%
%TO.N,/VDD_1V8*%
X169926000Y-100330000D03*
%TO.P,J2,37,37*%
%TO.N,/M0_D2P*%
X169926000Y-97620000D03*
%TO.P,J2,36,36*%
%TO.N,/IOB91B*%
X169526000Y-100330000D03*
%TO.P,J2,35,35*%
%TO.N,GND*%
X169526000Y-97620000D03*
%TO.P,J2,34,34*%
%TO.N,/IOB91A*%
X169126000Y-100330000D03*
%TO.P,J2,33,33*%
%TO.N,/M0_D3N*%
X169126000Y-97620000D03*
%TO.P,J2,32,32*%
%TO.N,/IOB89B*%
X168726000Y-100330000D03*
%TO.P,J2,31,31*%
%TO.N,/M0_D3P*%
X168726000Y-97620000D03*
%TO.P,J2,30,30*%
%TO.N,/IOB89A*%
X168326000Y-100330000D03*
%TO.P,J2,29,29*%
%TO.N,GND*%
X168326000Y-97620000D03*
%TO.P,J2,28,28*%
%TO.N,/IOR33B*%
X167926000Y-100330000D03*
%TO.P,J2,27,27*%
%TO.N,/TDI*%
X167926000Y-97620000D03*
%TO.P,J2,26,26*%
%TO.N,/IOR33A*%
X167526000Y-100330000D03*
%TO.P,J2,25,25*%
%TO.N,/TDO*%
X167526000Y-97620000D03*
%TO.P,J2,24,24*%
%TO.N,/IOR31B*%
X167126000Y-100330000D03*
%TO.P,J2,23,23*%
%TO.N,/TMS*%
X167126000Y-97620000D03*
%TO.P,J2,22,22*%
%TO.N,/IOR31A*%
X166726000Y-100330000D03*
%TO.P,J2,21,21*%
%TO.N,/TCK*%
X166726000Y-97620000D03*
%TO.P,J2,20,20*%
%TO.N,/IOR24B*%
X166326000Y-100330000D03*
%TO.P,J2,19,19*%
%TO.N,GND*%
X166326000Y-97620000D03*
%TO.P,J2,18,18*%
%TO.N,/IOR24A*%
X165926000Y-100330000D03*
%TO.P,J2,17,17*%
%TO.N,/IOB14B*%
X165926000Y-97620000D03*
%TO.P,J2,16,16*%
%TO.N,/IOR22B*%
X165526000Y-100330000D03*
%TO.P,J2,15,15*%
%TO.N,/IOB12B*%
X165526000Y-97620000D03*
%TO.P,J2,14,14*%
%TO.N,/IOR22A*%
X165126000Y-100330000D03*
%TO.P,J2,13,13*%
%TO.N,/RECONFIG*%
X165126000Y-97620000D03*
%TO.P,J2,12,12*%
%TO.N,/IOR20B*%
X164726000Y-100330000D03*
%TO.P,J2,11,11*%
%TO.N,/IOB24A*%
X164726000Y-97620000D03*
%TO.P,J2,10,10*%
%TO.N,/IOR20A*%
X164326000Y-100330000D03*
%TO.P,J2,9,9*%
%TO.N,/IOB26B*%
X164326000Y-97620000D03*
%TO.P,J2,8,8*%
%TO.N,/IOR18B*%
X163926000Y-100330000D03*
%TO.P,J2,7,7*%
%TO.N,/IOB26A*%
X163926000Y-97620000D03*
%TO.P,J2,6,6*%
%TO.N,/IOR18A*%
X163526000Y-100330000D03*
%TO.P,J2,5,5*%
%TO.N,/IOB4B*%
X163526000Y-97620000D03*
%TO.P,J2,4,4*%
%TO.N,/VCCIO2{slash}3*%
X163126000Y-100330000D03*
%TO.P,J2,3,3*%
%TO.N,/IOB4A*%
X163126000Y-97620000D03*
%TO.P,J2,2,2*%
%TO.N,/VCCIO2{slash}3*%
X162726000Y-100330000D03*
%TO.P,J2,1,1*%
%TO.N,GND*%
X162726000Y-97620000D03*
%TD*%
D21*
%TO.N,GND*%
X129032000Y-131318000D03*
X144780000Y-119126000D03*
D22*
X183642000Y-96901000D03*
D23*
%TO.N,/VCCIO2{slash}3*%
X130810000Y-95123000D03*
%TO.N,/IOR18A*%
X135890000Y-96393000D03*
%TO.N,/IOR18B*%
X138430000Y-93091000D03*
%TO.N,/IOR20A*%
X140970000Y-97663000D03*
%TO.N,/IOR20B*%
X143510000Y-98425000D03*
%TO.N,/IOR22A*%
X146050000Y-99187000D03*
%TO.N,/IOR22B*%
X148590000Y-99949000D03*
%TO.N,/IOR24A*%
X151130000Y-101981000D03*
%TO.N,/IOR24B*%
X151130000Y-103505000D03*
D21*
%TO.N,/IOR31A*%
X156210000Y-105664000D03*
%TO.N,/IOR31B*%
X158750000Y-106172000D03*
%TO.N,/IOR33A*%
X167132000Y-105156000D03*
%TO.N,/IOR33B*%
X168402000Y-104521000D03*
%TO.N,/IOB89A*%
X169672000Y-105029000D03*
%TO.N,/IOB89B*%
X171069000Y-105283000D03*
%TO.N,/IOB91A*%
X189230000Y-105537000D03*
%TO.N,/IOB91B*%
X187198000Y-104013000D03*
D22*
%TO.N,/VDD_1V8*%
X190754000Y-102997000D03*
%TO.N,+2V5*%
X187706000Y-101219000D03*
D21*
%TO.N,Net-(J1-Pad64)*%
X125730000Y-123698000D03*
%TO.N,Net-(J1-Pad61)*%
X210185000Y-116738400D03*
%TO.N,/IOT61A*%
X194665600Y-108432600D03*
%TO.N,/IOT61B*%
X200609200Y-117729000D03*
%TO.N,GND*%
X156464000Y-107950000D03*
X201980800Y-110007400D03*
D23*
X125730000Y-91948000D03*
D21*
X132080000Y-116840000D03*
%TO.N,/IOT63A*%
X187655200Y-107213400D03*
%TO.N,/IOT63B*%
X182372000Y-106146600D03*
%TO.N,/IOT66A*%
X173431200Y-105587800D03*
%TO.N,/IOT66B*%
X190500000Y-120523000D03*
%TO.N,/IOT68A*%
X171602400Y-106553000D03*
%TO.N,/IOT68B*%
X170383200Y-107721400D03*
%TO.N,/IOT72A*%
X169976800Y-108940600D03*
%TO.N,/IOT72B*%
X169875200Y-110413800D03*
%TO.N,/VCCIO0{slash}1*%
X170281600Y-112953800D03*
%TO.N,/IOT23A*%
X169824400Y-106553000D03*
%TO.N,/IOT23B*%
X168402000Y-105994200D03*
%TO.N,/IOT21A*%
X167386000Y-112953800D03*
%TO.N,/IOT21B*%
X167477361Y-107223405D03*
%TO.N,/IOT19A*%
X166319200Y-106502200D03*
%TO.N,/IOT19B*%
X164896800Y-112953800D03*
%TO.N,/IOT15A*%
X164947600Y-106959400D03*
%TO.N,/IOT15B*%
X163220400Y-107061000D03*
%TO.N,/IOT11A*%
X161137600Y-107111800D03*
%TO.N,/IOT11B*%
X159156400Y-107975400D03*
%TO.N,/IOL3A*%
X151892000Y-108204000D03*
%TO.N,/IOL3B*%
X139700000Y-119634000D03*
%TO.N,/IOL14A*%
X146050000Y-109728000D03*
%TO.N,/IOL14B*%
X134620000Y-119634000D03*
%TD*%
D24*
%TO.N,GND*%
X129667000Y-74422000D02*
X125730000Y-70485000D01*
X138811000Y-74422000D02*
X129667000Y-74422000D01*
X162009000Y-97620000D02*
X138811000Y-74422000D01*
X162251000Y-97620000D02*
X162009000Y-97620000D01*
%TO.N,Net-(J1-Pad64)*%
X146050000Y-114300000D02*
X148730000Y-111620000D01*
X148730000Y-111620000D02*
X162333000Y-111620000D01*
X137414000Y-114300000D02*
X146050000Y-114300000D01*
X128016000Y-123698000D02*
X137414000Y-114300000D01*
X125730000Y-123698000D02*
X128016000Y-123698000D01*
%TO.N,/IOL14B*%
X162774000Y-112649000D02*
X163208000Y-112215000D01*
X150241000Y-112649000D02*
X162774000Y-112649000D01*
X147066000Y-115824000D02*
X150241000Y-112649000D01*
X138430000Y-115824000D02*
X147066000Y-115824000D01*
X134620000Y-119634000D02*
X138430000Y-115824000D01*
X163208000Y-112215000D02*
X163208000Y-111620000D01*
%TO.N,GND*%
X147142200Y-110921800D02*
X162689800Y-110921800D01*
X145288000Y-112776000D02*
X147142200Y-110921800D01*
X136144000Y-112776000D02*
X145288000Y-112776000D01*
X132080000Y-116840000D02*
X136144000Y-112776000D01*
%TO.N,/IOL3B*%
X164008000Y-112394800D02*
X164008000Y-111620000D01*
X148310600Y-117119400D02*
X152120600Y-113309400D01*
X163093400Y-113309400D02*
X164008000Y-112394800D01*
X142214600Y-117119400D02*
X148310600Y-117119400D01*
X139700000Y-119634000D02*
X142214600Y-117119400D01*
X152120600Y-113309400D02*
X163093400Y-113309400D01*
%TO.N,GND*%
X132588000Y-131318000D02*
X129032000Y-131318000D01*
X144780000Y-119126000D02*
X132588000Y-131318000D01*
%TO.N,/IOL14A*%
X163608000Y-110649000D02*
X163608000Y-111620000D01*
X163322000Y-110363000D02*
X163608000Y-110649000D01*
X154533600Y-110363000D02*
X163322000Y-110363000D01*
X146075400Y-109702600D02*
X153873200Y-109702600D01*
X146050000Y-109728000D02*
X146075400Y-109702600D01*
X153873200Y-109702600D02*
X154533600Y-110363000D01*
D25*
%TO.N,GND*%
X158877000Y-100330000D02*
X162251000Y-100330000D01*
X153416000Y-94869000D02*
X158877000Y-100330000D01*
X138176000Y-94869000D02*
X153416000Y-94869000D01*
X127127000Y-93345000D02*
X136652000Y-93345000D01*
X125730000Y-91948000D02*
X127127000Y-93345000D01*
X136652000Y-93345000D02*
X138176000Y-94869000D01*
X185891000Y-59436000D02*
X187452000Y-59436000D01*
X184441000Y-59436000D02*
X182499000Y-59436000D01*
X180467000Y-59436000D02*
X181483000Y-60452000D01*
X181483000Y-60452000D02*
X181559200Y-60528200D01*
X182499000Y-59436000D02*
X181483000Y-60452000D01*
X181559200Y-60528200D02*
X181559200Y-66268600D01*
X178742000Y-59436000D02*
X180467000Y-59436000D01*
X175768000Y-59436000D02*
X177292000Y-59436000D01*
X190932000Y-59436000D02*
X191934000Y-59436000D01*
X198399400Y-59436000D02*
X196799200Y-61036200D01*
X200316000Y-59436000D02*
X198399400Y-59436000D01*
X196799200Y-61036200D02*
X196799200Y-66268600D01*
X193384000Y-59436000D02*
X195199000Y-59436000D01*
X195199000Y-59436000D02*
X196799200Y-61036200D01*
X201766000Y-59436000D02*
X203200000Y-59436000D01*
D24*
X164808000Y-109867800D02*
X164808000Y-111620000D01*
X156464000Y-107950000D02*
X157759400Y-109245400D01*
X157759400Y-109245400D02*
X164185600Y-109245400D01*
X164185600Y-109245400D02*
X164808000Y-109867800D01*
%TO.N,/IOL3A*%
X163982400Y-109804200D02*
X164408000Y-110229800D01*
X155778200Y-109804200D02*
X163982400Y-109804200D01*
X154178000Y-108204000D02*
X155778200Y-109804200D01*
X151892000Y-108204000D02*
X154178000Y-108204000D01*
X164408000Y-110229800D02*
X164408000Y-111620000D01*
D25*
%TO.N,GND*%
X140425000Y-154686000D02*
X148336000Y-154686000D01*
X148336000Y-154686000D02*
X149860000Y-153162000D01*
X149860000Y-153162000D02*
X149860000Y-146685000D01*
X151384000Y-154686000D02*
X149860000Y-153162000D01*
X159840000Y-154686000D02*
X151384000Y-154686000D01*
X161290000Y-154686000D02*
X171450000Y-154686000D01*
X132080000Y-153670000D02*
X132080000Y-150495000D01*
X133096000Y-154686000D02*
X132080000Y-153670000D01*
X138975000Y-154686000D02*
X133096000Y-154686000D01*
X171450000Y-154686000D02*
X172720000Y-153416000D01*
X172720000Y-153416000D02*
X172720000Y-150495000D01*
X173990000Y-154686000D02*
X172720000Y-153416000D01*
X179615000Y-154686000D02*
X173990000Y-154686000D01*
X181065000Y-154686000D02*
X186690000Y-154686000D01*
X186690000Y-154686000D02*
X187960000Y-153416000D01*
X187960000Y-153416000D02*
X187960000Y-150495000D01*
X189230000Y-154686000D02*
X187960000Y-153416000D01*
X197141000Y-154686000D02*
X189230000Y-154686000D01*
X205740000Y-153416000D02*
X205740000Y-146685000D01*
X204470000Y-154686000D02*
X205740000Y-153416000D01*
X198591000Y-154686000D02*
X204470000Y-154686000D01*
X132080000Y-59436000D02*
X136472000Y-59436000D01*
X130759200Y-60756800D02*
X132080000Y-59436000D01*
X130759200Y-66268600D02*
X130759200Y-60756800D01*
X153454000Y-60998000D02*
X153632000Y-60998000D01*
X151892000Y-59436000D02*
X153454000Y-60998000D01*
X137922000Y-59436000D02*
X151892000Y-59436000D01*
X165100000Y-59436000D02*
X166370000Y-60706000D01*
X166319200Y-60756800D02*
X166370000Y-60706000D01*
X160020000Y-59436000D02*
X165100000Y-59436000D01*
X166370000Y-60706000D02*
X167640000Y-59436000D01*
X155194000Y-59436000D02*
X158570000Y-59436000D01*
X153632000Y-60998000D02*
X155194000Y-59436000D01*
X153632000Y-62992000D02*
X153632000Y-60998000D01*
X172212000Y-59436000D02*
X170180000Y-59436000D01*
X173990000Y-61214000D02*
X172212000Y-59436000D01*
X173990000Y-61214000D02*
X175768000Y-59436000D01*
X173952000Y-61252000D02*
X173990000Y-61214000D01*
X167640000Y-59436000D02*
X168730000Y-59436000D01*
X166319200Y-66268600D02*
X166319200Y-60756800D01*
X204432000Y-60668000D02*
X204432000Y-62992000D01*
X203200000Y-59436000D02*
X204432000Y-60668000D01*
X189192000Y-61176000D02*
X190932000Y-59436000D01*
X187452000Y-59436000D02*
X189192000Y-61176000D01*
X189192000Y-61176000D02*
X189192000Y-62992000D01*
X173952000Y-62992000D02*
X173952000Y-61252000D01*
X205105000Y-68162000D02*
X205105000Y-70485000D01*
X205105000Y-70485000D02*
X209677000Y-70485000D01*
X202692000Y-70485000D02*
X205105000Y-70485000D01*
D26*
%TO.N,+5V*%
X201930000Y-91567000D02*
X201930000Y-90297000D01*
X175006000Y-101727000D02*
X179324000Y-101727000D01*
X173609000Y-100330000D02*
X175006000Y-101727000D01*
X179324000Y-101727000D02*
X182118000Y-98933000D01*
X194564000Y-98933000D02*
X201930000Y-91567000D01*
X173526000Y-100330000D02*
X173609000Y-100330000D01*
X182118000Y-98933000D02*
X194564000Y-98933000D01*
D25*
%TO.N,GND*%
X183642000Y-96901000D02*
X181610000Y-96901000D01*
D26*
%TO.N,+3V3*%
X185674000Y-90297000D02*
X191770000Y-90297000D01*
X177038000Y-98933000D02*
X185674000Y-90297000D01*
X171926000Y-99473000D02*
X172466000Y-98933000D01*
X172466000Y-98933000D02*
X177038000Y-98933000D01*
X171926000Y-100330000D02*
X171926000Y-99473000D01*
D24*
%TO.N,/VDD_1V8*%
X169926000Y-101092000D02*
X169926000Y-100330000D01*
X182880000Y-103505000D02*
X172339000Y-103505000D01*
X172339000Y-103505000D02*
X169926000Y-101092000D01*
X183388000Y-102997000D02*
X182880000Y-103505000D01*
D27*
X190754000Y-102997000D02*
X183388000Y-102997000D01*
D24*
%TO.N,/IOB91A*%
X169126000Y-102133500D02*
X169126000Y-100330000D01*
X171513500Y-104521000D02*
X169126000Y-102133500D01*
X183642000Y-104521000D02*
X171513500Y-104521000D01*
X184658000Y-105537000D02*
X183642000Y-104521000D01*
X189230000Y-105537000D02*
X184658000Y-105537000D01*
%TO.N,/IOB91B*%
X169526000Y-101581000D02*
X169526000Y-100330000D01*
X171958000Y-104013000D02*
X169526000Y-101581000D01*
X187198000Y-104013000D02*
X171958000Y-104013000D01*
D28*
%TO.N,+2V5*%
X170942000Y-101219000D02*
X170942000Y-100330000D01*
X180721000Y-102870000D02*
X172593000Y-102870000D01*
X172593000Y-102870000D02*
X170942000Y-101219000D01*
X182372000Y-101219000D02*
X180721000Y-102870000D01*
X187706000Y-101219000D02*
X182372000Y-101219000D01*
D24*
%TO.N,/VCCIO2{slash}3*%
X152654000Y-95631000D02*
X158242000Y-101219000D01*
X158242000Y-101219000D02*
X162560000Y-101219000D01*
X162726000Y-101053000D02*
X162726000Y-100330000D01*
X137414000Y-95631000D02*
X152654000Y-95631000D01*
X136906000Y-95123000D02*
X137414000Y-95631000D01*
X162560000Y-101219000D02*
X162726000Y-101053000D01*
X130810000Y-95123000D02*
X136906000Y-95123000D01*
X163126000Y-100330000D02*
X162726000Y-100330000D01*
%TO.N,/IOB4A*%
X139700000Y-73025000D02*
X134620000Y-73025000D01*
X133312000Y-71717000D02*
X133312000Y-62992000D01*
X163126000Y-96451000D02*
X139700000Y-73025000D01*
X134620000Y-73025000D02*
X133312000Y-71717000D01*
X163126000Y-97620000D02*
X163126000Y-96451000D01*
%TO.N,/IOB4B*%
X163526000Y-95581000D02*
X140335000Y-72390000D01*
X135839200Y-71069200D02*
X135839200Y-66268600D01*
X163526000Y-97620000D02*
X163526000Y-95581000D01*
X137160000Y-72390000D02*
X135839200Y-71069200D01*
X140335000Y-72390000D02*
X137160000Y-72390000D01*
%TO.N,/IOR18A*%
X135890000Y-96393000D02*
X152146000Y-96393000D01*
X162941000Y-101727000D02*
X163526000Y-101142000D01*
X163526000Y-101142000D02*
X163526000Y-100330000D01*
X152146000Y-96393000D02*
X157480000Y-101727000D01*
X157480000Y-101727000D02*
X162941000Y-101727000D01*
%TO.N,/IOB26A*%
X163926000Y-94711000D02*
X140970000Y-71755000D01*
X139700000Y-71755000D02*
X138392000Y-70447000D01*
X163926000Y-97620000D02*
X163926000Y-94711000D01*
X140970000Y-71755000D02*
X139700000Y-71755000D01*
X138392000Y-70447000D02*
X138392000Y-62992000D01*
%TO.N,/IOR18B*%
X163926000Y-99410000D02*
X163926000Y-100330000D01*
X158877000Y-98806000D02*
X163322000Y-98806000D01*
X138938000Y-93599000D02*
X153670000Y-93599000D01*
X138430000Y-93091000D02*
X138938000Y-93599000D01*
X163322000Y-98806000D02*
X163926000Y-99410000D01*
X153670000Y-93599000D02*
X158877000Y-98806000D01*
%TO.N,/IOB26B*%
X164326000Y-97620000D02*
X164326000Y-93841000D01*
X140919200Y-70434200D02*
X140919200Y-66268600D01*
X164326000Y-93841000D02*
X140919200Y-70434200D01*
%TO.N,/IOR20A*%
X164326000Y-101167500D02*
X164326000Y-100330000D01*
X151638000Y-97155000D02*
X156718000Y-102235000D01*
X163258500Y-102235000D02*
X164326000Y-101167500D01*
X140970000Y-97663000D02*
X141478000Y-97155000D01*
X141478000Y-97155000D02*
X151638000Y-97155000D01*
X156718000Y-102235000D02*
X163258500Y-102235000D01*
%TO.N,/IOB24A*%
X164726000Y-92971000D02*
X143472000Y-71717000D01*
X164726000Y-97620000D02*
X164726000Y-92971000D01*
X143472000Y-71717000D02*
X143472000Y-62992000D01*
%TO.N,/IOR20B*%
X151130000Y-97917000D02*
X155956000Y-102743000D01*
X164726000Y-101593000D02*
X164726000Y-100330000D01*
X163576000Y-102743000D02*
X164726000Y-101593000D01*
X144018000Y-97917000D02*
X151130000Y-97917000D01*
X155956000Y-102743000D02*
X163576000Y-102743000D01*
X143510000Y-98425000D02*
X144018000Y-97917000D01*
%TO.N,/RECONFIG*%
X165126000Y-97620000D02*
X165126000Y-92101000D01*
X165126000Y-92101000D02*
X145999200Y-72974200D01*
X145999200Y-72974200D02*
X145999200Y-66268600D01*
%TO.N,/IOR22A*%
X165126000Y-101955000D02*
X165126000Y-100330000D01*
X146050000Y-99187000D02*
X146558000Y-98679000D01*
X146558000Y-98679000D02*
X150622000Y-98679000D01*
X163830000Y-103251000D02*
X165126000Y-101955000D01*
X155194000Y-103251000D02*
X163830000Y-103251000D01*
X150622000Y-98679000D02*
X155194000Y-103251000D01*
%TO.N,/IOB12B*%
X165526000Y-91231000D02*
X148552000Y-74257000D01*
X148552000Y-74257000D02*
X148552000Y-62992000D01*
X165526000Y-97620000D02*
X165526000Y-91231000D01*
%TO.N,/IOR22B*%
X164211000Y-103759000D02*
X165526000Y-102444000D01*
X165526000Y-102444000D02*
X165526000Y-100330000D01*
X154432000Y-103759000D02*
X164211000Y-103759000D01*
X150368000Y-99695000D02*
X154432000Y-103759000D01*
X148590000Y-99949000D02*
X148844000Y-99695000D01*
X148844000Y-99695000D02*
X150368000Y-99695000D01*
%TO.N,/IOB14B*%
X165926000Y-90361000D02*
X151079200Y-75514200D01*
X151079200Y-75514200D02*
X151079200Y-66268600D01*
X165926000Y-97620000D02*
X165926000Y-90361000D01*
%TO.N,/IOR24A*%
X164465000Y-104267000D02*
X165926000Y-102806000D01*
X151130000Y-101981000D02*
X151384000Y-101981000D01*
X153670000Y-104267000D02*
X164465000Y-104267000D01*
X151384000Y-101981000D02*
X153670000Y-104267000D01*
X165926000Y-102806000D02*
X165926000Y-100330000D01*
%TO.N,/IOR24B*%
X152908000Y-104775000D02*
X164719000Y-104775000D01*
X166326000Y-103168000D02*
X166326000Y-100330000D01*
X151130000Y-103505000D02*
X151638000Y-103505000D01*
X164719000Y-104775000D02*
X166326000Y-103168000D01*
X151638000Y-103505000D02*
X152908000Y-104775000D01*
%TO.N,/TCK*%
X166726000Y-88621000D02*
X156159200Y-78054200D01*
X166726000Y-97620000D02*
X166726000Y-88621000D01*
X156159200Y-78054200D02*
X156159200Y-66268600D01*
%TO.N,/IOR31A*%
X156210000Y-105664000D02*
X156591000Y-105283000D01*
X156591000Y-105283000D02*
X164973000Y-105283000D01*
X166726000Y-103530000D02*
X166726000Y-100330000D01*
X164973000Y-105283000D02*
X166726000Y-103530000D01*
%TO.N,/TMS*%
X158712000Y-79337000D02*
X158712000Y-62992000D01*
X167126000Y-97620000D02*
X167126000Y-87751000D01*
X167126000Y-87751000D02*
X158712000Y-79337000D01*
%TO.N,/IOR31B*%
X167126000Y-103892000D02*
X167126000Y-100330000D01*
X165227000Y-105791000D02*
X167126000Y-103892000D01*
X158750000Y-106172000D02*
X159131000Y-105791000D01*
X159131000Y-105791000D02*
X165227000Y-105791000D01*
%TO.N,/TDO*%
X167526000Y-86881000D02*
X161239200Y-80594200D01*
X161239200Y-80594200D02*
X161239200Y-66268600D01*
X167526000Y-97620000D02*
X167526000Y-86881000D01*
%TO.N,/IOR33A*%
X167526000Y-104762000D02*
X167526000Y-100330000D01*
X167132000Y-105156000D02*
X167526000Y-104762000D01*
%TO.N,/TDI*%
X167926000Y-86011000D02*
X163792000Y-81877000D01*
X167926000Y-97620000D02*
X167926000Y-86011000D01*
X163792000Y-81877000D02*
X163792000Y-62992000D01*
%TO.N,/IOR33B*%
X168402000Y-104521000D02*
X168402000Y-104267000D01*
X167926000Y-103791000D02*
X167926000Y-100330000D01*
X168402000Y-104267000D02*
X167926000Y-103791000D01*
%TO.N,/IOB89A*%
X169672000Y-104521000D02*
X168326000Y-103175000D01*
X168326000Y-103175000D02*
X168326000Y-100330000D01*
X169672000Y-105029000D02*
X169672000Y-104521000D01*
%TO.N,/M0_D3P*%
X168726000Y-63138000D02*
X168872000Y-62992000D01*
X168726000Y-97620000D02*
X168726000Y-63138000D01*
%TO.N,/IOB89B*%
X171069000Y-105029000D02*
X168726000Y-102686000D01*
X168726000Y-102686000D02*
X168726000Y-100330000D01*
X171069000Y-105283000D02*
X171069000Y-105029000D01*
%TO.N,/M0_D3N*%
X171399200Y-82918300D02*
X171399200Y-66268600D01*
X169126000Y-97620000D02*
X169126000Y-85191500D01*
X169126000Y-85191500D02*
X171399200Y-82918300D01*
%TO.N,/M0_D2P*%
X176479200Y-80314800D02*
X176479200Y-66268600D01*
X169926000Y-86868000D02*
X176479200Y-80314800D01*
X169926000Y-97620000D02*
X169926000Y-86868000D01*
%TO.N,/VDD_1V8*%
X170326000Y-100330000D02*
X169926000Y-100330000D01*
%TO.N,/M0_D2N*%
X170326000Y-97620000D02*
X170326000Y-87865000D01*
X179032000Y-79159000D02*
X179032000Y-62992000D01*
X170326000Y-87865000D02*
X179032000Y-79159000D01*
%TO.N,+2V5*%
X170726000Y-100330000D02*
X171126000Y-100330000D01*
%TO.N,/M0_CKP*%
X184112000Y-77508000D02*
X184112000Y-62992000D01*
X171126000Y-97620000D02*
X171126000Y-90494000D01*
X171126000Y-90494000D02*
X184112000Y-77508000D01*
%TO.N,/M0_CKN*%
X171526000Y-91364000D02*
X186639200Y-76250800D01*
X186639200Y-76250800D02*
X186639200Y-66268600D01*
X171526000Y-97620000D02*
X171526000Y-91364000D01*
%TO.N,+3V3*%
X171958000Y-100362000D02*
X171926000Y-100330000D01*
D27*
X171526000Y-100330000D02*
X172326000Y-100330000D01*
D24*
%TO.N,/M0_D1P*%
X172326000Y-93104000D02*
X191719200Y-73710800D01*
X172326000Y-97620000D02*
X172326000Y-93104000D01*
X191719200Y-73710800D02*
X191719200Y-66268600D01*
%TO.N,/M0_D1N*%
X172726000Y-97620000D02*
X172726000Y-93974000D01*
X194272000Y-72428000D02*
X194272000Y-62992000D01*
X172726000Y-93974000D02*
X194272000Y-72428000D01*
D27*
%TO.N,+5V*%
X172726000Y-100330000D02*
X174326000Y-100330000D01*
D24*
%TO.N,/M0_D0P*%
X173526000Y-97620000D02*
X173526000Y-95587000D01*
X173526000Y-95587000D02*
X199352000Y-69761000D01*
X199352000Y-69761000D02*
X199352000Y-62992000D01*
%TO.N,/M0_D0N*%
X173926000Y-97620000D02*
X173926000Y-96330000D01*
X173926000Y-96330000D02*
X201879200Y-68376800D01*
X201879200Y-68376800D02*
X201879200Y-66268600D01*
%TO.N,/IOT31A*%
X174008000Y-114330000D02*
X174008000Y-116223000D01*
X203200000Y-145415000D02*
X203200000Y-150495000D01*
X174008000Y-116223000D02*
X203200000Y-145415000D01*
%TO.N,Net-(J1-Pad63)*%
X153640000Y-114330000D02*
X125730000Y-142240000D01*
X162333000Y-114330000D02*
X153640000Y-114330000D01*
%TO.N,Net-(J1-Pad62)*%
X181640000Y-114330000D02*
X210185000Y-142875000D01*
X174883000Y-114330000D02*
X181640000Y-114330000D01*
%TO.N,Net-(J1-Pad61)*%
X210185000Y-116738400D02*
X205066600Y-111620000D01*
X205066600Y-111620000D02*
X174883000Y-111620000D01*
%TO.N,/IOT61A*%
X175564800Y-108432600D02*
X194665600Y-108432600D01*
X174008000Y-109938600D02*
X175006000Y-108940600D01*
X174008000Y-111620000D02*
X174008000Y-109938600D01*
X175514000Y-108432600D02*
X175564800Y-108432600D01*
X175006000Y-108940600D02*
X175514000Y-108432600D01*
%TO.N,/IOT31B*%
X173608000Y-114330000D02*
X173608000Y-117093000D01*
X173608000Y-117093000D02*
X200660000Y-144145000D01*
X200660000Y-144145000D02*
X200660000Y-146685000D01*
%TO.N,/IOT61B*%
X195529200Y-112649000D02*
X200609200Y-117729000D01*
X173990000Y-112649000D02*
X195529200Y-112649000D01*
X173608000Y-111620000D02*
X173608000Y-112267000D01*
X173608000Y-112267000D02*
X173990000Y-112649000D01*
%TO.N,/IOT56A*%
X173208000Y-117963000D02*
X198247000Y-143002000D01*
X198247000Y-143002000D02*
X198247000Y-150495000D01*
X173208000Y-114330000D02*
X173208000Y-117963000D01*
%TO.N,GND*%
X174326000Y-97040000D02*
X179545000Y-91821000D01*
X162726000Y-97040000D02*
X139346000Y-73660000D01*
D25*
X174801000Y-97620000D02*
X175557000Y-97620000D01*
D24*
X162783000Y-111015000D02*
X162689800Y-110921800D01*
X179578000Y-91821000D02*
X204432000Y-66967000D01*
X171608000Y-121443000D02*
X187960000Y-137795000D01*
X139346000Y-73660000D02*
X133350000Y-73660000D01*
X204432000Y-66967000D02*
X204432000Y-62992000D01*
X162808000Y-111040000D02*
X162808000Y-111620000D01*
X169526000Y-85998000D02*
X173952000Y-81572000D01*
X174408000Y-115353000D02*
X205740000Y-146685000D01*
D25*
X178181000Y-100330000D02*
X181610000Y-96901000D01*
D24*
X166319200Y-83134200D02*
X166319200Y-66268600D01*
X168326000Y-85141000D02*
X166319200Y-83134200D01*
X201930000Y-109956600D02*
X201980800Y-110007400D01*
D25*
X174801000Y-100330000D02*
X178181000Y-100330000D01*
D24*
X183540400Y-109956600D02*
X201930000Y-109956600D01*
X170726000Y-97620000D02*
X170726000Y-89370000D01*
X189192000Y-74968000D02*
X189192000Y-62992000D01*
X133350000Y-73660000D02*
X130759200Y-71069200D01*
X181559200Y-78536800D02*
X181559200Y-66268600D01*
X162808000Y-115322000D02*
X132080000Y-146050000D01*
X162689800Y-110921800D02*
X162808000Y-111040000D01*
X153632000Y-76797000D02*
X153632000Y-62992000D01*
X149860000Y-137160000D02*
X149860000Y-146685000D01*
X174326000Y-97620000D02*
X174326000Y-97040000D01*
X196799200Y-71170800D02*
X196799200Y-66268600D01*
D25*
X175557000Y-97620000D02*
X202692000Y-70485000D01*
D24*
X130759200Y-71069200D02*
X130759200Y-66268600D01*
X169208000Y-126663000D02*
X172720000Y-130175000D01*
X183540400Y-109956600D02*
X175491400Y-109956600D01*
X171926000Y-92234000D02*
X189192000Y-74968000D01*
X162726000Y-97620000D02*
X162726000Y-97040000D01*
X170726000Y-89370000D02*
X181559200Y-78536800D01*
X175491400Y-109956600D02*
X174408000Y-111040000D01*
X173126000Y-97620000D02*
X173126000Y-94844000D01*
X166326000Y-89491000D02*
X153632000Y-76797000D01*
X132080000Y-146050000D02*
X132080000Y-150495000D01*
X165608000Y-121412000D02*
X149860000Y-137160000D01*
X169526000Y-97620000D02*
X169526000Y-85998000D01*
X168326000Y-97620000D02*
X168326000Y-85141000D01*
X174408000Y-114330000D02*
X174408000Y-115353000D01*
X173952000Y-81572000D02*
X173952000Y-62992000D01*
X171608000Y-114330000D02*
X171608000Y-121443000D01*
X169208000Y-114330000D02*
X169208000Y-111620000D01*
X169208000Y-114330000D02*
X169208000Y-126663000D01*
X174408000Y-111040000D02*
X174408000Y-111620000D01*
X171926000Y-97620000D02*
X171926000Y-92234000D01*
X187960000Y-137795000D02*
X187960000Y-150495000D01*
X173126000Y-94844000D02*
X196799200Y-71170800D01*
X165608000Y-114330000D02*
X165608000Y-121412000D01*
X172720000Y-130175000D02*
X172720000Y-150495000D01*
X166326000Y-97620000D02*
X166326000Y-89491000D01*
X162808000Y-114330000D02*
X162808000Y-115322000D01*
%TO.N,/IOT63A*%
X175006000Y-107213400D02*
X187655200Y-107213400D01*
X173208000Y-109011400D02*
X175006000Y-107213400D01*
X173208000Y-111620000D02*
X173208000Y-109011400D01*
%TO.N,/IOT56B*%
X195580000Y-141605000D02*
X195580000Y-146685000D01*
X172808000Y-118833000D02*
X195580000Y-141605000D01*
X172808000Y-114330000D02*
X172808000Y-118833000D01*
%TO.N,/IOT63B*%
X174752000Y-106146600D02*
X172818000Y-108080600D01*
X172818000Y-111230200D02*
X172808000Y-111240200D01*
X172818000Y-108080600D02*
X172818000Y-111230200D01*
X182372000Y-106146600D02*
X174752000Y-106146600D01*
X172808000Y-111240200D02*
X172808000Y-111620000D01*
%TO.N,/IOT58A*%
X172408000Y-119703000D02*
X193040000Y-140335000D01*
X193040000Y-140335000D02*
X193040000Y-150495000D01*
X172408000Y-114330000D02*
X172408000Y-119703000D01*
%TO.N,/IOT66A*%
X173431200Y-105587800D02*
X172408000Y-106611000D01*
X172408000Y-106611000D02*
X172408000Y-111620000D01*
%TO.N,/IOT58B*%
X172008000Y-114330000D02*
X172008000Y-120573000D01*
X172008000Y-120573000D02*
X190500000Y-139065000D01*
X190500000Y-139065000D02*
X190500000Y-146685000D01*
%TO.N,/IOT66B*%
X186944000Y-113258600D02*
X172923200Y-113258600D01*
X190500000Y-116814600D02*
X186944000Y-113258600D01*
X172923200Y-113258600D02*
X172008000Y-112343400D01*
X190500000Y-120523000D02*
X190500000Y-116814600D01*
X172008000Y-112343400D02*
X172008000Y-111620000D01*
%TO.N,/IOT68A*%
X171608000Y-106558600D02*
X171602400Y-106553000D01*
X171608000Y-111620000D02*
X171608000Y-106558600D01*
%TO.N,/READY*%
X185420000Y-136525000D02*
X185420000Y-146685000D01*
X171208000Y-114330000D02*
X171208000Y-122313000D01*
X171208000Y-122313000D02*
X185420000Y-136525000D01*
%TO.N,/IOT68B*%
X171208000Y-108546200D02*
X171208000Y-111620000D01*
X170383200Y-107721400D02*
X171208000Y-108546200D01*
%TO.N,/IOB56A*%
X182880000Y-135255000D02*
X182880000Y-150495000D01*
X170808000Y-123183000D02*
X182880000Y-135255000D01*
X170808000Y-114330000D02*
X170808000Y-123183000D01*
%TO.N,/IOT72A*%
X170808000Y-109771800D02*
X169976800Y-108940600D01*
X170808000Y-111620000D02*
X170808000Y-109771800D01*
%TO.N,/IOB56B*%
X170408000Y-114330000D02*
X170408000Y-124053000D01*
X170408000Y-124053000D02*
X180340000Y-133985000D01*
X180340000Y-133985000D02*
X180340000Y-146685000D01*
%TO.N,/IOT72B*%
X170408000Y-110946600D02*
X169875200Y-110413800D01*
X170408000Y-111620000D02*
X170408000Y-110946600D01*
%TO.N,/IOB60A*%
X177800000Y-132715000D02*
X177800000Y-150495000D01*
X170008000Y-124923000D02*
X177800000Y-132715000D01*
X170008000Y-114330000D02*
X170008000Y-124923000D01*
D27*
%TO.N,/VCCIO0{slash}1*%
X169608000Y-111620000D02*
X170008000Y-111620000D01*
D24*
X170008000Y-112680200D02*
X170008000Y-111620000D01*
X170281600Y-112953800D02*
X170008000Y-112680200D01*
%TO.N,/DONE*%
X169608000Y-125793000D02*
X175260000Y-131445000D01*
X175260000Y-131445000D02*
X175260000Y-146685000D01*
X169608000Y-114330000D02*
X169608000Y-125793000D01*
%TO.N,/VCCIO6{slash}7*%
X168408000Y-127502000D02*
X167640000Y-128270000D01*
X168408000Y-114330000D02*
X168408000Y-127502000D01*
D27*
X168408000Y-114330000D02*
X168808000Y-114330000D01*
D24*
X167640000Y-128270000D02*
X167640000Y-150495000D01*
%TO.N,/IOT23A*%
X169824400Y-106553000D02*
X168808000Y-107569400D01*
X168808000Y-107569400D02*
X168808000Y-111620000D01*
%TO.N,/IOT23B*%
X168402000Y-105994200D02*
X168408000Y-106000200D01*
X168408000Y-106000200D02*
X168408000Y-111620000D01*
%TO.N,/IOT1A*%
X168008000Y-126632000D02*
X165100000Y-129540000D01*
X168008000Y-114330000D02*
X168008000Y-126632000D01*
X165100000Y-129540000D02*
X165100000Y-146685000D01*
%TO.N,/IOT21A*%
X168008000Y-112331800D02*
X167386000Y-112953800D01*
X168008000Y-111620000D02*
X167998000Y-111610000D01*
X168008000Y-111620000D02*
X168008000Y-112331800D01*
%TO.N,/IOT1B*%
X162560000Y-130810000D02*
X162560000Y-150495000D01*
X167608000Y-114330000D02*
X167608000Y-125762000D01*
X167608000Y-125762000D02*
X162560000Y-130810000D01*
%TO.N,/IOT21B*%
X167477361Y-107223405D02*
X167608000Y-107354044D01*
X167608000Y-107354044D02*
X167608000Y-111620000D01*
%TO.N,/IOT3A*%
X167208000Y-124892000D02*
X160020000Y-132080000D01*
X160020000Y-132080000D02*
X160020000Y-146685000D01*
X167208000Y-114330000D02*
X167208000Y-124892000D01*
%TO.N,/IOT19A*%
X166319200Y-106502200D02*
X166319200Y-107416600D01*
X166319200Y-107416600D02*
X167208000Y-108305400D01*
X167208000Y-108305400D02*
X167208000Y-111620000D01*
%TO.N,/IOT3B*%
X157480000Y-133350000D02*
X157480000Y-150495000D01*
X166808000Y-124022000D02*
X157480000Y-133350000D01*
X166808000Y-114330000D02*
X166808000Y-124022000D01*
%TO.N,/IOT19B*%
X166069200Y-112953800D02*
X166808000Y-112215000D01*
X166808000Y-112215000D02*
X166808000Y-111620000D01*
X164896800Y-112953800D02*
X166069200Y-112953800D01*
%TO.N,/IOT7A*%
X154940000Y-134620000D02*
X154940000Y-146685000D01*
X166408000Y-114330000D02*
X166408000Y-123152000D01*
X166408000Y-123152000D02*
X154940000Y-134620000D01*
%TO.N,/IOT15A*%
X165506400Y-107518200D02*
X165582600Y-107518200D01*
X164947600Y-106959400D02*
X165506400Y-107518200D01*
X165582600Y-107518200D02*
X166408000Y-108343600D01*
X166408000Y-108343600D02*
X166408000Y-111620000D01*
%TO.N,/IOT7B*%
X152400000Y-135890000D02*
X152400000Y-150495000D01*
X166008000Y-122282000D02*
X152400000Y-135890000D01*
X166008000Y-114330000D02*
X166008000Y-122282000D01*
%TO.N,/IOT15B*%
X163220400Y-107061000D02*
X163880800Y-107721400D01*
X166008000Y-108832600D02*
X166008000Y-111620000D01*
X164896800Y-107721400D02*
X166008000Y-108832600D01*
X163880800Y-107721400D02*
X164896800Y-107721400D01*
%TO.N,/IOT11A*%
X165608000Y-109194600D02*
X165608000Y-111620000D01*
X161137600Y-107111800D02*
X162306000Y-108280200D01*
X162306000Y-108280200D02*
X164693600Y-108280200D01*
X164693600Y-108280200D02*
X165608000Y-109194600D01*
%TO.N,/IOL9A*%
X147320000Y-138430000D02*
X147320000Y-150495000D01*
X165208000Y-114330000D02*
X165208000Y-120542000D01*
X165208000Y-120542000D02*
X147320000Y-138430000D01*
%TO.N,/IOT11B*%
X161327774Y-108788200D02*
X164490400Y-108788200D01*
X159156400Y-107975400D02*
X160514974Y-107975400D01*
X165208000Y-109505800D02*
X165208000Y-111620000D01*
X160514974Y-107975400D02*
X161327774Y-108788200D01*
X164490400Y-108788200D02*
X165208000Y-109505800D01*
%TO.N,/IOL9B*%
X164808000Y-114330000D02*
X164808000Y-119672000D01*
X164808000Y-119672000D02*
X144780000Y-139700000D01*
X144780000Y-139700000D02*
X144780000Y-146685000D01*
%TO.N,/IOL5A*%
X164408000Y-114330000D02*
X164408000Y-118802000D01*
X142240000Y-140970000D02*
X142240000Y-150495000D01*
X164408000Y-118802000D02*
X142240000Y-140970000D01*
%TO.N,/IOL5B*%
X164008000Y-114330000D02*
X164008000Y-117932000D01*
X164008000Y-117932000D02*
X139700000Y-142240000D01*
X139700000Y-142240000D02*
X139700000Y-146685000D01*
%TO.N,/IOL12A*%
X163608000Y-114330000D02*
X163608000Y-117062000D01*
X163608000Y-117062000D02*
X137160000Y-143510000D01*
X137160000Y-143510000D02*
X137160000Y-150495000D01*
%TO.N,/IOL12B*%
X163208000Y-116192000D02*
X134620000Y-144780000D01*
X163208000Y-114330000D02*
X163208000Y-116192000D01*
X134620000Y-144780000D02*
X134620000Y-146685000D01*
%TD*%
M02*
