%TF.GenerationSoftware,KiCad,Pcbnew,8.0.0*%
%TF.CreationDate,2024-03-15T19:44:43+09:00*%
%TF.ProjectId,ds_test_board3,64735f74-6573-4745-9f62-6f617264332e,rev?*%
%TF.SameCoordinates,Original*%
%TF.FileFunction,Soldermask,Bot*%
%TF.FilePolarity,Negative*%
%FSLAX46Y46*%
G04 Gerber Fmt 4.6, Leading zero omitted, Abs format (unit mm)*
G04 Created by KiCad (PCBNEW 8.0.0) date 2024-03-15 19:44:43*
%MOMM*%
%LPD*%
G01*
G04 APERTURE LIST*
G04 Aperture macros list*
%AMFreePoly0*
4,1,6,1.000000,0.000000,0.500000,-0.750000,-0.500000,-0.750000,-0.500000,0.750000,0.500000,0.750000,1.000000,0.000000,1.000000,0.000000,$1*%
%AMFreePoly1*
4,1,6,0.500000,-0.750000,-0.650000,-0.750000,-0.150000,0.000000,-0.650000,0.750000,0.500000,0.750000,0.500000,-0.750000,0.500000,-0.750000,$1*%
G04 Aperture macros list end*
%ADD10R,1.500000X1.500000*%
%ADD11C,1.700000*%
%ADD12C,2.900000*%
%ADD13C,5.000000*%
%ADD14R,2.000000X2.000000*%
%ADD15FreePoly0,180.000000*%
%ADD16FreePoly1,180.000000*%
%ADD17R,0.230000X0.660000*%
%ADD18R,0.350000X0.660000*%
%ADD19FreePoly0,90.000000*%
%ADD20FreePoly1,90.000000*%
G04 APERTURE END LIST*
D10*
%TO.C,TP66*%
X210185000Y-142875000D03*
%TD*%
D11*
%TO.C,REF\u002A\u002A*%
X137160000Y-105664000D03*
%TD*%
D10*
%TO.C,TP79*%
X190500000Y-146685000D03*
%TD*%
%TO.C,TP127*%
X125730000Y-126365000D03*
%TD*%
%TO.C,TP111*%
X149860000Y-146685000D03*
%TD*%
%TO.C,TP21*%
X153632000Y-62992000D03*
%TD*%
D11*
%TO.C,REF\u002A\u002A*%
X127000000Y-110744000D03*
%TD*%
D10*
%TO.C,TP19*%
X158712000Y-62992000D03*
%TD*%
%TO.C,TP69*%
X203200000Y-150495000D03*
%TD*%
%TO.C,TP73*%
X198247000Y-150495000D03*
%TD*%
D12*
%TO.C,REF\u002A\u002A*%
X125730000Y-60960000D03*
D13*
X125730000Y-60960000D03*
%TD*%
D10*
%TO.C,TP117*%
X142240000Y-150495000D03*
%TD*%
D11*
%TO.C,REF\u002A\u002A*%
X144780000Y-105664000D03*
%TD*%
%TO.C,REF\u002A\u002A*%
X132080000Y-110744000D03*
%TD*%
%TO.C,REF\u002A\u002A*%
X129540000Y-98044000D03*
%TD*%
D10*
%TO.C,TP20*%
X156159200Y-66268600D03*
%TD*%
D11*
%TO.C,REF\u002A\u002A*%
X129540000Y-113284000D03*
%TD*%
D10*
%TO.C,TP81*%
X187960000Y-150495000D03*
%TD*%
%TO.C,TP17*%
X163792000Y-62992000D03*
%TD*%
%TO.C,TP93*%
X172720000Y-150495000D03*
%TD*%
D11*
%TO.C,REF\u002A\u002A*%
X139700000Y-100584000D03*
%TD*%
%TO.C,REF\u002A\u002A*%
X132080000Y-103124000D03*
%TD*%
%TO.C,REF\u002A\u002A*%
X124460000Y-113284000D03*
%TD*%
D10*
%TO.C,TP14*%
X171399200Y-66268600D03*
%TD*%
%TO.C,TP83*%
X185420000Y-146685000D03*
%TD*%
%TO.C,TP6*%
X191719200Y-66268600D03*
%TD*%
%TO.C,TP12*%
X176479200Y-66268600D03*
%TD*%
%TO.C,TP18*%
X161239200Y-66268600D03*
%TD*%
D11*
%TO.C,REF\u002A\u002A*%
X127000000Y-108204000D03*
%TD*%
%TO.C,REF\u002A\u002A*%
X124460000Y-110744000D03*
%TD*%
%TO.C,REF\u002A\u002A*%
X124460000Y-100584000D03*
%TD*%
D10*
%TO.C,TP1*%
X204432000Y-62992000D03*
%TD*%
%TO.C,TP4*%
X196799200Y-66268600D03*
%TD*%
%TO.C,TP67*%
X205740000Y-146685000D03*
%TD*%
D14*
%TO.C,REF\u002A\u002A*%
X209804000Y-101219000D03*
%TD*%
D11*
%TO.C,REF\u002A\u002A*%
X124460000Y-115824000D03*
%TD*%
D10*
%TO.C,TP23*%
X148552000Y-62992000D03*
%TD*%
D11*
%TO.C,REF\u002A\u002A*%
X132080000Y-100584000D03*
%TD*%
D10*
%TO.C,TP5*%
X194272000Y-62992000D03*
%TD*%
D12*
%TO.C,REF\u002A\u002A*%
X125730000Y-152908000D03*
D13*
X125730000Y-152908000D03*
%TD*%
D11*
%TO.C,REF\u002A\u002A*%
X134620000Y-100584000D03*
%TD*%
%TO.C,REF\u002A\u002A*%
X124460000Y-95504000D03*
%TD*%
%TO.C,REF\u002A\u002A*%
X127000000Y-115824000D03*
%TD*%
D10*
%TO.C,TP16*%
X166319200Y-66268600D03*
%TD*%
D11*
%TO.C,REF\u002A\u002A*%
X129540000Y-108204000D03*
%TD*%
D10*
%TO.C,TP95*%
X167640000Y-150495000D03*
%TD*%
D11*
%TO.C,REF\u002A\u002A*%
X139700000Y-108204000D03*
%TD*%
%TO.C,REF\u002A\u002A*%
X137160000Y-103124000D03*
%TD*%
D10*
%TO.C,TP85*%
X182880000Y-150495000D03*
%TD*%
%TO.C,TP7*%
X189192000Y-62992000D03*
%TD*%
%TO.C,TP91*%
X175260000Y-146685000D03*
%TD*%
%TO.C,TP2*%
X201879200Y-66268600D03*
%TD*%
%TO.C,TP93*%
X170561000Y-146685000D03*
%TD*%
D12*
%TO.C,REF\u002A\u002A*%
X209550000Y-60960000D03*
D13*
X209550000Y-60960000D03*
%TD*%
D10*
%TO.C,TP125*%
X132080000Y-150495000D03*
%TD*%
D12*
%TO.C,REF\u002A\u002A*%
X209550000Y-152908000D03*
D13*
X209550000Y-152908000D03*
%TD*%
D10*
%TO.C,TP11*%
X179032000Y-62992000D03*
%TD*%
D11*
%TO.C,REF\u002A\u002A*%
X124460000Y-105664000D03*
%TD*%
D10*
%TO.C,TP28*%
X135839200Y-66268600D03*
%TD*%
%TO.C,TP15*%
X168872000Y-62992000D03*
%TD*%
D14*
%TO.C,REF\u002A\u002A*%
X209804000Y-107315000D03*
%TD*%
D11*
%TO.C,REF\u002A\u002A*%
X134620000Y-110744000D03*
%TD*%
D10*
%TO.C,TP121*%
X137160000Y-150495000D03*
%TD*%
D11*
%TO.C,REF\u002A\u002A*%
X127000000Y-98044000D03*
%TD*%
%TO.C,REF\u002A\u002A*%
X144780000Y-103124000D03*
%TD*%
D10*
%TO.C,TP101*%
X162560000Y-150495000D03*
%TD*%
%TO.C,TP35*%
X201930000Y-90297000D03*
%TD*%
%TO.C,TP9*%
X184112000Y-62992000D03*
%TD*%
D11*
%TO.C,REF\u002A\u002A*%
X127000000Y-103124000D03*
%TD*%
D10*
%TO.C,TP8*%
X186639200Y-66268600D03*
%TD*%
%TO.C,TP107*%
X154940000Y-146685000D03*
%TD*%
D11*
%TO.C,REF\u002A\u002A*%
X132080000Y-105664000D03*
%TD*%
%TO.C,REF\u002A\u002A*%
X142240000Y-103124000D03*
%TD*%
D10*
%TO.C,TP22*%
X151079200Y-66268600D03*
%TD*%
D11*
%TO.C,REF\u002A\u002A*%
X124460000Y-103124000D03*
%TD*%
%TO.C,REF\u002A\u002A*%
X129540000Y-105664000D03*
%TD*%
%TO.C,REF\u002A\u002A*%
X129540000Y-103124000D03*
%TD*%
%TO.C,REF\u002A\u002A*%
X137160000Y-108204000D03*
%TD*%
%TO.C,REF\u002A\u002A*%
X137160000Y-100584000D03*
%TD*%
D10*
%TO.C,TP29*%
X133312000Y-62992000D03*
%TD*%
D11*
%TO.C,REF\u002A\u002A*%
X132080000Y-108204000D03*
%TD*%
D10*
%TO.C,TP10*%
X181559200Y-66268600D03*
%TD*%
D11*
%TO.C,REF\u002A\u002A*%
X139700000Y-103124000D03*
%TD*%
D10*
%TO.C,TP105*%
X157480000Y-150495000D03*
%TD*%
D11*
%TO.C,REF\u002A\u002A*%
X129540000Y-110744000D03*
%TD*%
%TO.C,REF\u002A\u002A*%
X129540000Y-115824000D03*
%TD*%
D10*
%TO.C,TP30*%
X130759200Y-66268600D03*
%TD*%
D11*
%TO.C,REF\u002A\u002A*%
X127000000Y-100584000D03*
%TD*%
%TO.C,REF\u002A\u002A*%
X137160000Y-110744000D03*
%TD*%
D10*
%TO.C,TP115*%
X144780000Y-146685000D03*
%TD*%
%TO.C,TP27*%
X138392000Y-62992000D03*
%TD*%
%TO.C,TP87*%
X180340000Y-146685000D03*
%TD*%
D11*
%TO.C,REF\u002A\u002A*%
X134620000Y-105664000D03*
%TD*%
D10*
%TO.C,TP113*%
X147320000Y-150495000D03*
%TD*%
%TO.C,TP119*%
X139700000Y-146685000D03*
%TD*%
D11*
%TO.C,REF\u002A\u002A*%
X134620000Y-103124000D03*
%TD*%
D10*
%TO.C,TP75*%
X195580000Y-146685000D03*
%TD*%
%TO.C,TP89*%
X177800000Y-150495000D03*
%TD*%
D11*
%TO.C,REF\u002A\u002A*%
X127000000Y-105664000D03*
%TD*%
%TO.C,REF\u002A\u002A*%
X142240000Y-100584000D03*
%TD*%
%TO.C,REF\u002A\u002A*%
X139700000Y-105664000D03*
%TD*%
D10*
%TO.C,TP109*%
X152400000Y-150495000D03*
%TD*%
D11*
%TO.C,REF\u002A\u002A*%
X132080000Y-98044000D03*
%TD*%
D10*
%TO.C,TP123*%
X134620000Y-146685000D03*
%TD*%
%TO.C,TP63*%
X209677000Y-70485000D03*
%TD*%
%TO.C,TP103*%
X160020000Y-146685000D03*
%TD*%
%TO.C,TP95*%
X165100000Y-146710400D03*
%TD*%
%TO.C,TP128*%
X125730000Y-142240000D03*
%TD*%
D11*
%TO.C,REF\u002A\u002A*%
X134620000Y-108204000D03*
%TD*%
%TO.C,REF\u002A\u002A*%
X124460000Y-118364000D03*
%TD*%
%TO.C,REF\u002A\u002A*%
X124460000Y-108204000D03*
%TD*%
D10*
%TO.C,TP77*%
X193040000Y-150495000D03*
%TD*%
%TO.C,TP37*%
X191770000Y-90297000D03*
%TD*%
%TO.C,TP25*%
X143472000Y-62992000D03*
%TD*%
D11*
%TO.C,REF\u002A\u002A*%
X127000000Y-113284000D03*
%TD*%
%TO.C,REF\u002A\u002A*%
X129540000Y-100584000D03*
%TD*%
D10*
%TO.C,TP24*%
X145999200Y-66268600D03*
%TD*%
%TO.C,TP26*%
X140919200Y-66268600D03*
%TD*%
D11*
%TO.C,REF\u002A\u002A*%
X142240000Y-105664000D03*
%TD*%
D10*
%TO.C,TP3*%
X199352000Y-62992000D03*
%TD*%
%TO.C,TP61*%
X125730000Y-70485000D03*
%TD*%
%TO.C,TP13*%
X173952000Y-62992000D03*
%TD*%
D11*
%TO.C,REF\u002A\u002A*%
X139700000Y-110744000D03*
%TD*%
%TO.C,REF\u002A\u002A*%
X124460000Y-98044000D03*
%TD*%
D10*
%TO.C,TP71*%
X200660000Y-146685000D03*
%TD*%
D15*
%TO.C,REF\u002A\u002A*%
X170180000Y-59436000D03*
D16*
X168730000Y-59436000D03*
%TD*%
D15*
%TO.C,REF\u002A\u002A*%
X160020000Y-59436000D03*
D16*
X158570000Y-59436000D03*
%TD*%
D15*
%TO.C,REF\u002A\u002A*%
X137922000Y-59436000D03*
D16*
X136472000Y-59436000D03*
%TD*%
D15*
%TO.C,REF\u002A\u002A*%
X193384000Y-59436000D03*
D16*
X191934000Y-59436000D03*
%TD*%
D15*
%TO.C,REF\u002A\u002A*%
X185891000Y-59436000D03*
D16*
X184441000Y-59436000D03*
%TD*%
D17*
%TO.C,J1*%
X162808000Y-111620000D03*
X162808000Y-114330000D03*
X163208000Y-111620000D03*
X163208000Y-114330000D03*
X163608000Y-111620000D03*
X163608000Y-114330000D03*
X164008000Y-111620000D03*
X164008000Y-114330000D03*
X164408000Y-111620000D03*
X164408000Y-114330000D03*
X164808000Y-111620000D03*
X164808000Y-114330000D03*
X165208000Y-111620000D03*
X165208000Y-114330000D03*
X165608000Y-111620000D03*
X165608000Y-114330000D03*
X166008000Y-111620000D03*
X166008000Y-114330000D03*
X166408000Y-111620000D03*
X166408000Y-114330000D03*
X166808000Y-111620000D03*
X166808000Y-114330000D03*
X167208000Y-111620000D03*
X167208000Y-114330000D03*
X167608000Y-111620000D03*
X167608000Y-114330000D03*
X168008000Y-111620000D03*
X168008000Y-114330000D03*
X168408000Y-111620000D03*
X168408000Y-114330000D03*
X168808000Y-111620000D03*
X168808000Y-114330000D03*
X169208000Y-111620000D03*
X169208000Y-114330000D03*
X169608000Y-111620000D03*
X169608000Y-114330000D03*
X170008000Y-111620000D03*
X170008000Y-114330000D03*
X170408000Y-111620000D03*
X170408000Y-114330000D03*
X170808000Y-111620000D03*
X170808000Y-114330000D03*
X171208000Y-111620000D03*
X171208000Y-114330000D03*
X171608000Y-111620000D03*
X171608000Y-114330000D03*
X172008000Y-111620000D03*
X172008000Y-114330000D03*
X172408000Y-111620000D03*
X172408000Y-114330000D03*
X172808000Y-111620000D03*
X172808000Y-114330000D03*
X173208000Y-111620000D03*
X173208000Y-114330000D03*
X173608000Y-111620000D03*
X173608000Y-114330000D03*
X174008000Y-111620000D03*
X174008000Y-114330000D03*
X174408000Y-111620000D03*
X174408000Y-114330000D03*
D18*
X162333000Y-114330000D03*
X162333000Y-111620000D03*
X174883000Y-111620000D03*
X174883000Y-114330000D03*
%TD*%
D17*
%TO.C,J2*%
X162726000Y-97620000D03*
X162726000Y-100330000D03*
X163126000Y-97620000D03*
X163126000Y-100330000D03*
X163526000Y-97620000D03*
X163526000Y-100330000D03*
X163926000Y-97620000D03*
X163926000Y-100330000D03*
X164326000Y-97620000D03*
X164326000Y-100330000D03*
X164726000Y-97620000D03*
X164726000Y-100330000D03*
X165126000Y-97620000D03*
X165126000Y-100330000D03*
X165526000Y-97620000D03*
X165526000Y-100330000D03*
X165926000Y-97620000D03*
X165926000Y-100330000D03*
X166326000Y-97620000D03*
X166326000Y-100330000D03*
X166726000Y-97620000D03*
X166726000Y-100330000D03*
X167126000Y-97620000D03*
X167126000Y-100330000D03*
X167526000Y-97620000D03*
X167526000Y-100330000D03*
X167926000Y-97620000D03*
X167926000Y-100330000D03*
X168326000Y-97620000D03*
X168326000Y-100330000D03*
X168726000Y-97620000D03*
X168726000Y-100330000D03*
X169126000Y-97620000D03*
X169126000Y-100330000D03*
X169526000Y-97620000D03*
X169526000Y-100330000D03*
X169926000Y-97620000D03*
X169926000Y-100330000D03*
X170326000Y-97620000D03*
X170326000Y-100330000D03*
X170726000Y-97620000D03*
X170726000Y-100330000D03*
X171126000Y-97620000D03*
X171126000Y-100330000D03*
X171526000Y-97620000D03*
X171526000Y-100330000D03*
X171926000Y-97620000D03*
X171926000Y-100330000D03*
X172326000Y-97620000D03*
X172326000Y-100330000D03*
X172726000Y-97620000D03*
X172726000Y-100330000D03*
X173126000Y-97620000D03*
X173126000Y-100330000D03*
X173526000Y-97620000D03*
X173526000Y-100330000D03*
X173926000Y-97620000D03*
X173926000Y-100330000D03*
X174326000Y-97620000D03*
X174326000Y-100330000D03*
D18*
X162251000Y-100330000D03*
X162251000Y-97620000D03*
X174801000Y-97620000D03*
X174801000Y-100330000D03*
%TD*%
D15*
%TO.C,REF\u002A\u002A*%
X178742000Y-59436000D03*
D16*
X177292000Y-59436000D03*
%TD*%
D19*
%TO.C,REF\u002A\u002A*%
X205105000Y-68162000D03*
D20*
X205105000Y-66712000D03*
%TD*%
D15*
%TO.C,REF\u002A\u002A*%
X201766000Y-59436000D03*
D16*
X200316000Y-59436000D03*
%TD*%
M02*
