%TF.GenerationSoftware,KiCad,Pcbnew,7.0.9*%
%TF.CreationDate,2023-12-16T04:09:15+09:00*%
%TF.ProjectId,ds_test_board3,64735f74-6573-4745-9f62-6f617264332e,rev?*%
%TF.SameCoordinates,Original*%
%TF.FileFunction,Paste,Top*%
%TF.FilePolarity,Positive*%
%FSLAX46Y46*%
G04 Gerber Fmt 4.6, Leading zero omitted, Abs format (unit mm)*
G04 Created by KiCad (PCBNEW 7.0.9) date 2023-12-16 04:09:15*
%MOMM*%
%LPD*%
G01*
G04 APERTURE LIST*
%ADD10R,1.000000X2.510000*%
G04 APERTURE END LIST*
D10*
%TO.C,J5*%
X205740000Y-131056000D03*
X203200000Y-134366000D03*
X200660000Y-131056000D03*
X198120000Y-134366000D03*
X195580000Y-131056000D03*
X193040000Y-134366000D03*
X190500000Y-131056000D03*
X187960000Y-134366000D03*
X185420000Y-131056000D03*
X182880000Y-134366000D03*
X180340000Y-131056000D03*
X177800000Y-134366000D03*
X175260000Y-131056000D03*
X172720000Y-134366000D03*
X170180000Y-131056000D03*
X167640000Y-134366000D03*
X165100000Y-131056000D03*
X162560000Y-134366000D03*
X160020000Y-131056000D03*
X157480000Y-134366000D03*
X154940000Y-131056000D03*
X152400000Y-134366000D03*
X149860000Y-131056000D03*
X147320000Y-134366000D03*
X144780000Y-131056000D03*
X142240000Y-134366000D03*
X139700000Y-131056000D03*
X137160000Y-134366000D03*
X134620000Y-131056000D03*
X132080000Y-134366000D03*
%TD*%
%TO.C,J4*%
X130772000Y-74549000D03*
X133312000Y-71239000D03*
X135852000Y-74549000D03*
X138392000Y-71239000D03*
X140932000Y-74549000D03*
X143472000Y-71239000D03*
X146012000Y-74549000D03*
X148552000Y-71239000D03*
X151092000Y-74549000D03*
X153632000Y-71239000D03*
X156172000Y-74549000D03*
X158712000Y-71239000D03*
X161252000Y-74549000D03*
X163792000Y-71239000D03*
X166332000Y-74549000D03*
X168872000Y-71239000D03*
X171412000Y-74549000D03*
X173952000Y-71239000D03*
X176492000Y-74549000D03*
X179032000Y-71239000D03*
X181572000Y-74549000D03*
X184112000Y-71239000D03*
X186652000Y-74549000D03*
X189192000Y-71239000D03*
X191732000Y-74549000D03*
X194272000Y-71239000D03*
X196812000Y-74549000D03*
X199352000Y-71239000D03*
X201892000Y-74549000D03*
X204432000Y-71239000D03*
%TD*%
%TO.C,J6*%
X205740000Y-138684000D03*
X203200000Y-141994000D03*
X200660000Y-138684000D03*
X198120000Y-141994000D03*
X195580000Y-138684000D03*
X193040000Y-141994000D03*
X190500000Y-138684000D03*
X187960000Y-141994000D03*
X185420000Y-138684000D03*
X182880000Y-141994000D03*
X180340000Y-138684000D03*
X177800000Y-141994000D03*
X175260000Y-138684000D03*
X172720000Y-141994000D03*
X170180000Y-138684000D03*
X167640000Y-141994000D03*
X165100000Y-138684000D03*
X162560000Y-141994000D03*
X160020000Y-138684000D03*
X157480000Y-141994000D03*
X154940000Y-138684000D03*
X152400000Y-141994000D03*
X149860000Y-138684000D03*
X147320000Y-141994000D03*
X144780000Y-138684000D03*
X142240000Y-141994000D03*
X139700000Y-138684000D03*
X137160000Y-141994000D03*
X134620000Y-138684000D03*
X132080000Y-141994000D03*
%TD*%
%TO.C,J3*%
X204419200Y-78858600D03*
X201879200Y-82168600D03*
X199339200Y-78858600D03*
X196799200Y-82168600D03*
X194259200Y-78858600D03*
X191719200Y-82168600D03*
X189179200Y-78858600D03*
X186639200Y-82168600D03*
X184099200Y-78858600D03*
X181559200Y-82168600D03*
X179019200Y-78858600D03*
X176479200Y-82168600D03*
X173939200Y-78858600D03*
X171399200Y-82168600D03*
X168859200Y-78858600D03*
X166319200Y-82168600D03*
X163779200Y-78858600D03*
X161239200Y-82168600D03*
X158699200Y-78858600D03*
X156159200Y-82168600D03*
X153619200Y-78858600D03*
X151079200Y-82168600D03*
X148539200Y-78858600D03*
X145999200Y-82168600D03*
X143459200Y-78858600D03*
X140919200Y-82168600D03*
X138379200Y-78858600D03*
X135839200Y-82168600D03*
X133299200Y-78858600D03*
X130759200Y-82168600D03*
%TD*%
M02*
